Inter-UI-Thin.ufo
<glyph name="exclam" format="2">
  <advance width="736.0"/>
  <unicode hex="0021"/>
  <outline>
    <contour>
      <point x="400.0" y="2048.0" type="line"/>
      <point x="336.0" y="2048.0" type="line"/>
      <point x="336.0" y="320.0" type="line"/>
      <point x="400.0" y="320.0" type="line"/>
    </contour>
    <component base="period" xOffset="12.0"/>
  </outline>
</glyph>
<glyph name="numbersign" format="2">
  <advance width="1784.0"/>
  <unicode hex="0023"/>
  <note>
1. outline
2. slant 9.4 deg
3. remove extra shapes created by outlining
</note>
  <outline>
    <contour>
      <point x="1052.0" y="0.0" type="line"/>
      <point x="1116.0" y="0.0" type="line"/>
      <point x="1452.0" y="2048.0" type="line"/>
      <point x="1388.0" y="2048.0" type="line"/>
    </contour>
    <contour>
      <point x="64.0" y="636.0" type="line"/>
      <point x="1592.0" y="636.0" type="line"/>
      <point x="1604.0" y="700.0" type="line"/>
      <point x="76.0" y="700.0" type="line"/>
    </contour>
    <contour>
      <point x="332.0" y="0.0" type="line"/>
      <point x="396.0" y="0.0" type="line"/>
      <point x="732.0" y="2048.0" type="line"/>
      <point x="668.0" y="2048.0" type="line"/>
    </contour>
    <contour>
      <point x="180.0" y="1348.0" type="line"/>
      <point x="1708.0" y="1348.0" type="line"/>
      <point x="1720.0" y="1412.0" type="line"/>
      <point x="192.0" y="1412.0" type="line"/>
    </contour>
  </outline>
</glyph>
<glyph name="percent" format="2">
  <advance width="2156.0"/>
  <unicode hex="0025"/>
  <outline>
    <contour>
      <point x="1224.0" y="384.0" type="line" smooth="yes"/>
      <point x="1224.0" y="182.0"/>
      <point x="1347.0" y="15.0"/>
      <point x="1576.0" y="16.0" type="curve" smooth="yes"/>
      <point x="1796.0" y="15.0"/>
      <point x="1914.0" y="182.0"/>
      <point x="1916.0" y="384.0" type="curve" smooth="yes"/>
      <point x="1916.0" y="492.0" type="line" smooth="yes"/>
      <point x="1914.0" y="692.0"/>
      <point x="1800.0" y="861.0"/>
      <point x="1576.0" y="860.0" type="curve" smooth="yes"/>
      <point x="1351.0" y="861.0"/>
      <point x="1224.0" y="694.0"/>
      <point x="1224.0" y="492.0" type="curve" smooth="yes"/>
    </contour>
    <contour>
      <point x="1344.0" y="492.0" type="line" smooth="yes"/>
      <point x="1341.0" y="642.0"/>
      <point x="1414.0" y="773.0"/>
      <point x="1576.0" y="772.0" type="curve" smooth="yes"/>
      <point x="1736.0" y="773.0"/>
      <point x="1799.0" y="642.0"/>
      <point x="1800.0" y="492.0" type="curve" smooth="yes"/>
      <point x="1800.0" y="384.0" type="line" smooth="yes"/>
      <point x="1799.0" y="234.0"/>
      <point x="1732.0" y="101.0"/>
      <point x="1576.0" y="100.0" type="curve" smooth="yes"/>
      <point x="1408.0" y="101.0"/>
      <point x="1341.0" y="231.0"/>
      <point x="1344.0" y="384.0" type="curve" smooth="yes"/>
    </contour>
    <contour>
      <point x="236.0" y="1556.0" type="line" smooth="yes"/>
      <point x="235.0" y="1354.0"/>
      <point x="358.0" y="1185.0"/>
      <point x="588.0" y="1184.0" type="curve" smooth="yes"/>
      <point x="807.0" y="1185.0"/>
      <point x="925.0" y="1356.0"/>
      <point x="928.0" y="1556.0" type="curve" smooth="yes"/>
      <point x="928.0" y="1664.0" type="line" smooth="yes"/>
      <point x="925.0" y="1864.0"/>
      <point x="811.0" y="2033.0"/>
      <point x="588.0" y="2032.0" type="curve" smooth="yes"/>
      <point x="360.0" y="2033.0"/>
      <point x="235.0" y="1864.0"/>
      <point x="236.0" y="1664.0" type="curve" smooth="yes"/>
    </contour>
    <contour>
      <point x="352.0" y="1664.0" type="line" smooth="yes"/>
      <point x="350.0" y="1817.0"/>
      <point x="425.0" y="1945.0"/>
      <point x="588.0" y="1944.0" type="curve" smooth="yes"/>
      <point x="748.0" y="1945.0"/>
      <point x="810.0" y="1814.0"/>
      <point x="812.0" y="1664.0" type="curve" smooth="yes"/>
      <point x="812.0" y="1556.0" type="line" smooth="yes"/>
      <point x="810.0" y="1406.0"/>
      <point x="744.0" y="1273.0"/>
      <point x="588.0" y="1272.0" type="curve" smooth="yes"/>
      <point x="416.0" y="1273.0"/>
      <point x="350.0" y="1406.0"/>
      <point x="352.0" y="1556.0" type="curve" smooth="yes"/>
    </contour>
    <component base="fraction" xOffset="704.0"/>
  </outline>
</glyph>
<glyph name="ampersand" format="2">
  <advance width="1644.0"/>
  <unicode hex="0026"/>
  <outline>
    <contour>
      <point x="756.0" y="-28.0" type="curve" smooth="yes"/>
      <point x="956.0" y="-28.0"/>
      <point x="1160.0" y="60.0"/>
      <point x="1296.0" y="204.0" type="curve" smooth="yes"/>
      <point x="1313.0" y="222.0"/>
      <point x="1329.0" y="242.0"/>
      <point x="1344.0" y="264.0" type="curve" smooth="yes"/>
      <point x="1432.0" y="388.0"/>
      <point x="1504.0" y="564.0"/>
      <point x="1532.0" y="736.0" type="curve"/>
      <point x="1468.0" y="744.0" type="line"/>
      <point x="1398.0" y="331.0"/>
      <point x="1156.0" y="45.0"/>
      <point x="756.0" y="36.0" type="curve" smooth="yes"/>
      <point x="468.0" y="40.0"/>
      <point x="244.0" y="248.0"/>
      <point x="244.0" y="512.0" type="curve" smooth="yes"/>
      <point x="244.0" y="676.0"/>
      <point x="328.0" y="792.0"/>
      <point x="572.0" y="980.0" type="curve" smooth="yes"/>
      <point x="872.0" y="1204.0" type="line" smooth="yes"/>
      <point x="1080.0" y="1368.0"/>
      <point x="1164.0" y="1496.0"/>
      <point x="1164.0" y="1660.0" type="curve" smooth="yes"/>
      <point x="1164.0" y="1900.0"/>
      <point x="992.0" y="2076.0"/>
      <point x="760.0" y="2076.0" type="curve" smooth="yes"/>
      <point x="524.0" y="2076.0"/>
      <point x="324.0" y="1876.0"/>
      <point x="324.0" y="1644.0" type="curve" smooth="yes"/>
      <point x="324.0" y="1488.0"/>
      <point x="424.0" y="1368.0"/>
      <point x="612.0" y="1132.0" type="curve" smooth="yes"/>
      <point x="1508.0" y="0.0" type="line"/>
      <point x="1588.0" y="0.0" type="line"/>
      <point x="660.0" y="1172.0" type="line" smooth="yes"/>
      <point x="472.0" y="1408.0"/>
      <point x="388.0" y="1512.0"/>
      <point x="388.0" y="1644.0" type="curve" smooth="yes"/>
      <point x="388.0" y="1840.0"/>
      <point x="560.0" y="2012.0"/>
      <point x="760.0" y="2012.0" type="curve" smooth="yes"/>
      <point x="956.0" y="2012.0"/>
      <point x="1100.0" y="1864.0"/>
      <point x="1100.0" y="1660.0" type="curve" smooth="yes"/>
      <point x="1100.0" y="1515.0"/>
      <point x="1025.0" y="1406.0"/>
      <point x="832.0" y="1256.0" type="curve" smooth="yes"/>
      <point x="532.0" y="1032.0" type="line" smooth="yes"/>
      <point x="272.0" y="832.0"/>
      <point x="180.0" y="696.0"/>
      <point x="180.0" y="512.0" type="curve" smooth="yes"/>
      <point x="180.0" y="212.0"/>
      <point x="432.0" y="-28.0"/>
    </contour>
  </outline>
</glyph>
<glyph name="quotesingle" format="2">
  <advance width="576.0"/>
  <unicode hex="0027"/>
  <outline>
    <contour>
      <point x="320.0" y="2048.0" type="line"/>
      <point x="256.0" y="2048.0" type="line"/>
      <point x="256.0" y="1408.0" type="line"/>
      <point x="320.0" y="1408.0" type="line"/>
    </contour>
  </outline>
</glyph>
<glyph name="parenleft" format="2">
  <advance width="888.0"/>
  <unicode hex="0028"/>
  <guideline x="660.0" y="2176.0" angle="90.0"/>
  <guideline x="412.0" y="864.0" angle="0.0"/>
  <guideline x="728.0" y="2144.0" angle="0.0"/>
  <guideline x="752.0" y="-416.0" angle="0.0"/>
  <outline>
    <contour>
      <point x="328.0" y="864.0" type="curve" smooth="yes"/>
      <point x="328.0" y="436.0"/>
      <point x="432.0" y="-4.0"/>
      <point x="624.0" y="-416.0" type="curve"/>
      <point x="692.0" y="-416.0" type="line"/>
      <point x="495.0" y="-4.0"/>
      <point x="392.0" y="432.0"/>
      <point x="392.0" y="864.0" type="curve" smooth="yes"/>
      <point x="392.0" y="1293.0"/>
      <point x="493.0" y="1730.0"/>
      <point x="692.0" y="2144.0" type="curve"/>
      <point x="624.0" y="2144.0" type="line"/>
      <point x="432.0" y="1736.0"/>
      <point x="328.0" y="1296.0"/>
    </contour>
  </outline>
</glyph>
<glyph name="asterisk" format="2">
  <advance width="1408.0"/>
  <unicode hex="002A"/>
  <note>
hexagonal angle: 30 deg
</note>
  <guideline x="704.0" y="1472.0" angle="30.0"/>
  <guideline x="784.0" y="1472.0" angle="0.0"/>
  <guideline x="704.0" y="1472.0" angle="330.0"/>
  <outline>
    <contour>
      <point x="672.0" y="896.0" type="line"/>
      <point x="736.0" y="896.0" type="line"/>
      <point x="736.0" y="1416.0" type="line"/>
      <point x="1188.0" y="1156.0" type="line"/>
      <point x="1220.0" y="1212.0" type="line"/>
      <point x="768.0" y="1472.0" type="line"/>
      <point x="1220.0" y="1732.0" type="line"/>
      <point x="1188.0" y="1788.0" type="line"/>
      <point x="736.0" y="1528.0" type="line"/>
      <point x="736.0" y="2048.0" type="line"/>
      <point x="672.0" y="2048.0" type="line"/>
      <point x="672.0" y="1528.0" type="line"/>
      <point x="220.0" y="1788.0" type="line"/>
      <point x="188.0" y="1732.0" type="line"/>
      <point x="640.0" y="1472.0" type="line"/>
      <point x="188.0" y="1212.0" type="line"/>
      <point x="220.0" y="1156.0" type="line"/>
      <point x="672.0" y="1416.0" type="line"/>
    </contour>
  </outline>
</glyph>
<glyph name="plus" format="2">
  <advance width="1792.0"/>
  <unicode hex="002B"/>
  <guideline x="268.0" y="800.0" angle="0.0"/>
  <outline>
    <contour>
      <point x="864.0" y="220.0" type="line"/>
      <point x="928.0" y="220.0" type="line"/>
      <point x="928.0" y="1380.0" type="line"/>
      <point x="864.0" y="1380.0" type="line"/>
    </contour>
    <contour>
      <point x="316.0" y="768.0" type="line"/>
      <point x="1476.0" y="768.0" type="line"/>
      <point x="1476.0" y="832.0" type="line"/>
      <point x="316.0" y="832.0" type="line"/>
    </contour>
  </outline>
</glyph>
<glyph name="comma" format="2">
  <advance width="723.0"/>
  <unicode hex="002C"/>
  <outline>
    <contour>
      <point x="456.0" y="280.0" type="line"/>
      <point x="388.0" y="280.0" type="line"/>
      <point x="368.0" y="168.0" type="line" smooth="yes"/>
      <point x="320.0" y="-102.0"/>
      <point x="272.0" y="-348.0"/>
      <point x="244.0" y="-500.0" type="curve"/>
      <point x="296.0" y="-500.0" type="line"/>
      <point x="343.0" y="-349.0"/>
      <point x="399.0" y="-18.0"/>
      <point x="436.0" y="176.0" type="curve" smooth="yes"/>
    </contour>
  </outline>
</glyph>
<glyph name="hyphen" format="2">
  <advance width="1236.0"/>
  <unicode hex="002D"/>
  <outline>
    <contour>
      <point x="1000.0" y="916.0" type="line"/>
      <point x="236.0" y="916.0" type="line"/>
      <point x="236.0" y="852.0" type="line"/>
      <point x="1000.0" y="852.0" type="line"/>
    </contour>
  </outline>
</glyph>
<glyph name="period" format="2">
  <advance width="712.0"/>
  <unicode hex="002E"/>
  <outline>
    <contour>
      <point x="356.0" y="-12.0" type="curve" smooth="yes"/>
      <point x="396.0" y="-12.0"/>
      <point x="428.0" y="20.0"/>
      <point x="428.0" y="60.0" type="curve" smooth="yes"/>
      <point x="428.0" y="100.0"/>
      <point x="396.0" y="132.0"/>
      <point x="356.0" y="132.0" type="curve" smooth="yes"/>
      <point x="316.0" y="132.0"/>
      <point x="284.0" y="100.0"/>
      <point x="284.0" y="60.0" type="curve" smooth="yes"/>
      <point x="284.0" y="20.0"/>
      <point x="316.0" y="-12.0"/>
    </contour>
  </outline>
</glyph>
<glyph name="slash" format="2">
  <advance width="910.0"/>
  <unicode hex="002F"/>
  <outline>
    <contour>
      <point x="820.0" y="2144.0" type="line"/>
      <point x="752.0" y="2144.0" type="line"/>
      <point x="92.0" y="-308.0" type="line"/>
      <point x="160.0" y="-308.0" type="line"/>
    </contour>
  </outline>
</glyph>
<glyph name="zero" format="2">
  <advance width="1582.0"/>
  <unicode hex="0030"/>
  <outline>
    <contour>
      <point x="792.0" y="-12.0" type="curve" smooth="yes"/>
      <point x="1180.0" y="-11.0"/>
      <point x="1389.0" y="363.0"/>
      <point x="1388.0" y="1028.0" type="curve" smooth="yes"/>
      <point x="1387.0" y="1684.0"/>
      <point x="1174.0" y="2076.0"/>
      <point x="792.0" y="2076.0" type="curve" smooth="yes"/>
      <point x="409.0" y="2076.0"/>
      <point x="193.0" y="1683.0"/>
      <point x="196.0" y="1028.0" type="curve" smooth="yes"/>
      <point x="196.0" y="361.0"/>
      <point x="403.0" y="-12.0"/>
    </contour>
    <contour>
      <point x="792.0" y="72.0" type="curve" smooth="yes"/>
      <point x="430.0" y="70.0"/>
      <point x="234.0" y="432.0"/>
      <point x="232.0" y="1028.0" type="curve" smooth="yes"/>
      <point x="232.0" y="1625.0"/>
      <point x="433.0" y="1999.0"/>
      <point x="792.0" y="2000.0" type="curve" smooth="yes"/>
      <point x="1150.0" y="1999.0"/>
      <point x="1350.0" y="1625.0"/>
      <point x="1352.0" y="1028.0" type="curve" smooth="yes"/>
      <point x="1349.0" y="432.0"/>
      <point x="1153.0" y="70.0"/>
    </contour>
  </outline>
</glyph>
<glyph name="one" format="2">
  <advance width="1136.0"/>
  <unicode hex="0031"/>
  <outline>
    <contour>
      <point x="704.0" y="2048.0" type="line"/>
      <point x="708.0" y="2048.0" type="line"/>
      <point x="685.0" y="2131.0"/>
      <point x="567.0" y="1778.0"/>
      <point x="200.0" y="1780.0" type="curve"/>
      <point x="200.0" y="1708.0" type="line"/>
      <point x="442.0" y="1706.0"/>
      <point x="631.0" y="1814.0"/>
      <point x="644.0" y="1860.0" type="curve"/>
      <point x="660.0" y="1860.0" type="line"/>
      <point x="660.0" y="0.0" type="line"/>
      <point x="704.0" y="0.0" type="line"/>
    </contour>
  </outline>
</glyph>
<glyph name="two" format="2">
  <advance width="1610.0"/>
  <unicode hex="0032"/>
  <outline>
    <contour>
      <point x="236.0" y="0.0" type="line"/>
      <point x="1360.0" y="0.0" type="line"/>
      <point x="1360.0" y="88.0" type="line"/>
      <point x="292.0" y="88.0" type="line"/>
      <point x="292.0" y="104.0" type="line"/>
      <point x="908.0" y="796.0" type="line" smooth="yes"/>
      <point x="1252.0" y="1219.0"/>
      <point x="1323.0" y="1378.0"/>
      <point x="1324.0" y="1572.0" type="curve" smooth="yes"/>
      <point x="1326.0" y="1847.0"/>
      <point x="1092.0" y="2076.0"/>
      <point x="816.0" y="2076.0" type="curve" smooth="yes"/>
      <point x="525.0" y="2076.0"/>
      <point x="281.0" y="1845.0"/>
      <point x="280.0" y="1528.0" type="curve"/>
      <point x="340.0" y="1528.0" type="line"/>
      <point x="341.0" y="1796.0"/>
      <point x="515.0" y="1987.0"/>
      <point x="800.0" y="1988.0" type="curve" smooth="yes"/>
      <point x="1064.0" y="1987.0"/>
      <point x="1268.0" y="1827.0"/>
      <point x="1268.0" y="1576.0" type="curve" smooth="yes"/>
      <point x="1268.0" y="1360.0"/>
      <point x="1149.0" y="1195.0"/>
      <point x="856.0" y="852.0" type="curve" smooth="yes"/>
      <point x="236.0" y="48.0" type="line"/>
    </contour>
  </outline>
</glyph>
<glyph name="three" format="2">
  <advance width="1728.0"/>
  <unicode hex="0033"/>
  <outline>
    <contour>
      <point x="872.0" y="-28.0" type="curve" smooth="yes"/>
      <point x="1230.0" y="-28.0"/>
      <point x="1480.0" y="217.0"/>
      <point x="1480.0" y="532.0" type="curve" smooth="yes"/>
      <point x="1480.0" y="792.0"/>
      <point x="1308.0" y="988.0"/>
      <point x="1040.0" y="1056.0" type="curve"/>
      <point x="1040.0" y="1064.0" type="line"/>
      <point x="1272.0" y="1130.0"/>
      <point x="1420.0" y="1312.0"/>
      <point x="1420.0" y="1552.0" type="curve" smooth="yes"/>
      <point x="1420.0" y="1852.0"/>
      <point x="1190.0" y="2076.0"/>
      <point x="868.0" y="2076.0" type="curve" smooth="yes"/>
      <point x="546.0" y="2076.0"/>
      <point x="312.0" y="1852.0"/>
      <point x="312.0" y="1536.0" type="curve"/>
      <point x="376.0" y="1536.0" type="line"/>
      <point x="376.0" y="1816.0"/>
      <point x="582.0" y="2012.0"/>
      <point x="868.0" y="2012.0" type="curve" smooth="yes"/>
      <point x="1157.0" y="2012.0"/>
      <point x="1356.0" y="1815.0"/>
      <point x="1356.0" y="1552.0" type="curve" smooth="yes"/>
      <point x="1356.0" y="1268.0"/>
      <point x="1119.0" y="1088.0"/>
      <point x="812.0" y="1088.0" type="curve" smooth="yes"/>
      <point x="780.0" y="1088.0" type="line"/>
      <point x="780.0" y="1024.0" type="line"/>
      <point x="812.0" y="1024.0" type="line" smooth="yes"/>
      <point x="1162.0" y="1024.0"/>
      <point x="1416.0" y="826.0"/>
      <point x="1416.0" y="532.0" type="curve" smooth="yes"/>
      <point x="1416.0" y="259.0"/>
      <point x="1197.0" y="36.0"/>
      <point x="872.0" y="36.0" type="curve" smooth="yes"/>
      <point x="565.0" y="36.0"/>
      <point x="328.0" y="236.0"/>
      <point x="328.0" y="512.0" type="curve"/>
      <point x="264.0" y="512.0" type="line"/>
      <point x="264.0" y="200.0"/>
      <point x="526.0" y="-28.0"/>
    </contour>
  </outline>
</glyph>
<glyph name="four" format="2">
  <advance width="1676.0"/>
  <unicode hex="0034"/>
  <outline>
    <contour>
      <point x="208.0" y="480.0" type="line"/>
      <point x="1468.0" y="480.0" type="line"/>
      <point x="1468.0" y="544.0" type="line"/>
      <point x="300.0" y="544.0" type="line"/>
      <point x="300.0" y="552.0" type="line"/>
      <point x="1140.0" y="1916.0" type="line"/>
      <point x="1188.0" y="1916.0" type="line"/>
      <point x="1188.0" y="2048.0" type="line"/>
      <point x="1148.0" y="2048.0" type="line"/>
      <point x="208.0" y="528.0" type="line"/>
    </contour>
    <contour>
      <point x="1148.0" y="0.0" type="line"/>
      <point x="1212.0" y="0.0" type="line"/>
      <point x="1212.0" y="2048.0" type="line"/>
      <point x="1148.0" y="2048.0" type="line"/>
      <point x="1148.0" y="520.0" type="line"/>
      <point x="1148.0" y="500.0" type="line"/>
    </contour>
  </outline>
</glyph>
<glyph name="five" format="2">
  <advance width="1608.0"/>
  <unicode hex="0035"/>
  <guideline x="1344.0" y="1656.0" angle="90.0"/>
  <outline>
    <contour>
      <point x="776.0" y="-28.0" type="curve" smooth="yes"/>
      <point x="1130.0" y="-28.0"/>
      <point x="1382.0" y="256.0"/>
      <point x="1384.0" y="636.0" type="curve" smooth="yes"/>
      <point x="1386.0" y="1032.0"/>
      <point x="1102.0" y="1292.0"/>
      <point x="772.0" y="1292.0" type="curve" smooth="yes"/>
      <point x="608.0" y="1292.0"/>
      <point x="470.0" y="1231.0"/>
      <point x="368.0" y="1136.0" type="curve"/>
      <point x="360.0" y="1136.0" type="line"/>
      <point x="464.0" y="1984.0" type="line"/>
      <point x="1316.0" y="1984.0" type="line"/>
      <point x="1316.0" y="2048.0" type="line"/>
      <point x="408.0" y="2048.0" type="line"/>
      <point x="288.0" y="1080.0" type="line"/>
      <point x="384.0" y="1064.0" type="line"/>
      <point x="478.0" y="1160.0"/>
      <point x="610.0" y="1228.0"/>
      <point x="772.0" y="1228.0" type="curve" smooth="yes"/>
      <point x="1066.0" y="1228.0"/>
      <point x="1318.0" y="1000.0"/>
      <point x="1320.0" y="636.0" type="curve" smooth="yes"/>
      <point x="1322.0" y="296.0"/>
      <point x="1098.0" y="36.0"/>
      <point x="776.0" y="36.0" type="curve" smooth="yes"/>
      <point x="490.0" y="36.0"/>
      <point x="298.0" y="232.0"/>
      <point x="300.0" y="512.0" type="curve"/>
      <point x="236.0" y="512.0" type="line"/>
      <point x="234.0" y="196.0"/>
      <point x="458.0" y="-28.0"/>
    </contour>
  </outline>
</glyph>
<glyph name="six" format="2">
  <advance width="1653.0"/>
  <unicode hex="0036"/>
  <outline>
    <contour>
      <point x="832.0" y="-28.0" type="curve" smooth="yes"/>
      <point x="1204.0" y="-36.0"/>
      <point x="1433.0" y="289.0"/>
      <point x="1436.0" y="636.0" type="curve" smooth="yes"/>
      <point x="1433.0" y="1042.0"/>
      <point x="1115.0" y="1333.0"/>
      <point x="776.0" y="1332.0" type="curve" smooth="yes"/>
      <point x="579.0" y="1333.0"/>
      <point x="416.0" y="1235.0"/>
      <point x="284.0" y="1080.0" type="curve"/>
      <point x="268.0" y="1080.0" type="line"/>
      <point x="266.0" y="1679.0"/>
      <point x="514.0" y="2009.0"/>
      <point x="880.0" y="2008.0" type="curve" smooth="yes"/>
      <point x="1156.0" y="2009.0"/>
      <point x="1303.0" y="1822.0"/>
      <point x="1364.0" y="1596.0" type="curve"/>
      <point x="1424.0" y="1596.0" type="line"/>
      <point x="1364.0" y="1896.0"/>
      <point x="1160.0" y="2078.0"/>
      <point x="880.0" y="2080.0" type="curve" smooth="yes"/>
      <point x="465.0" y="2078.0"/>
      <point x="224.0" y="1672.0"/>
      <point x="228.0" y="912.0" type="curve" smooth="yes"/>
      <point x="224.0" y="146.0"/>
      <point x="581.0" y="-22.0"/>
    </contour>
    <contour>
      <point x="836.0" y="72.0" type="curve" smooth="yes"/>
      <point x="520.0" y="72.0"/>
      <point x="292.0" y="349.0"/>
      <point x="296.0" y="640.0" type="curve" smooth="yes"/>
      <point x="295.0" y="930.0"/>
      <point x="538.0" y="1206.0"/>
      <point x="848.0" y="1208.0" type="curve" smooth="yes"/>
      <point x="1149.0" y="1206.0"/>
      <point x="1373.0" y="951.0"/>
      <point x="1376.0" y="648.0" type="curve" smooth="yes"/>
      <point x="1373.0" y="331.0"/>
      <point x="1136.0" y="72.0"/>
    </contour>
  </outline>
</glyph>
<glyph name="seven" format="2">
  <advance width="1541.0"/>
  <unicode hex="0037"/>
  <outline>
    <contour>
      <point x="308.0" y="0.0" type="line"/>
      <point x="380.0" y="0.0" type="line"/>
      <point x="1352.0" y="1984.0" type="line"/>
      <point x="1352.0" y="2048.0" type="line"/>
      <point x="164.0" y="2048.0" type="line"/>
      <point x="164.0" y="1984.0" type="line"/>
      <point x="1276.0" y="1984.0" type="line"/>
      <point x="1276.0" y="1976.0" type="line"/>
    </contour>
  </outline>
</glyph>
<glyph name="eight" format="2">
  <advance width="1696.0"/>
  <unicode hex="0038"/>
  <note>
essentially two conjoined "three" glyphs
</note>
  <outline>
    <contour>
      <point x="848.0" y="-28.0" type="curve" smooth="yes"/>
      <point x="1200.0" y="-28.0"/>
      <point x="1484.0" y="220.0"/>
      <point x="1484.0" y="528.0" type="curve" smooth="yes"/>
      <point x="1484.0" y="772.0"/>
      <point x="1304.0" y="1001.0"/>
      <point x="1052.0" y="1056.0" type="curve"/>
      <point x="1052.0" y="1064.0" type="line"/>
      <point x="1268.0" y="1136.0"/>
      <point x="1416.0" y="1333.0"/>
      <point x="1416.0" y="1556.0" type="curve" smooth="yes"/>
      <point x="1416.0" y="1849.0"/>
      <point x="1158.0" y="2076.0"/>
      <point x="848.0" y="2076.0" type="curve" smooth="yes"/>
      <point x="534.0" y="2076.0"/>
      <point x="280.0" y="1847.0"/>
      <point x="280.0" y="1556.0" type="curve" smooth="yes"/>
      <point x="280.0" y="1331.0"/>
      <point x="432.0" y="1137.0"/>
      <point x="644.0" y="1064.0" type="curve"/>
      <point x="644.0" y="1056.0" type="line"/>
      <point x="392.0" y="998.0"/>
      <point x="212.0" y="772.0"/>
      <point x="212.0" y="528.0" type="curve" smooth="yes"/>
      <point x="212.0" y="220.0"/>
      <point x="496.0" y="-28.0"/>
    </contour>
    <contour>
      <point x="848.0" y="36.0" type="curve" smooth="yes"/>
      <point x="529.0" y="36.0"/>
      <point x="276.0" y="260.0"/>
      <point x="276.0" y="532.0" type="curve" smooth="yes"/>
      <point x="276.0" y="804.0"/>
      <point x="528.0" y="1028.0"/>
      <point x="848.0" y="1028.0" type="curve" smooth="yes"/>
      <point x="1168.0" y="1028.0"/>
      <point x="1420.0" y="804.0"/>
      <point x="1420.0" y="532.0" type="curve" smooth="yes"/>
      <point x="1420.0" y="260.0"/>
      <point x="1168.0" y="36.0"/>
    </contour>
    <contour>
      <point x="848.0" y="1084.0" type="curve" smooth="yes"/>
      <point x="571.0" y="1084.0"/>
      <point x="344.0" y="1301.0"/>
      <point x="344.0" y="1556.0" type="curve" smooth="yes"/>
      <point x="344.0" y="1812.0"/>
      <point x="571.0" y="2012.0"/>
      <point x="848.0" y="2012.0" type="curve" smooth="yes"/>
      <point x="1125.0" y="2012.0"/>
      <point x="1352.0" y="1812.0"/>
      <point x="1352.0" y="1556.0" type="curve" smooth="yes"/>
      <point x="1352.0" y="1301.0"/>
      <point x="1125.0" y="1084.0"/>
    </contour>
  </outline>
</glyph>
<glyph name="nine" format="2">
  <advance width="1640.0"/>
  <unicode hex="0039"/>
  <note>
six mirrored
</note>
  <outline>
    <contour>
      <point x="804.0" y="2080.0" type="curve" smooth="yes"/>
      <point x="460.0" y="2080.0"/>
      <point x="228.0" y="1780.0"/>
      <point x="228.0" y="1440.0" type="curve" smooth="yes"/>
      <point x="228.0" y="1076.0"/>
      <point x="492.0" y="800.0"/>
      <point x="816.0" y="800.0" type="curve" smooth="yes"/>
      <point x="1052.0" y="800.0"/>
      <point x="1276.0" y="948.0"/>
      <point x="1340.0" y="1152.0" type="curve"/>
      <point x="1348.0" y="1152.0" type="line"/>
      <point x="1348.0" y="432.0"/>
      <point x="1156.0" y="36.0"/>
      <point x="784.0" y="36.0" type="curve" smooth="yes"/>
      <point x="516.0" y="36.0"/>
      <point x="348.0" y="236.0"/>
      <point x="328.0" y="516.0" type="curve"/>
      <point x="264.0" y="516.0" type="line"/>
      <point x="284.0" y="196.0"/>
      <point x="480.0" y="-28.0"/>
      <point x="784.0" y="-28.0" type="curve" smooth="yes"/>
      <point x="1280.0" y="-28.0"/>
      <point x="1412.0" y="572.0"/>
      <point x="1412.0" y="1124.0" type="curve" smooth="yes"/>
      <point x="1412.0" y="1768.0"/>
      <point x="1152.0" y="2080.0"/>
    </contour>
    <contour>
      <point x="804.0" y="2016.0" type="curve" smooth="yes"/>
      <point x="1056.0" y="2016.0"/>
      <point x="1248.0" y="1828.0"/>
      <point x="1316.0" y="1468.0" type="curve" smooth="yes"/>
      <point x="1376.0" y="1148.0"/>
      <point x="1132.0" y="864.0"/>
      <point x="820.0" y="864.0" type="curve" smooth="yes"/>
      <point x="524.0" y="864.0"/>
      <point x="292.0" y="1116.0"/>
      <point x="292.0" y="1440.0" type="curve" smooth="yes"/>
      <point x="292.0" y="1756.0"/>
      <point x="508.0" y="2016.0"/>
    </contour>
  </outline>
</glyph>
<glyph name="less" format="2">
  <advance width="1722.0"/>
  <unicode hex="003C"/>
  <note>
Recipe: Make rect and rotate 63deg (regular) or 69deg (black)
</note>
  <outline>
    <contour>
      <point x="276.0" y="848.0" type="line"/>
      <point x="1444.0" y="156.0" type="line"/>
      <point x="1444.0" y="264.0" type="line"/>
      <point x="432.0" y="828.0" type="line"/>
      <point x="436.0" y="816.0" type="line"/>
      <point x="436.0" y="848.0" type="line"/>
      <point x="432.0" y="836.0" type="line"/>
      <point x="1444.0" y="1400.0" type="line"/>
      <point x="1444.0" y="1508.0" type="line"/>
      <point x="276.0" y="816.0" type="line"/>
    </contour>
  </outline>
</glyph>
<glyph name="equal" format="2">
  <advance width="1792.0"/>
  <unicode hex="003D"/>
  <guideline x="268.0" y="800.0" angle="0.0"/>
  <outline>
    <contour>
      <point x="420.0" y="1036.0" type="line"/>
      <point x="1372.0" y="1036.0" type="line"/>
      <point x="1372.0" y="1100.0" type="line"/>
      <point x="420.0" y="1100.0" type="line"/>
    </contour>
    <contour>
      <point x="420.0" y="500.0" type="line"/>
      <point x="1372.0" y="500.0" type="line"/>
      <point x="1372.0" y="564.0" type="line"/>
      <point x="420.0" y="564.0" type="line"/>
    </contour>
  </outline>
</glyph>
<glyph name="greater" format="2">
  <advance width="1792.0"/>
  <unicode hex="003E"/>
  <guideline x="268.0" y="800.0" angle="0.0"/>
  <outline>
    <contour>
      <point x="1444.0" y="768.0" type="line"/>
      <point x="1444.0" y="832.0" type="line"/>
      <point x="348.0" y="1544.0" type="line"/>
      <point x="348.0" y="1468.0" type="line"/>
      <point x="1384.0" y="796.0" type="line"/>
      <point x="1372.0" y="816.0" type="line"/>
      <point x="1372.0" y="784.0" type="line"/>
      <point x="1384.0" y="804.0" type="line"/>
      <point x="348.0" y="132.0" type="line"/>
      <point x="348.0" y="56.0" type="line"/>
    </contour>
  </outline>
</glyph>
<glyph name="question" format="2">
  <advance width="1348.0"/>
  <unicode hex="003F"/>
  <guideline x="616.0" y="516.0" angle="90.0"/>
  <guideline x="476.0" y="608.0" angle="0.0"/>
  <outline>
    <contour>
      <point x="584.0" y="608.0" type="line"/>
      <point x="648.0" y="608.0" type="line"/>
      <point x="648.0" y="748.0" type="line" smooth="yes"/>
      <point x="648.0" y="910.0"/>
      <point x="701.0" y="994.0"/>
      <point x="892.0" y="1132.0" type="curve" smooth="yes"/>
      <point x="1110.0" y="1289.0"/>
      <point x="1188.0" y="1407.0"/>
      <point x="1188.0" y="1576.0" type="curve" smooth="yes"/>
      <point x="1188.0" y="1865.0"/>
      <point x="961.0" y="2076.0"/>
      <point x="668.0" y="2076.0" type="curve" smooth="yes"/>
      <point x="361.0" y="2076.0"/>
      <point x="132.0" y="1844.0"/>
      <point x="132.0" y="1536.0" type="curve"/>
      <point x="196.0" y="1536.0" type="line"/>
      <point x="196.0" y="1808.0"/>
      <point x="396.0" y="2012.0"/>
      <point x="668.0" y="2012.0" type="curve" smooth="yes"/>
      <point x="926.0" y="2012.0"/>
      <point x="1124.0" y="1830.0"/>
      <point x="1124.0" y="1576.0" type="curve" smooth="yes"/>
      <point x="1124.0" y="1431.0"/>
      <point x="1059.0" y="1327.0"/>
      <point x="856.0" y="1184.0" type="curve" smooth="yes"/>
      <point x="650.0" y="1039.0"/>
      <point x="584.0" y="932.0"/>
      <point x="584.0" y="748.0" type="curve" smooth="yes"/>
    </contour>
    <component base="period" xOffset="260.0"/>
  </outline>
</glyph>
<glyph name="at" format="2">
  <advance width="2636.0"/>
  <unicode hex="0040"/>
  <guideline x="1384.0" y="1940.0" angle="0.0"/>
  <guideline x="1272.0" y="80.0" angle="0.0"/>
  <guideline x="1292.0" y="1344.0" angle="0.0"/>
  <guideline x="1416.0" y="-512.0" angle="0.0"/>
  <guideline x="172.0" y="728.0" angle="90.0"/>
  <guideline x="756.0" y="736.0" angle="90.0"/>
  <guideline x="1824.0" y="736.0" angle="90.0"/>
  <guideline x="2464.0" y="876.0" angle="90.0"/>
  <guideline x="2440.0" y="712.0" angle="0.0"/>
  <outline>
    <contour>
      <point x="1292.0" y="1312.0" type="curve" smooth="yes"/>
      <point x="1568.0" y="1312.0"/>
      <point x="1792.0" y="1044.0"/>
      <point x="1792.0" y="712.0" type="curve" smooth="yes"/>
      <point x="1792.0" y="378.0"/>
      <point x="1569.0" y="112.0"/>
      <point x="1292.0" y="112.0" type="curve" smooth="yes"/>
      <point x="1016.0" y="112.0"/>
      <point x="788.0" y="380.0"/>
      <point x="788.0" y="712.0" type="curve" smooth="yes"/>
      <point x="788.0" y="1044.0"/>
      <point x="1016.0" y="1312.0"/>
    </contour>
    <contour>
      <point x="1320.0" y="1968.0" type="curve" smooth="yes"/>
      <point x="668.0" y="1968.0"/>
      <point x="140.0" y="1408.0"/>
      <point x="140.0" y="712.0" type="curve" smooth="yes"/>
      <point x="140.0" y="20.0"/>
      <point x="668.0" y="-544.0"/>
      <point x="1320.0" y="-544.0" type="curve" smooth="yes"/>
      <point x="1552.0" y="-544.0"/>
      <point x="1776.0" y="-472.0"/>
      <point x="1968.0" y="-336.0" type="curve"/>
      <point x="1928.0" y="-284.0" type="line"/>
      <point x="1748.0" y="-412.0"/>
      <point x="1540.0" y="-480.0"/>
      <point x="1320.0" y="-480.0" type="curve" smooth="yes"/>
      <point x="704.0" y="-480.0"/>
      <point x="204.0" y="52.0"/>
      <point x="204.0" y="712.0" type="curve" smooth="yes"/>
      <point x="204.0" y="1372.0"/>
      <point x="704.0" y="1904.0"/>
      <point x="1320.0" y="1904.0" type="curve" smooth="yes"/>
      <point x="1932.0" y="1904.0"/>
      <point x="2432.0" y="1372.0"/>
      <point x="2432.0" y="712.0" type="curve" smooth="yes"/>
      <point x="2432.0" y="384.0"/>
      <point x="2252.0" y="140.0"/>
      <point x="2008.0" y="140.0" type="curve" smooth="yes"/>
      <point x="1888.0" y="140.0"/>
      <point x="1856.0" y="188.0"/>
      <point x="1856.0" y="384.0" type="curve" smooth="yes"/>
      <point x="1856.0" y="1356.0" type="line"/>
      <point x="1792.0" y="1356.0" type="line"/>
      <point x="1792.0" y="1036.0" type="line"/>
      <point x="1784.0" y="1036.0" type="line"/>
      <point x="1688.0" y="1240.0"/>
      <point x="1504.0" y="1376.0"/>
      <point x="1292.0" y="1376.0" type="curve" smooth="yes"/>
      <point x="976.0" y="1376.0"/>
      <point x="724.0" y="1080.0"/>
      <point x="724.0" y="712.0" type="curve" smooth="yes"/>
      <point x="724.0" y="344.0"/>
      <point x="976.0" y="48.0"/>
      <point x="1292.0" y="48.0" type="curve" smooth="yes"/>
      <point x="1504.0" y="48.0"/>
      <point x="1688.0" y="184.0"/>
      <point x="1784.0" y="384.0" type="curve"/>
      <point x="1792.0" y="384.0" type="line"/>
      <point x="1792.0" y="156.0"/>
      <point x="1848.0" y="76.0"/>
      <point x="2008.0" y="76.0" type="curve" smooth="yes"/>
      <point x="2292.0" y="76.0"/>
      <point x="2496.0" y="348.0"/>
      <point x="2496.0" y="712.0" type="curve" smooth="yes"/>
      <point x="2496.0" y="1408.0"/>
      <point x="1968.0" y="1968.0"/>
    </contour>
  </outline>
</glyph>
<glyph name="A" format="2">
  <advance width="1736.0"/>
  <unicode hex="0041"/>
  <outline>
    <contour>
      <point x="160.0" y="0.0" type="line"/>
      <point x="864.0" y="1968.0" type="line"/>
      <point x="872.0" y="1968.0" type="line"/>
      <point x="1576.0" y="0.0" type="line"/>
      <point x="1644.0" y="0.0" type="line"/>
      <point x="912.0" y="2048.0" type="line"/>
      <point x="824.0" y="2048.0" type="line"/>
      <point x="92.0" y="0.0" type="line"/>
    </contour>
    <contour>
      <point x="392.0" y="756.0" type="line"/>
      <point x="392.0" y="692.0" type="line"/>
      <point x="1344.0" y="692.0" type="line"/>
      <point x="1344.0" y="756.0" type="line"/>
    </contour>
  </outline>
</glyph>
<glyph name="B" format="2">
  <advance width="1804.0"/>
  <unicode hex="0042"/>
  <guideline x="944.0" y="1040.0" angle="180.0"/>
  <outline>
    <contour>
      <point x="320.0" y="0.0" type="line"/>
      <point x="1028.0" y="0.0" type="line" smooth="yes"/>
      <point x="1380.0" y="0.0"/>
      <point x="1588.0" y="208.0"/>
      <point x="1588.0" y="524.0" type="curve" smooth="yes"/>
      <point x="1588.0" y="809.0"/>
      <point x="1418.0" y="1017.0"/>
      <point x="1196.0" y="1036.0" type="curve"/>
      <point x="1196.0" y="1044.0" type="line"/>
      <point x="1394.0" y="1094.0"/>
      <point x="1508.0" y="1287.0"/>
      <point x="1508.0" y="1528.0" type="curve" smooth="yes"/>
      <point x="1508.0" y="1851.0"/>
      <point x="1304.0" y="2048.0"/>
      <point x="960.0" y="2048.0" type="curve" smooth="yes"/>
      <point x="320.0" y="2048.0" type="line"/>
    </contour>
    <contour>
      <point x="384.0" y="64.0" type="line"/>
      <point x="384.0" y="1008.0" type="line"/>
      <point x="1028.0" y="1008.0" type="line" smooth="yes"/>
      <point x="1317.0" y="1008.0"/>
      <point x="1524.0" y="808.0"/>
      <point x="1524.0" y="524.0" type="curve" smooth="yes"/>
      <point x="1524.0" y="248.0"/>
      <point x="1328.0" y="64.0"/>
      <point x="1028.0" y="64.0" type="curve" smooth="yes"/>
    </contour>
    <contour>
      <point x="384.0" y="1072.0" type="line"/>
      <point x="384.0" y="1984.0" type="line"/>
      <point x="960.0" y="1984.0" type="line" smooth="yes"/>
      <point x="1258.0" y="1984.0"/>
      <point x="1444.0" y="1819.0"/>
      <point x="1444.0" y="1528.0" type="curve" smooth="yes"/>
      <point x="1444.0" y="1284.0"/>
      <point x="1307.0" y="1072.0"/>
      <point x="1028.0" y="1072.0" type="curve" smooth="yes"/>
    </contour>
  </outline>
</glyph>
<glyph name="C" format="2">
  <advance width="2036.0"/>
  <unicode hex="0043"/>
  <outline>
    <contour>
      <point x="1836.0" y="1408.0" type="line"/>
      <point x="1786.0" y="1700.0"/>
      <point x="1534.0" y="2076.0"/>
      <point x="1052.0" y="2076.0" type="curve" smooth="yes"/>
      <point x="548.0" y="2076.0"/>
      <point x="204.0" y="1652.0"/>
      <point x="204.0" y="1024.0" type="curve" smooth="yes"/>
      <point x="204.0" y="396.0"/>
      <point x="548.0" y="-28.0"/>
      <point x="1052.0" y="-28.0" type="curve" smooth="yes"/>
      <point x="1534.0" y="-28.0"/>
      <point x="1786.0" y="352.0"/>
      <point x="1836.0" y="640.0" type="curve"/>
      <point x="1768.0" y="640.0" type="line"/>
      <point x="1718.0" y="364.0"/>
      <point x="1470.0" y="36.0"/>
      <point x="1052.0" y="36.0" type="curve" smooth="yes"/>
      <point x="632.0" y="36.0"/>
      <point x="268.0" y="380.0"/>
      <point x="268.0" y="1024.0" type="curve" smooth="yes"/>
      <point x="268.0" y="1660.0"/>
      <point x="632.0" y="2012.0"/>
      <point x="1052.0" y="2012.0" type="curve" smooth="yes"/>
      <point x="1470.0" y="2012.0"/>
      <point x="1718.0" y="1680.0"/>
      <point x="1768.0" y="1408.0" type="curve"/>
    </contour>
  </outline>
</glyph>
<glyph name="D" format="2">
  <advance width="2012.0"/>
  <unicode hex="0044"/>
  <note>
!post:RemoveOverlap
</note>
  <outline>
    <contour>
      <point x="856.0" y="0.0" type="line" smooth="yes"/>
      <point x="1457.0" y="0.0"/>
      <point x="1806.0" y="378.0"/>
      <point x="1808.0" y="1032.0" type="curve" smooth="yes"/>
      <point x="1809.0" y="1669.0"/>
      <point x="1473.0" y="2048.0"/>
      <point x="908.0" y="2048.0" type="curve" smooth="yes"/>
      <point x="352.0" y="2048.0" type="line"/>
      <point x="352.0" y="1984.0" type="line"/>
      <point x="908.0" y="1984.0" type="line" smooth="yes"/>
      <point x="1439.0" y="1984.0"/>
      <point x="1742.0" y="1629.0"/>
      <point x="1744.0" y="1032.0" type="curve" smooth="yes"/>
      <point x="1746.0" y="425.0"/>
      <point x="1424.0" y="64.0"/>
      <point x="856.0" y="64.0" type="curve" smooth="yes"/>
      <point x="352.0" y="64.0" type="line"/>
      <point x="352.0" y="0.0" type="line"/>
    </contour>
    <contour>
      <point x="384.0" y="2048.0" type="line"/>
      <point x="320.0" y="2048.0" type="line"/>
      <point x="320.0" y="0.0" type="line"/>
      <point x="384.0" y="0.0" type="line"/>
    </contour>
  </outline>
</glyph>
<glyph name="E" format="2">
  <advance width="1644.0"/>
  <unicode hex="0045"/>
  <outline>
    <contour>
      <point x="320.0" y="0.0" type="line"/>
      <point x="1440.0" y="0.0" type="line"/>
      <point x="1440.0" y="64.0" type="line"/>
      <point x="384.0" y="64.0" type="line"/>
      <point x="384.0" y="992.0" type="line"/>
      <point x="1352.0" y="992.0" type="line"/>
      <point x="1352.0" y="1056.0" type="line"/>
      <point x="384.0" y="1056.0" type="line"/>
      <point x="384.0" y="1984.0" type="line"/>
      <point x="1412.0" y="1984.0" type="line"/>
      <point x="1412.0" y="2048.0" type="line"/>
      <point x="320.0" y="2048.0" type="line"/>
    </contour>
  </outline>
</glyph>
<glyph name="F" format="2">
  <advance width="1648.0"/>
  <unicode hex="0046"/>
  <guideline x="872.0" y="2220.0" angle="90.0"/>
  <outline>
    <contour>
      <point x="320.0" y="0.0" type="line"/>
      <point x="384.0" y="0.0" type="line"/>
      <point x="384.0" y="992.0" type="line"/>
      <point x="1324.0" y="992.0" type="line"/>
      <point x="1324.0" y="1056.0" type="line"/>
      <point x="384.0" y="1056.0" type="line"/>
      <point x="384.0" y="1984.0" type="line"/>
      <point x="1420.0" y="1984.0" type="line"/>
      <point x="1420.0" y="2048.0" type="line"/>
      <point x="320.0" y="2048.0" type="line"/>
    </contour>
  </outline>
</glyph>
<glyph name="G" format="2">
  <advance width="2080.0"/>
  <unicode hex="0047"/>
  <guideline x="1872.0" y="1408.0" angle="0.0"/>
  <outline>
    <contour>
      <point x="1772.0" y="1408.0" type="curve"/>
      <point x="1836.0" y="1408.0" type="line"/>
      <point x="1788.0" y="1700.0"/>
      <point x="1531.0" y="2076.0"/>
      <point x="1052.0" y="2076.0" type="curve" smooth="yes"/>
      <point x="544.0" y="2076.0"/>
      <point x="204.0" y="1654.0"/>
      <point x="204.0" y="1024.0" type="curve" smooth="yes"/>
      <point x="204.0" y="397.0"/>
      <point x="540.0" y="-28.0"/>
      <point x="1060.0" y="-28.0" type="curve" smooth="yes"/>
      <point x="1520.0" y="-28.0"/>
      <point x="1852.0" y="304.0"/>
      <point x="1852.0" y="864.0" type="curve" smooth="yes"/>
      <point x="1852.0" y="928.0" type="line"/>
      <point x="1080.0" y="928.0" type="line"/>
      <point x="1080.0" y="864.0" type="line"/>
      <point x="1816.0" y="864.0" type="line"/>
      <point x="1788.0" y="888.0" type="line"/>
      <point x="1796.0" y="352.0"/>
      <point x="1488.0" y="36.0"/>
      <point x="1060.0" y="36.0" type="curve" smooth="yes"/>
      <point x="576.0" y="36.0"/>
      <point x="268.0" y="439.0"/>
      <point x="268.0" y="1024.0" type="curve" smooth="yes"/>
      <point x="268.0" y="1616.0"/>
      <point x="582.0" y="2012.0"/>
      <point x="1052.0" y="2012.0" type="curve" smooth="yes"/>
      <point x="1473.0" y="2012.0"/>
      <point x="1723.0" y="1687.0"/>
    </contour>
  </outline>
</glyph>
<glyph name="H" format="2">
  <advance width="2072.0"/>
  <unicode hex="0048"/>
  <outline>
    <contour>
      <point x="320.0" y="0.0" type="line"/>
      <point x="384.0" y="0.0" type="line"/>
      <point x="384.0" y="992.0" type="line"/>
      <point x="1688.0" y="992.0" type="line"/>
      <point x="1688.0" y="0.0" type="line"/>
      <point x="1752.0" y="0.0" type="line"/>
      <point x="1752.0" y="2048.0" type="line"/>
      <point x="1688.0" y="2048.0" type="line"/>
      <point x="1688.0" y="1056.0" type="line"/>
      <point x="384.0" y="1056.0" type="line"/>
      <point x="384.0" y="2048.0" type="line"/>
      <point x="320.0" y="2048.0" type="line"/>
    </contour>
  </outline>
</glyph>
<glyph name="I" format="2">
  <advance width="704.0"/>
  <unicode hex="0049"/>
  <outline>
    <contour>
      <point x="384.0" y="2048.0" type="line"/>
      <point x="320.0" y="2048.0" type="line"/>
      <point x="320.0" y="0.0" type="line"/>
      <point x="384.0" y="0.0" type="line"/>
    </contour>
  </outline>
</glyph>
<glyph name="J" format="2">
  <advance width="1464.0"/>
  <unicode hex="004A"/>
  <guideline x="1112.0" y="2256.0" angle="90.0"/>
  <outline>
    <contour>
      <point x="1080.0" y="2048.0" type="line"/>
      <point x="1080.0" y="544.0" type="line" smooth="yes"/>
      <point x="1078.0" y="164.0"/>
      <point x="872.0" y="36.0"/>
      <point x="648.0" y="36.0" type="curve" smooth="yes"/>
      <point x="404.0" y="36.0"/>
      <point x="214.0" y="184.0"/>
      <point x="216.0" y="384.0" type="curve"/>
      <point x="152.0" y="384.0" type="line"/>
      <point x="150.0" y="148.0"/>
      <point x="366.0" y="-28.0"/>
      <point x="648.0" y="-28.0" type="curve" smooth="yes"/>
      <point x="910.0" y="-28.0"/>
      <point x="1142.0" y="128.0"/>
      <point x="1144.0" y="544.0" type="curve" smooth="yes"/>
      <point x="1144.0" y="2048.0" type="line"/>
    </contour>
  </outline>
</glyph>
<glyph name="K" format="2">
  <advance width="1736.0"/>
  <unicode hex="004B"/>
  <guideline x="1640.0" y="2048.0" angle="227.6708"/>
  <outline>
    <contour>
      <point x="320.0" y="0.0" type="line"/>
      <point x="384.0" y="0.0" type="line"/>
      <point x="384.0" y="668.0" type="line"/>
      <point x="692.0" y="1008.0" type="line"/>
      <point x="1544.0" y="0.0" type="line"/>
      <point x="1628.0" y="0.0" type="line"/>
      <point x="736.0" y="1056.0" type="line"/>
      <point x="1640.0" y="2048.0" type="line"/>
      <point x="1552.0" y="2048.0" type="line"/>
      <point x="392.0" y="772.0" type="line"/>
      <point x="384.0" y="772.0" type="line"/>
      <point x="384.0" y="2048.0" type="line"/>
      <point x="320.0" y="2048.0" type="line"/>
    </contour>
  </outline>
</glyph>
<glyph name="L" format="2">
  <advance width="1584.0"/>
  <unicode hex="004C"/>
  <guideline x="864.0" y="2088.0" angle="90.0"/>
  <guideline x="352.0" y="1932.0" angle="90.0"/>
  <outline>
    <contour>
      <point x="320.0" y="0.0" type="line"/>
      <point x="1408.0" y="0.0" type="line"/>
      <point x="1408.0" y="64.0" type="line"/>
      <point x="384.0" y="64.0" type="line"/>
      <point x="384.0" y="2048.0" type="line"/>
      <point x="320.0" y="2048.0" type="line"/>
    </contour>
  </outline>
</glyph>
<glyph name="M" format="2">
  <advance width="2432.0"/>
  <unicode hex="004D"/>
  <outline>
    <contour>
      <point x="320.0" y="2048.0" type="line"/>
      <point x="320.0" y="0.0" type="line"/>
      <point x="384.0" y="0.0" type="line"/>
      <point x="384.0" y="1848.0" type="line"/>
      <point x="392.0" y="1848.0" type="line"/>
      <point x="1184.0" y="0.0" type="line"/>
      <point x="1248.0" y="0.0" type="line"/>
      <point x="2040.0" y="1848.0" type="line"/>
      <point x="2048.0" y="1848.0" type="line"/>
      <point x="2048.0" y="0.0" type="line"/>
      <point x="2112.0" y="0.0" type="line"/>
      <point x="2112.0" y="2048.0" type="line"/>
      <point x="2056.0" y="2048.0" type="line"/>
      <point x="1220.0" y="96.0" type="line"/>
      <point x="1212.0" y="96.0" type="line"/>
      <point x="376.0" y="2048.0" type="line"/>
    </contour>
  </outline>
</glyph>
<glyph name="N" format="2">
  <advance width="2176.0"/>
  <unicode hex="004E"/>
  <outline>
    <contour>
      <point x="1856.0" y="2048.0" type="line"/>
      <point x="1792.0" y="2048.0" type="line"/>
      <point x="1792.0" y="120.0" type="line"/>
      <point x="1784.0" y="120.0" type="line"/>
      <point x="384.0" y="2048.0" type="line"/>
      <point x="320.0" y="2048.0" type="line"/>
      <point x="320.0" y="0.0" type="line"/>
      <point x="384.0" y="0.0" type="line"/>
      <point x="384.0" y="1928.0" type="line"/>
      <point x="392.0" y="1928.0" type="line"/>
      <point x="1792.0" y="0.0" type="line"/>
      <point x="1856.0" y="0.0" type="line"/>
    </contour>
  </outline>
</glyph>
<glyph name="O" format="2">
  <advance width="2104.0"/>
  <unicode hex="004F"/>
  <outline>
    <contour>
      <point x="1900.0" y="1024.0" type="curve" smooth="yes"/>
      <point x="1900.0" y="1650.0"/>
      <point x="1556.0" y="2076.0"/>
      <point x="1052.0" y="2076.0" type="curve" smooth="yes"/>
      <point x="547.0" y="2076.0"/>
      <point x="204.0" y="1649.0"/>
      <point x="204.0" y="1024.0" type="curve" smooth="yes"/>
      <point x="204.0" y="400.0"/>
      <point x="546.0" y="-28.0"/>
      <point x="1052.0" y="-28.0" type="curve" smooth="yes"/>
      <point x="1556.0" y="-28.0"/>
      <point x="1900.0" y="398.0"/>
    </contour>
    <contour>
      <point x="1836.0" y="1024.0" type="curve" smooth="yes"/>
      <point x="1837.0" y="436.0"/>
      <point x="1518.0" y="36.0"/>
      <point x="1052.0" y="36.0" type="curve" smooth="yes"/>
      <point x="581.0" y="36.0"/>
      <point x="268.0" y="440.0"/>
      <point x="268.0" y="1024.0" type="curve" smooth="yes"/>
      <point x="268.0" y="1616.0"/>
      <point x="588.0" y="2012.0"/>
      <point x="1052.0" y="2012.0" type="curve" smooth="yes"/>
      <point x="1518.0" y="2012.0"/>
      <point x="1835.0" y="1612.0"/>
    </contour>
  </outline>
</glyph>
<glyph name="P" format="2">
  <advance width="1708.0"/>
  <unicode hex="0050"/>
  <outline>
    <contour>
      <point x="320.0" y="0.0" type="line"/>
      <point x="384.0" y="0.0" type="line"/>
      <point x="384.0" y="1984.0" type="line"/>
      <point x="920.0" y="1984.0" type="line" smooth="yes"/>
      <point x="1227.0" y="1984.0"/>
      <point x="1444.0" y="1762.0"/>
      <point x="1444.0" y="1448.0" type="curve" smooth="yes"/>
      <point x="1444.0" y="1136.0"/>
      <point x="1227.0" y="916.0"/>
      <point x="920.0" y="916.0" type="curve" smooth="yes"/>
      <point x="352.0" y="916.0" type="line"/>
      <point x="352.0" y="852.0" type="line"/>
      <point x="920.0" y="852.0" type="line" smooth="yes"/>
      <point x="1264.0" y="852.0"/>
      <point x="1508.0" y="1099.0"/>
      <point x="1508.0" y="1448.0" type="curve" smooth="yes"/>
      <point x="1508.0" y="1799.0"/>
      <point x="1264.0" y="2048.0"/>
      <point x="920.0" y="2048.0" type="curve" smooth="yes"/>
      <point x="320.0" y="2048.0" type="line"/>
    </contour>
  </outline>
</glyph>
<glyph name="Q" format="2">
  <advance width="2104.0"/>
  <unicode hex="0051"/>
  <outline>
    <contour>
      <point x="1132.0" y="640.0" type="line"/>
      <point x="1488.0" y="168.0" type="line"/>
      <point x="1500.0" y="152.0" type="line"/>
      <point x="1760.0" y="-192.0" type="line"/>
      <point x="1840.0" y="-192.0" type="line"/>
      <point x="1556.0" y="184.0" type="line"/>
      <point x="1544.0" y="200.0" type="line"/>
      <point x="1212.0" y="640.0" type="line"/>
    </contour>
    <component base="O"/>
  </outline>
</glyph>
<glyph name="R" format="2">
  <advance width="1732.0"/>
  <unicode hex="0052"/>
  <outline>
    <contour>
      <point x="320.0" y="0.0" type="line"/>
      <point x="384.0" y="0.0" type="line"/>
      <point x="384.0" y="1984.0" type="line"/>
      <point x="920.0" y="1984.0" type="line" smooth="yes"/>
      <point x="1227.0" y="1984.0"/>
      <point x="1444.0" y="1778.0"/>
      <point x="1444.0" y="1464.0" type="curve" smooth="yes"/>
      <point x="1444.0" y="1152.0"/>
      <point x="1227.0" y="948.0"/>
      <point x="920.0" y="948.0" type="curve" smooth="yes"/>
      <point x="352.0" y="948.0" type="line"/>
      <point x="352.0" y="884.0" type="line"/>
      <point x="920.0" y="884.0" type="line" smooth="yes"/>
      <point x="1264.0" y="884.0"/>
      <point x="1508.0" y="1115.0"/>
      <point x="1508.0" y="1464.0" type="curve" smooth="yes"/>
      <point x="1508.0" y="1815.0"/>
      <point x="1264.0" y="2048.0"/>
      <point x="920.0" y="2048.0" type="curve" smooth="yes"/>
      <point x="320.0" y="2048.0" type="line"/>
    </contour>
    <contour>
      <point x="1100.0" y="932.0" type="line"/>
      <point x="1028.0" y="932.0" type="line"/>
      <point x="1532.0" y="0.0" type="line"/>
      <point x="1604.0" y="0.0" type="line"/>
    </contour>
  </outline>
</glyph>
<glyph name="S" format="2">
  <advance width="1724.0"/>
  <unicode hex="0053"/>
  <note>
recipe: use stroke + offset curve filter with 32, no autostroke
</note>
  <outline>
    <contour>
      <point x="1416.0" y="1536.0" type="curve"/>
      <point x="1480.0" y="1536.0" type="line"/>
      <point x="1460.0" y="1852.0"/>
      <point x="1223.0" y="2080.0"/>
      <point x="872.0" y="2080.0" type="curve" smooth="yes"/>
      <point x="522.0" y="2080.0"/>
      <point x="264.0" y="1854.0"/>
      <point x="264.0" y="1552.0" type="curve" smooth="yes"/>
      <point x="264.0" y="1315.0"/>
      <point x="422.0" y="1149.0"/>
      <point x="744.0" y="1048.0" type="curve" smooth="yes"/>
      <point x="976.0" y="976.0" type="line" smooth="yes"/>
      <point x="1307.0" y="873.0"/>
      <point x="1444.0" y="740.0"/>
      <point x="1444.0" y="520.0" type="curve" smooth="yes"/>
      <point x="1444.0" y="230.0"/>
      <point x="1208.0" y="32.0"/>
      <point x="856.0" y="32.0" type="curve" smooth="yes"/>
      <point x="518.0" y="32.0"/>
      <point x="300.0" y="215.0"/>
      <point x="280.0" y="480.0" type="curve"/>
      <point x="216.0" y="480.0" type="line"/>
      <point x="236.0" y="179.0"/>
      <point x="482.0" y="-32.0"/>
      <point x="856.0" y="-32.0" type="curve" smooth="yes"/>
      <point x="1244.0" y="-32.0"/>
      <point x="1508.0" y="199.0"/>
      <point x="1508.0" y="520.0" type="curve" smooth="yes"/>
      <point x="1508.0" y="772.0"/>
      <point x="1346.0" y="931.0"/>
      <point x="992.0" y="1040.0" type="curve" smooth="yes"/>
      <point x="760.0" y="1112.0" type="line" smooth="yes"/>
      <point x="466.0" y="1202.0"/>
      <point x="328.0" y="1344.0"/>
      <point x="328.0" y="1552.0" type="curve" smooth="yes"/>
      <point x="328.0" y="1821.0"/>
      <point x="559.0" y="2016.0"/>
      <point x="872.0" y="2016.0" type="curve" smooth="yes"/>
      <point x="1189.0" y="2016.0"/>
      <point x="1396.0" y="1816.0"/>
    </contour>
  </outline>
</glyph>
<glyph name="T" format="2">
  <advance width="1728.0"/>
  <unicode hex="0054"/>
  <outline>
    <contour>
      <point x="172.0" y="1984.0" type="line"/>
      <point x="832.0" y="1984.0" type="line"/>
      <point x="832.0" y="0.0" type="line"/>
      <point x="896.0" y="0.0" type="line"/>
      <point x="896.0" y="1984.0" type="line"/>
      <point x="1556.0" y="1984.0" type="line"/>
      <point x="1556.0" y="2048.0" type="line"/>
      <point x="172.0" y="2048.0" type="line"/>
    </contour>
  </outline>
</glyph>
<glyph name="U" format="2">
  <advance width="2112.0"/>
  <unicode hex="0055"/>
  <outline>
    <contour>
      <point x="1728.0" y="2048.0" type="line"/>
      <point x="1728.0" y="692.0" type="line" smooth="yes"/>
      <point x="1728.0" y="313.0"/>
      <point x="1442.0" y="32.0"/>
      <point x="1056.0" y="32.0" type="curve" smooth="yes"/>
      <point x="670.0" y="32.0"/>
      <point x="384.0" y="313.0"/>
      <point x="384.0" y="692.0" type="curve" smooth="yes"/>
      <point x="384.0" y="2048.0" type="line"/>
      <point x="320.0" y="2048.0" type="line"/>
      <point x="320.0" y="692.0" type="line" smooth="yes"/>
      <point x="318.0" y="278.0"/>
      <point x="637.0" y="-32.0"/>
      <point x="1056.0" y="-32.0" type="curve" smooth="yes"/>
      <point x="1477.0" y="-32.0"/>
      <point x="1792.0" y="277.0"/>
      <point x="1792.0" y="692.0" type="curve" smooth="yes"/>
      <point x="1792.0" y="2048.0" type="line"/>
    </contour>
  </outline>
</glyph>
<glyph name="V" format="2">
  <advance width="1736.0"/>
  <unicode hex="0056"/>
  <outline>
    <contour>
      <point x="160.0" y="2048.0" type="line"/>
      <point x="92.0" y="2048.0" type="line"/>
      <point x="824.0" y="0.0" type="line"/>
      <point x="912.0" y="0.0" type="line"/>
      <point x="1644.0" y="2048.0" type="line"/>
      <point x="1576.0" y="2048.0" type="line"/>
      <point x="872.0" y="80.0" type="line"/>
      <point x="864.0" y="80.0" type="line"/>
    </contour>
  </outline>
</glyph>
<glyph name="W" format="2">
  <advance width="2512.0"/>
  <unicode hex="0057"/>
  <outline>
    <contour>
      <point x="644.0" y="0.0" type="line"/>
      <point x="732.0" y="0.0" type="line"/>
      <point x="1252.0" y="1948.0" type="line"/>
      <point x="1260.0" y="1948.0" type="line"/>
      <point x="1780.0" y="0.0" type="line"/>
      <point x="1868.0" y="0.0" type="line"/>
      <point x="2432.0" y="2048.0" type="line"/>
      <point x="2364.0" y="2048.0" type="line"/>
      <point x="1828.0" y="100.0" type="line"/>
      <point x="1820.0" y="100.0" type="line"/>
      <point x="1300.0" y="2048.0" type="line"/>
      <point x="1212.0" y="2048.0" type="line"/>
      <point x="692.0" y="100.0" type="line"/>
      <point x="684.0" y="100.0" type="line"/>
      <point x="148.0" y="2048.0" type="line"/>
      <point x="80.0" y="2048.0" type="line"/>
    </contour>
  </outline>
</glyph>
<glyph name="X" format="2">
  <advance width="1648.0"/>
  <unicode hex="0058"/>
  <note>
recipe: offset curve 32, no auto
</note>
  <outline>
    <contour>
      <point x="176.0" y="2048.0" type="line"/>
      <point x="96.0" y="2048.0" type="line"/>
      <point x="784.0" y="1024.0" type="line"/>
      <point x="96.0" y="0.0" type="line"/>
      <point x="176.0" y="0.0" type="line"/>
      <point x="820.0" y="964.0" type="line"/>
      <point x="828.0" y="964.0" type="line"/>
      <point x="1472.0" y="0.0" type="line"/>
      <point x="1552.0" y="0.0" type="line"/>
      <point x="864.0" y="1024.0" type="line"/>
      <point x="1552.0" y="2048.0" type="line"/>
      <point x="1472.0" y="2048.0" type="line"/>
      <point x="828.0" y="1084.0" type="line"/>
      <point x="820.0" y="1084.0" type="line"/>
    </contour>
  </outline>
</glyph>
<glyph name="Y" format="2">
  <advance width="1728.0"/>
  <unicode hex="0059"/>
  <outline>
    <contour>
      <point x="96.0" y="2048.0" type="line"/>
      <point x="832.0" y="972.0" type="line"/>
      <point x="832.0" y="0.0" type="line"/>
      <point x="896.0" y="0.0" type="line"/>
      <point x="896.0" y="972.0" type="line"/>
      <point x="1632.0" y="2048.0" type="line"/>
      <point x="1552.0" y="2048.0" type="line"/>
      <point x="868.0" y="1044.0" type="line"/>
      <point x="860.0" y="1044.0" type="line"/>
      <point x="176.0" y="2048.0" type="line"/>
    </contour>
  </outline>
</glyph>
<glyph name="Z" format="2">
  <advance width="1704.0"/>
  <unicode hex="005A"/>
  <guideline x="212.0" y="100.0" angle="90.0"/>
  <guideline x="1492.0" y="100.0" angle="90.0"/>
  <outline>
    <contour>
      <point x="212.0" y="0.0" type="line"/>
      <point x="1500.0" y="0.0" type="line"/>
      <point x="1500.0" y="64.0" type="line"/>
      <point x="288.0" y="64.0" type="line"/>
      <point x="1492.0" y="1984.0" type="line"/>
      <point x="1492.0" y="2048.0" type="line"/>
      <point x="220.0" y="2048.0" type="line"/>
      <point x="220.0" y="1984.0" type="line"/>
      <point x="1416.0" y="1984.0" type="line"/>
      <point x="212.0" y="64.0" type="line"/>
    </contour>
  </outline>
</glyph>
<glyph name="bracketleft" format="2">
  <advance width="888.0"/>
  <unicode hex="005B"/>
  <guideline x="52.0" y="2144.0" angle="0.0"/>
  <guideline x="52.0" y="-416.0" angle="0.0"/>
  <outline>
    <contour>
      <point x="352.0" y="-416.0" type="line"/>
      <point x="704.0" y="-416.0" type="line"/>
      <point x="704.0" y="-352.0" type="line"/>
      <point x="416.0" y="-352.0" type="line"/>
      <point x="416.0" y="2080.0" type="line"/>
      <point x="704.0" y="2080.0" type="line"/>
      <point x="704.0" y="2144.0" type="line"/>
      <point x="352.0" y="2144.0" type="line"/>
    </contour>
  </outline>
</glyph>
<glyph name="backslash" format="2">
  <advance width="816.0"/>
  <unicode hex="005C"/>
  <outline>
    <contour>
      <point x="72.0" y="2048.0" type="line"/>
      <point x="652.0" y="-308.0" type="line"/>
      <point x="740.0" y="-308.0" type="line"/>
      <point x="164.0" y="2048.0" type="line"/>
    </contour>
  </outline>
</glyph>
<glyph name="asciicircum" format="2">
  <advance width="1128.0"/>
  <unicode hex="005E"/>
  <outline>
    <contour>
      <point x="544.0" y="1944.0" type="line"/>
      <point x="544.0" y="1880.0" type="line"/>
      <point x="584.0" y="1880.0" type="line"/>
      <point x="584.0" y="1944.0" type="line"/>
    </contour>
    <contour>
      <point x="132.0" y="1120.0" type="line"/>
      <point x="204.0" y="1120.0" type="line"/>
      <point x="580.0" y="1920.0" type="line"/>
      <point x="548.0" y="1920.0" type="line"/>
      <point x="924.0" y="1120.0" type="line"/>
      <point x="996.0" y="1120.0" type="line"/>
      <point x="588.0" y="1984.0" type="line"/>
      <point x="540.0" y="1984.0" type="line"/>
    </contour>
  </outline>
</glyph>
<glyph name="underscore" format="2">
  <advance width="1202.0"/>
  <unicode hex="005F"/>
  <outline>
    <contour>
      <point x="1208.0" y="0.0" type="line"/>
      <point x="-8.0" y="0.0" type="line"/>
      <point x="-8.0" y="-116.0" type="line"/>
      <point x="1208.0" y="-116.0" type="line"/>
    </contour>
  </outline>
</glyph>
<glyph name="grave" format="2">
  <advance width="1400.0"/>
  <unicode hex="0060"/>
  <outline>
    <contour>
      <point x="880.0" y="1760.0" type="line"/>
      <point x="600.0" y="2192.0" type="line"/>
      <point x="520.0" y="2192.0" type="line"/>
      <point x="816.0" y="1760.0" type="line"/>
    </contour>
  </outline>
</glyph>
<glyph name="a" format="2">
  <advance width="1524.0"/>
  <unicode hex="0061"/>
  <guideline x="748.0" y="1616.0" angle="90.0"/>
  <outline>
    <contour>
      <point x="656.0" y="-32.0" type="curve" smooth="yes"/>
      <point x="888.0" y="-32.0"/>
      <point x="1076.0" y="104.0"/>
      <point x="1172.0" y="312.0" type="curve"/>
      <point x="1180.0" y="312.0" type="line"/>
      <point x="1180.0" y="0.0" type="line"/>
      <point x="1244.0" y="0.0" type="line"/>
      <point x="1244.0" y="1104.0" type="line" smooth="yes"/>
      <point x="1244.0" y="1364.0"/>
      <point x="1056.0" y="1560.0"/>
      <point x="744.0" y="1560.0" type="curve" smooth="yes"/>
      <point x="504.0" y="1560.0"/>
      <point x="304.0" y="1440.0"/>
      <point x="232.0" y="1248.0" type="curve"/>
      <point x="292.0" y="1224.0" type="line"/>
      <point x="356.0" y="1396.0"/>
      <point x="528.0" y="1496.0"/>
      <point x="744.0" y="1496.0" type="curve" smooth="yes"/>
      <point x="1008.0" y="1496.0"/>
      <point x="1180.0" y="1340.0"/>
      <point x="1180.0" y="1104.0" type="curve" smooth="yes"/>
      <point x="1180.0" y="1012.0" type="line" smooth="yes"/>
      <point x="1180.0" y="892.0"/>
      <point x="980.0" y="868.0"/>
      <point x="768.0" y="844.0" type="curve" smooth="yes"/>
      <point x="296.0" y="788.0"/>
      <point x="188.0" y="624.0"/>
      <point x="188.0" y="416.0" type="curve" smooth="yes"/>
      <point x="188.0" y="128.0"/>
      <point x="404.0" y="-32.0"/>
    </contour>
    <contour>
      <point x="656.0" y="32.0" type="curve" smooth="yes"/>
      <point x="428.0" y="32.0"/>
      <point x="252.0" y="184.0"/>
      <point x="252.0" y="416.0" type="curve" smooth="yes"/>
      <point x="252.0" y="612.0"/>
      <point x="380.0" y="736.0"/>
      <point x="792.0" y="784.0" type="curve" smooth="yes"/>
      <point x="968.0" y="804.0"/>
      <point x="1104.0" y="832.0"/>
      <point x="1180.0" y="888.0" type="curve"/>
      <point x="1180.0" y="656.0" type="line" smooth="yes"/>
      <point x="1180.0" y="284.0"/>
      <point x="948.0" y="32.0"/>
    </contour>
  </outline>
</glyph>
<glyph name="b" format="2">
  <advance width="1684.0"/>
  <unicode hex="0062"/>
  <note>
top anchor should match top anchor of i
</note>
  <guideline x="912.0" y="1580.0" angle="90.0"/>
  <outline>
    <contour>
      <point x="320.0" y="0.0" type="line"/>
      <point x="384.0" y="0.0" type="line"/>
      <point x="384.0" y="384.0" type="line"/>
      <point x="392.0" y="384.0" type="line"/>
      <point x="475.0" y="129.0"/>
      <point x="665.0" y="-32.0"/>
      <point x="912.0" y="-32.0" type="curve" smooth="yes"/>
      <point x="1275.0" y="-32.0"/>
      <point x="1504.0" y="310.0"/>
      <point x="1504.0" y="764.0" type="curve" smooth="yes"/>
      <point x="1504.0" y="1216.0"/>
      <point x="1272.0" y="1560.0"/>
      <point x="912.0" y="1560.0" type="curve" smooth="yes"/>
      <point x="668.0" y="1560.0"/>
      <point x="472.0" y="1400.0"/>
      <point x="392.0" y="1144.0" type="curve"/>
      <point x="384.0" y="1144.0" type="line"/>
      <point x="384.0" y="2048.0" type="line"/>
      <point x="320.0" y="2048.0" type="line"/>
    </contour>
    <contour>
      <point x="384.0" y="764.0" type="curve" smooth="yes"/>
      <point x="384.0" y="1180.0"/>
      <point x="588.0" y="1496.0"/>
      <point x="912.0" y="1496.0" type="curve" smooth="yes"/>
      <point x="1236.0" y="1496.0"/>
      <point x="1440.0" y="1180.0"/>
      <point x="1440.0" y="764.0" type="curve" smooth="yes"/>
      <point x="1440.0" y="348.0"/>
      <point x="1238.0" y="32.0"/>
      <point x="912.0" y="32.0" type="curve" smooth="yes"/>
      <point x="586.0" y="32.0"/>
      <point x="384.0" y="348.0"/>
    </contour>
  </outline>
</glyph>
<glyph name="c" format="2">
  <advance width="1556.0"/>
  <unicode hex="0063"/>
  <guideline x="808.0" y="1616.0" angle="90.0"/>
  <outline>
    <contour>
      <point x="824.0" y="-32.0" type="curve" smooth="yes"/>
      <point x="1104.0" y="-32.0"/>
      <point x="1331.0" y="158.0"/>
      <point x="1376.0" y="448.0" type="curve"/>
      <point x="1308.0" y="448.0" type="line"/>
      <point x="1271.0" y="197.0"/>
      <point x="1069.0" y="32.0"/>
      <point x="824.0" y="32.0" type="curve" smooth="yes"/>
      <point x="482.0" y="32.0"/>
      <point x="244.0" y="355.0"/>
      <point x="244.0" y="764.0" type="curve" smooth="yes"/>
      <point x="244.0" y="1184.0"/>
      <point x="493.0" y="1496.0"/>
      <point x="824.0" y="1496.0" type="curve" smooth="yes"/>
      <point x="1066.0" y="1496.0"/>
      <point x="1263.0" y="1329.0"/>
      <point x="1304.0" y="1088.0" type="curve"/>
      <point x="1372.0" y="1088.0" type="line"/>
      <point x="1325.0" y="1368.0"/>
      <point x="1099.0" y="1560.0"/>
      <point x="824.0" y="1560.0" type="curve" smooth="yes"/>
      <point x="449.0" y="1560.0"/>
      <point x="180.0" y="1214.0"/>
      <point x="180.0" y="764.0" type="curve" smooth="yes"/>
      <point x="180.0" y="310.0"/>
      <point x="451.0" y="-32.0"/>
    </contour>
  </outline>
</glyph>
<glyph name="e" format="2">
  <advance width="1624.0"/>
  <unicode hex="0065"/>
  <outline>
    <contour>
      <point x="848.0" y="-32.0" type="curve" smooth="yes"/>
      <point x="1147.0" y="-32.0"/>
      <point x="1312.0" y="156.0"/>
      <point x="1380.0" y="272.0" type="curve"/>
      <point x="1328.0" y="308.0" type="line"/>
      <point x="1272.0" y="216.0"/>
      <point x="1131.0" y="32.0"/>
      <point x="848.0" y="32.0" type="curve" smooth="yes"/>
      <point x="461.0" y="32.0"/>
      <point x="244.0" y="369.0"/>
      <point x="244.0" y="772.0" type="curve" smooth="yes"/>
      <point x="244.0" y="780.0" type="line" smooth="yes"/>
      <point x="252.0" y="1188.0"/>
      <point x="500.0" y="1496.0"/>
      <point x="816.0" y="1496.0" type="curve" smooth="yes"/>
      <point x="1127.0" y="1496.0"/>
      <point x="1380.0" y="1201.0"/>
      <point x="1380.0" y="832.0" type="curve"/>
      <point x="212.0" y="832.0" type="line"/>
      <point x="212.0" y="768.0" type="line"/>
      <point x="1444.0" y="768.0" type="line"/>
      <point x="1444.0" y="832.0" type="line" smooth="yes"/>
      <point x="1444.0" y="1229.0"/>
      <point x="1173.0" y="1560.0"/>
      <point x="816.0" y="1560.0" type="curve" smooth="yes"/>
      <point x="453.0" y="1560.0"/>
      <point x="180.0" y="1216.0"/>
      <point x="180.0" y="764.0" type="curve" smooth="yes"/>
      <point x="180.0" y="312.0"/>
      <point x="445.0" y="-32.0"/>
    </contour>
  </outline>
</glyph>
<glyph name="f" format="2">
  <advance width="932.0"/>
  <unicode hex="0066"/>
  <guideline x="436.0" y="1024.0" angle="90.0"/>
  <outline>
    <contour>
      <point x="800.0" y="1536.0" type="line"/>
      <point x="192.0" y="1536.0" type="line"/>
      <point x="192.0" y="1472.0" type="line"/>
      <point x="800.0" y="1472.0" type="line"/>
    </contour>
    <component base="_part.f_base"/>
  </outline>
</glyph>
<glyph name="g" format="2">
  <advance width="1644.0"/>
  <unicode hex="0067"/>
  <outline>
    <contour>
      <point x="792.0" y="-608.0" type="curve" smooth="yes"/>
      <point x="1147.0" y="-608.0"/>
      <point x="1364.0" y="-411.0"/>
      <point x="1364.0" y="-32.0" type="curve" smooth="yes"/>
      <point x="1364.0" y="1536.0" type="line"/>
      <point x="1300.0" y="1536.0" type="line"/>
      <point x="1300.0" y="1144.0" type="line"/>
      <point x="1292.0" y="1144.0" type="line"/>
      <point x="1208.0" y="1400.0"/>
      <point x="1020.0" y="1560.0"/>
      <point x="772.0" y="1560.0" type="curve" smooth="yes"/>
      <point x="408.0" y="1560.0"/>
      <point x="180.0" y="1220.0"/>
      <point x="180.0" y="764.0" type="curve" smooth="yes"/>
      <point x="180.0" y="312.0"/>
      <point x="412.0" y="0.0"/>
      <point x="772.0" y="0.0" type="curve" smooth="yes"/>
      <point x="1000.0" y="0.0"/>
      <point x="1212.0" y="128.0"/>
      <point x="1292.0" y="384.0" type="curve"/>
      <point x="1300.0" y="384.0" type="line"/>
      <point x="1300.0" y="-32.0" type="line" smooth="yes"/>
      <point x="1300.0" y="-377.0"/>
      <point x="1112.0" y="-544.0"/>
      <point x="792.0" y="-544.0" type="curve" smooth="yes"/>
      <point x="561.0" y="-544.0"/>
      <point x="377.0" y="-457.0"/>
      <point x="308.0" y="-276.0" type="curve"/>
      <point x="248.0" y="-300.0" type="line"/>
      <point x="326.0" y="-505.0"/>
      <point x="534.0" y="-608.0"/>
    </contour>
    <contour>
      <point x="772.0" y="64.0" type="curve" smooth="yes"/>
      <point x="448.0" y="64.0"/>
      <point x="244.0" y="348.0"/>
      <point x="244.0" y="764.0" type="curve" smooth="yes"/>
      <point x="244.0" y="1180.0"/>
      <point x="446.0" y="1496.0"/>
      <point x="772.0" y="1496.0" type="curve" smooth="yes"/>
      <point x="1098.0" y="1496.0"/>
      <point x="1300.0" y="1180.0"/>
      <point x="1300.0" y="764.0" type="curve" smooth="yes"/>
      <point x="1300.0" y="333.0"/>
      <point x="1092.0" y="64.0"/>
    </contour>
  </outline>
</glyph>
<glyph name="h" format="2">
  <advance width="1600.0"/>
  <unicode hex="0068"/>
  <note>
based on "n" and made slightly wider, brining the top vertical stem with it out.
</note>
  <guideline x="304.0" y="1876.0" angle="90.0"/>
  <outline>
    <contour>
      <point x="336.0" y="1032.0" type="line" smooth="yes"/>
      <point x="336.0" y="1300.0"/>
      <point x="532.0" y="1492.0"/>
      <point x="804.0" y="1492.0" type="curve" smooth="yes"/>
      <point x="1076.0" y="1492.0"/>
      <point x="1264.0" y="1304.0"/>
      <point x="1264.0" y="1032.0" type="curve" smooth="yes"/>
      <point x="1264.0" y="0.0" type="line"/>
      <point x="1328.0" y="0.0" type="line"/>
      <point x="1328.0" y="1032.0" type="line" smooth="yes"/>
      <point x="1328.0" y="1340.0"/>
      <point x="1112.0" y="1556.0"/>
      <point x="804.0" y="1556.0" type="curve" smooth="yes"/>
      <point x="592.0" y="1556.0"/>
      <point x="416.0" y="1452.0"/>
      <point x="344.0" y="1292.0" type="curve"/>
      <point x="336.0" y="1292.0" type="line"/>
      <point x="336.0" y="2048.0" type="line"/>
      <point x="272.0" y="2048.0" type="line"/>
      <point x="272.0" y="0.0" type="line"/>
      <point x="336.0" y="0.0" type="line"/>
    </contour>
  </outline>
</glyph>
<glyph name="k" format="2">
  <advance width="1426.0"/>
  <unicode hex="006B"/>
  <outline>
    <contour>
      <point x="316.0" y="680.0" type="line"/>
      <point x="580.0" y="860.0" type="line"/>
      <point x="516.0" y="860.0" type="line"/>
      <point x="1288.0" y="1536.0" type="line"/>
      <point x="1192.0" y="1536.0" type="line"/>
      <point x="340.0" y="752.0" type="line"/>
      <point x="308.0" y="752.0" type="line"/>
    </contour>
    <contour>
      <point x="264.0" y="0.0" type="line"/>
      <point x="308.0" y="0.0" type="line"/>
      <point x="308.0" y="2048.0" type="line"/>
      <point x="264.0" y="2048.0" type="line"/>
    </contour>
    <contour>
      <point x="1256.0" y="0.0" type="line"/>
      <point x="1356.0" y="0.0" type="line"/>
      <point x="560.0" y="880.0" type="line"/>
      <point x="508.0" y="852.0" type="line"/>
    </contour>
  </outline>
</glyph>
<glyph name="m" format="2">
  <advance width="2352.0"/>
  <unicode hex="006D"/>
  <outline>
    <contour>
      <point x="272.0" y="0.0" type="line"/>
      <point x="336.0" y="0.0" type="line"/>
      <point x="336.0" y="1032.0" type="line" smooth="yes"/>
      <point x="336.0" y="1300.0"/>
      <point x="484.0" y="1492.0"/>
      <point x="756.0" y="1492.0" type="curve" smooth="yes"/>
      <point x="1028.0" y="1492.0"/>
      <point x="1144.0" y="1304.0"/>
      <point x="1144.0" y="1032.0" type="curve" smooth="yes"/>
      <point x="1144.0" y="0.0" type="line"/>
      <point x="1208.0" y="0.0" type="line"/>
      <point x="1208.0" y="1032.0" type="line" smooth="yes"/>
      <point x="1208.0" y="1300.0"/>
      <point x="1356.0" y="1492.0"/>
      <point x="1628.0" y="1492.0" type="curve" smooth="yes"/>
      <point x="1900.0" y="1492.0"/>
      <point x="2016.0" y="1304.0"/>
      <point x="2016.0" y="1032.0" type="curve" smooth="yes"/>
      <point x="2016.0" y="0.0" type="line"/>
      <point x="2080.0" y="0.0" type="line"/>
      <point x="2080.0" y="1032.0" type="line" smooth="yes"/>
      <point x="2080.0" y="1340.0"/>
      <point x="1936.0" y="1556.0"/>
      <point x="1628.0" y="1556.0" type="curve" smooth="yes"/>
      <point x="1396.0" y="1556.0"/>
      <point x="1234.0" y="1432.0"/>
      <point x="1184.0" y="1240.0" type="curve"/>
      <point x="1176.0" y="1240.0" type="line"/>
      <point x="1124.0" y="1432.0"/>
      <point x="988.0" y="1556.0"/>
      <point x="756.0" y="1556.0" type="curve" smooth="yes"/>
      <point x="552.0" y="1556.0"/>
      <point x="400.0" y="1457.0"/>
      <point x="344.0" y="1308.0" type="curve"/>
      <point x="336.0" y="1308.0" type="line"/>
      <point x="336.0" y="1536.0" type="line"/>
      <point x="272.0" y="1536.0" type="line"/>
    </contour>
  </outline>
</glyph>
<glyph name="n" format="2">
  <advance width="1600.0"/>
  <unicode hex="006E"/>
  <outline>
    <contour>
      <point x="336.0" y="1032.0" type="line" smooth="yes"/>
      <point x="336.0" y="1300.0"/>
      <point x="532.0" y="1492.0"/>
      <point x="804.0" y="1492.0" type="curve" smooth="yes"/>
      <point x="1076.0" y="1492.0"/>
      <point x="1264.0" y="1304.0"/>
      <point x="1264.0" y="1032.0" type="curve" smooth="yes"/>
      <point x="1264.0" y="0.0" type="line"/>
      <point x="1328.0" y="0.0" type="line"/>
      <point x="1328.0" y="1032.0" type="line" smooth="yes"/>
      <point x="1328.0" y="1340.0"/>
      <point x="1112.0" y="1556.0"/>
      <point x="804.0" y="1556.0" type="curve" smooth="yes"/>
      <point x="592.0" y="1556.0"/>
      <point x="416.0" y="1452.0"/>
      <point x="344.0" y="1292.0" type="curve"/>
      <point x="336.0" y="1292.0" type="line"/>
      <point x="336.0" y="1536.0" type="line"/>
      <point x="272.0" y="1536.0" type="line"/>
      <point x="272.0" y="0.0" type="line"/>
      <point x="336.0" y="0.0" type="line"/>
    </contour>
  </outline>
</glyph>
<glyph name="o" format="2">
  <advance width="1632.0"/>
  <unicode hex="006F"/>
  <outline>
    <contour>
      <point x="816.0" y="-32.0" type="curve" smooth="yes"/>
      <point x="1178.0" y="-32.0"/>
      <point x="1452.0" y="311.0"/>
      <point x="1452.0" y="764.0" type="curve" smooth="yes"/>
      <point x="1452.0" y="1216.0"/>
      <point x="1177.0" y="1560.0"/>
      <point x="816.0" y="1560.0" type="curve" smooth="yes"/>
      <point x="454.0" y="1560.0"/>
      <point x="180.0" y="1217.0"/>
      <point x="180.0" y="764.0" type="curve" smooth="yes"/>
      <point x="180.0" y="311.0"/>
      <point x="454.0" y="-32.0"/>
    </contour>
    <contour>
      <point x="816.0" y="32.0" type="curve" smooth="yes"/>
      <point x="490.0" y="32.0"/>
      <point x="244.0" y="347.0"/>
      <point x="244.0" y="764.0" type="curve" smooth="yes"/>
      <point x="244.0" y="1179.0"/>
      <point x="492.0" y="1496.0"/>
      <point x="816.0" y="1496.0" type="curve" smooth="yes"/>
      <point x="1141.0" y="1496.0"/>
      <point x="1388.0" y="1180.0"/>
      <point x="1388.0" y="764.0" type="curve" smooth="yes"/>
      <point x="1388.0" y="347.0"/>
      <point x="1142.0" y="32.0"/>
    </contour>
  </outline>
</glyph>
<glyph name="p" format="2">
  <advance width="1628.0"/>
  <unicode hex="0070"/>
  <guideline x="856.0" y="1668.0" angle="90.0"/>
  <outline>
    <contour>
      <point x="264.0" y="-576.0" type="line"/>
      <point x="328.0" y="-576.0" type="line"/>
      <point x="328.0" y="384.0" type="line"/>
      <point x="336.0" y="384.0" type="line"/>
      <point x="416.0" y="128.0"/>
      <point x="612.0" y="-32.0"/>
      <point x="856.0" y="-32.0" type="curve" smooth="yes"/>
      <point x="1216.0" y="-32.0"/>
      <point x="1448.0" y="312.0"/>
      <point x="1448.0" y="764.0" type="curve" smooth="yes"/>
      <point x="1448.0" y="1218.0"/>
      <point x="1219.0" y="1560.0"/>
      <point x="856.0" y="1560.0" type="curve" smooth="yes"/>
      <point x="609.0" y="1560.0"/>
      <point x="419.0" y="1399.0"/>
      <point x="336.0" y="1144.0" type="curve"/>
      <point x="328.0" y="1144.0" type="line"/>
      <point x="328.0" y="1536.0" type="line"/>
      <point x="264.0" y="1536.0" type="line"/>
    </contour>
    <contour>
      <point x="328.0" y="764.0" type="curve" smooth="yes"/>
      <point x="328.0" y="1180.0"/>
      <point x="530.0" y="1496.0"/>
      <point x="856.0" y="1496.0" type="curve" smooth="yes"/>
      <point x="1182.0" y="1496.0"/>
      <point x="1384.0" y="1180.0"/>
      <point x="1384.0" y="764.0" type="curve" smooth="yes"/>
      <point x="1384.0" y="348.0"/>
      <point x="1180.0" y="32.0"/>
      <point x="856.0" y="32.0" type="curve" smooth="yes"/>
      <point x="532.0" y="32.0"/>
      <point x="328.0" y="348.0"/>
    </contour>
  </outline>
</glyph>
<glyph name="r" format="2">
  <advance width="1020.0"/>
  <unicode hex="0072"/>
  <guideline x="304.0" y="700.0" angle="90.0"/>
  <outline>
    <contour>
      <point x="272.0" y="0.0" type="line"/>
      <point x="336.0" y="0.0" type="line"/>
      <point x="336.0" y="1032.0" type="line" smooth="yes"/>
      <point x="336.0" y="1300.0"/>
      <point x="532.0" y="1492.0"/>
      <point x="804.0" y="1492.0" type="curve" smooth="yes"/>
      <point x="863.0" y="1492.0"/>
      <point x="915.0" y="1483.0"/>
      <point x="956.0" y="1468.0" type="curve"/>
      <point x="980.0" y="1528.0" type="line"/>
      <point x="931.0" y="1545.0"/>
      <point x="871.0" y="1556.0"/>
      <point x="804.0" y="1556.0" type="curve" smooth="yes"/>
      <point x="592.0" y="1556.0"/>
      <point x="416.0" y="1452.0"/>
      <point x="344.0" y="1292.0" type="curve"/>
      <point x="336.0" y="1292.0" type="line"/>
      <point x="336.0" y="1536.0" type="line"/>
      <point x="272.0" y="1536.0" type="line"/>
    </contour>
  </outline>
</glyph>
<glyph name="s" format="2">
  <advance width="1388.0"/>
  <unicode hex="0073"/>
  <guideline x="712.0" y="1620.0" angle="90.0"/>
  <outline>
    <contour>
      <point x="1192.0" y="1212.0" type="line"/>
      <point x="1117.0" y="1442.0"/>
      <point x="957.0" y="1560.0"/>
      <point x="720.0" y="1560.0" type="curve" smooth="yes"/>
      <point x="440.0" y="1560.0"/>
      <point x="244.0" y="1397.0"/>
      <point x="244.0" y="1156.0" type="curve" smooth="yes"/>
      <point x="244.0" y="964.0"/>
      <point x="368.0" y="827.0"/>
      <point x="604.0" y="768.0" type="curve" smooth="yes"/>
      <point x="844.0" y="708.0" type="line" smooth="yes"/>
      <point x="1041.0" y="659.0"/>
      <point x="1140.0" y="547.0"/>
      <point x="1140.0" y="388.0" type="curve" smooth="yes"/>
      <point x="1140.0" y="174.0"/>
      <point x="959.0" y="32.0"/>
      <point x="692.0" y="32.0" type="curve" smooth="yes"/>
      <point x="448.0" y="32.0"/>
      <point x="297.0" y="150.0"/>
      <point x="252.0" y="368.0" type="curve"/>
      <point x="188.0" y="352.0" type="line"/>
      <point x="240.0" y="107.0"/>
      <point x="419.0" y="-32.0"/>
      <point x="692.0" y="-32.0" type="curve" smooth="yes"/>
      <point x="993.0" y="-32.0"/>
      <point x="1204.0" y="137.0"/>
      <point x="1204.0" y="388.0" type="curve" smooth="yes"/>
      <point x="1204.0" y="577.0"/>
      <point x="1085.0" y="716.0"/>
      <point x="860.0" y="772.0" type="curve" smooth="yes"/>
      <point x="620.0" y="832.0" type="line" smooth="yes"/>
      <point x="411.0" y="884.0"/>
      <point x="308.0" y="995.0"/>
      <point x="308.0" y="1156.0" type="curve" smooth="yes"/>
      <point x="308.0" y="1360.0"/>
      <point x="475.0" y="1496.0"/>
      <point x="720.0" y="1496.0" type="curve" smooth="yes"/>
      <point x="931.0" y="1496.0"/>
      <point x="1065.0" y="1396.0"/>
      <point x="1128.0" y="1196.0" type="curve"/>
    </contour>
  </outline>
</glyph>
<glyph name="t" format="2">
  <advance width="980.0"/>
  <unicode hex="0074"/>
  <outline>
    <contour>
      <point x="780.0" y="1536.0" type="line"/>
      <point x="116.0" y="1536.0" type="line"/>
      <point x="116.0" y="1456.0" type="line"/>
      <point x="780.0" y="1456.0" type="line"/>
    </contour>
    <contour>
      <point x="368.0" y="1904.0" type="line"/>
      <point x="368.0" y="332.0" type="line"/>
      <point x="370.0" y="97.0"/>
      <point x="597.0" y="-10.0"/>
      <point x="688.0" y="-24.0" type="curve" smooth="yes"/>
      <point x="754.0" y="-27.0"/>
      <point x="788.0" y="-17.0"/>
      <point x="808.0" y="-8.0" type="curve"/>
      <point x="780.0" y="100.0" type="line"/>
      <point x="761.0" y="97.0"/>
      <point x="742.0" y="90.0"/>
      <point x="680.0" y="92.0" type="curve" smooth="yes"/>
      <point x="555.0" y="90.0"/>
      <point x="417.0" y="122.0"/>
      <point x="416.0" y="404.0" type="curve"/>
      <point x="416.0" y="1904.0" type="line"/>
    </contour>
  </outline>
</glyph>
<glyph name="u" format="2">
  <advance width="1600.0"/>
  <unicode hex="0075"/>
  <outline>
    <contour>
      <point x="1264.0" y="504.0" type="line" smooth="yes"/>
      <point x="1264.0" y="236.0"/>
      <point x="1068.0" y="44.0"/>
      <point x="796.0" y="44.0" type="curve" smooth="yes"/>
      <point x="524.0" y="44.0"/>
      <point x="336.0" y="232.0"/>
      <point x="336.0" y="504.0" type="curve" smooth="yes"/>
      <point x="336.0" y="1536.0" type="line"/>
      <point x="272.0" y="1536.0" type="line"/>
      <point x="272.0" y="504.0" type="line" smooth="yes"/>
      <point x="272.0" y="196.0"/>
      <point x="488.0" y="-20.0"/>
      <point x="796.0" y="-20.0" type="curve" smooth="yes"/>
      <point x="1008.0" y="-20.0"/>
      <point x="1184.0" y="84.0"/>
      <point x="1256.0" y="244.0" type="curve"/>
      <point x="1264.0" y="244.0" type="line"/>
      <point x="1264.0" y="0.0" type="line"/>
      <point x="1328.0" y="0.0" type="line"/>
      <point x="1328.0" y="1536.0" type="line"/>
      <point x="1264.0" y="1536.0" type="line"/>
    </contour>
  </outline>
</glyph>
<glyph name="v" format="2">
  <advance width="1472.0"/>
  <unicode hex="0076"/>
  <outline>
    <contour>
      <point x="1328.0" y="1536.0" type="line"/>
      <point x="1260.0" y="1536.0" type="line"/>
      <point x="740.0" y="80.0" type="line"/>
      <point x="732.0" y="80.0" type="line"/>
      <point x="212.0" y="1536.0" type="line"/>
      <point x="144.0" y="1536.0" type="line"/>
      <point x="692.0" y="0.0" type="line"/>
      <point x="780.0" y="0.0" type="line"/>
    </contour>
  </outline>
</glyph>
<glyph name="w" format="2">
  <advance width="2182.0"/>
  <unicode hex="0077"/>
  <outline>
    <contour>
      <point x="656.0" y="0.0" type="line"/>
      <point x="668.0" y="0.0" type="line"/>
      <point x="1076.0" y="1396.0" type="line"/>
      <point x="1108.0" y="1396.0" type="line"/>
      <point x="1516.0" y="0.0" type="line"/>
      <point x="1528.0" y="0.0" type="line"/>
      <point x="2048.0" y="1536.0" type="line"/>
      <point x="1980.0" y="1536.0" type="line"/>
      <point x="1552.0" y="220.0" type="line"/>
      <point x="1532.0" y="220.0" type="line"/>
      <point x="1136.0" y="1536.0" type="line"/>
      <point x="1056.0" y="1536.0" type="line"/>
      <point x="648.0" y="216.0" type="line"/>
      <point x="628.0" y="216.0" type="line"/>
      <point x="204.0" y="1536.0" type="line"/>
      <point x="136.0" y="1536.0" type="line"/>
    </contour>
  </outline>
</glyph>
<glyph name="x" format="2">
  <advance width="1400.0"/>
  <unicode hex="0078"/>
  <outline>
    <contour>
      <point x="272.0" y="1536.0" type="line"/>
      <point x="196.0" y="1536.0" type="line"/>
      <point x="664.0" y="800.0" type="line"/>
      <point x="156.0" y="0.0" type="line"/>
      <point x="232.0" y="0.0" type="line"/>
      <point x="700.0" y="740.0" type="line"/>
      <point x="1168.0" y="0.0" type="line"/>
      <point x="1244.0" y="0.0" type="line"/>
      <point x="736.0" y="800.0" type="line"/>
      <point x="1204.0" y="1536.0" type="line"/>
      <point x="1128.0" y="1536.0" type="line"/>
      <point x="700.0" y="860.0" type="line"/>
    </contour>
  </outline>
</glyph>
<glyph name="y" format="2">
  <advance width="1472.0"/>
  <unicode hex="0079"/>
  <outline>
    <contour>
      <point x="332.0" y="-608.0" type="curve" smooth="yes"/>
      <point x="482.0" y="-609.0"/>
      <point x="600.0" y="-504.0"/>
      <point x="672.0" y="-308.0" type="curve" smooth="yes"/>
      <point x="1328.0" y="1536.0" type="line"/>
      <point x="1260.0" y="1536.0" type="line"/>
      <point x="740.0" y="80.0" type="line"/>
      <point x="732.0" y="80.0" type="line"/>
      <point x="212.0" y="1536.0" type="line"/>
      <point x="144.0" y="1536.0" type="line"/>
      <point x="704.0" y="-28.0" type="line"/>
      <point x="612.0" y="-284.0" type="line" smooth="yes"/>
      <point x="527.0" y="-518.0"/>
      <point x="382.0" y="-597.0"/>
      <point x="184.0" y="-512.0" type="curve"/>
      <point x="160.0" y="-568.0" type="line"/>
      <point x="220.0" y="-594.0"/>
      <point x="280.0" y="-608.0"/>
    </contour>
  </outline>
</glyph>
<glyph name="z" format="2">
  <advance width="1438.0"/>
  <unicode hex="007A"/>
  <outline>
    <contour>
      <point x="184.0" y="0.0" type="line"/>
      <point x="1280.0" y="0.0" type="line"/>
      <point x="1280.0" y="100.0" type="line"/>
      <point x="280.0" y="100.0" type="line"/>
      <point x="280.0" y="120.0" type="line"/>
      <point x="1268.0" y="1436.0" type="line"/>
      <point x="1268.0" y="1536.0" type="line"/>
      <point x="148.0" y="1536.0" type="line"/>
      <point x="148.0" y="1436.0" type="line"/>
      <point x="1176.0" y="1436.0" type="line"/>
      <point x="1176.0" y="1416.0" type="line"/>
      <point x="184.0" y="108.0" type="line"/>
    </contour>
  </outline>
</glyph>
<glyph name="braceleft" format="2">
  <advance width="888.0"/>
  <unicode hex="007B"/>
  <guideline x="52.0" y="2144.0" angle="0.0"/>
  <guideline x="52.0" y="-416.0" angle="0.0"/>
  <guideline x="636.0" y="864.0" angle="0.0"/>
  <outline>
    <contour>
      <point x="184.0" y="832.0" type="line"/>
      <point x="451.0" y="833.0"/>
      <point x="544.0" y="928.0"/>
      <point x="544.0" y="1192.0" type="curve" smooth="yes"/>
      <point x="544.0" y="1716.0" type="line" smooth="yes"/>
      <point x="544.0" y="1972.0"/>
      <point x="635.0" y="2081.0"/>
      <point x="844.0" y="2080.0" type="curve"/>
      <point x="844.0" y="2144.0" type="line"/>
      <point x="597.0" y="2145.0"/>
      <point x="480.0" y="2006.0"/>
      <point x="480.0" y="1716.0" type="curve" smooth="yes"/>
      <point x="480.0" y="1192.0" type="line" smooth="yes"/>
      <point x="480.0" y="963.0"/>
      <point x="415.0" y="897.0"/>
      <point x="184.0" y="896.0" type="curve"/>
    </contour>
    <contour>
      <point x="844.0" y="-416.0" type="curve"/>
      <point x="844.0" y="-352.0" type="line"/>
      <point x="635.0" y="-353.0"/>
      <point x="544.0" y="-244.0"/>
      <point x="544.0" y="12.0" type="curve" smooth="yes"/>
      <point x="544.0" y="536.0" type="line" smooth="yes"/>
      <point x="544.0" y="799.0"/>
      <point x="451.0" y="894.0"/>
      <point x="184.0" y="896.0" type="curve"/>
      <point x="184.0" y="832.0" type="line"/>
      <point x="415.0" y="831.0"/>
      <point x="480.0" y="765.0"/>
      <point x="480.0" y="536.0" type="curve" smooth="yes"/>
      <point x="480.0" y="12.0" type="line" smooth="yes"/>
      <point x="480.0" y="-278.0"/>
      <point x="597.0" y="-417.0"/>
    </contour>
    <contour>
      <point x="184.0" y="832.0" type="line"/>
      <point x="400.0" y="832.0" type="line"/>
      <point x="400.0" y="896.0" type="line"/>
      <point x="184.0" y="896.0" type="line"/>
    </contour>
  </outline>
</glyph>
<glyph name="asciitilde" format="2">
  <advance width="1792.0"/>
  <unicode hex="007E"/>
  <guideline x="268.0" y="800.0" angle="0.0"/>
  <outline>
    <contour>
      <point x="264.0" y="672.0" type="curve"/>
      <point x="328.0" y="664.0" type="line"/>
      <point x="346.0" y="793.0"/>
      <point x="465.0" y="885.0"/>
      <point x="624.0" y="884.0" type="curve" smooth="yes"/>
      <point x="741.0" y="883.0"/>
      <point x="818.0" y="831.0"/>
      <point x="900.0" y="776.0" type="curve" smooth="yes"/>
      <point x="980.0" y="722.0"/>
      <point x="1062.0" y="665.0"/>
      <point x="1180.0" y="664.0" type="curve" smooth="yes"/>
      <point x="1349.0" y="663.0"/>
      <point x="1486.0" y="772.0"/>
      <point x="1528.0" y="928.0" type="curve"/>
      <point x="1464.0" y="944.0" type="line"/>
      <point x="1432.0" y="817.0"/>
      <point x="1320.0" y="727.0"/>
      <point x="1180.0" y="728.0" type="curve" smooth="yes"/>
      <point x="1082.0" y="729.0"/>
      <point x="1015.0" y="775.0"/>
      <point x="936.0" y="828.0" type="curve" smooth="yes"/>
      <point x="854.0" y="883.0"/>
      <point x="761.0" y="947.0"/>
      <point x="624.0" y="948.0" type="curve" smooth="yes"/>
      <point x="434.0" y="949.0"/>
      <point x="288.0" y="834.0"/>
    </contour>
  </outline>
</glyph>
<glyph name="sterling" format="2">
  <advance width="1661.0"/>
  <unicode hex="00A3"/>
  <outline>
    <contour>
      <point x="1396.0" y="0.0" type="line"/>
      <point x="1396.0" y="84.0" type="line"/>
      <point x="172.0" y="84.0" type="line"/>
      <point x="172.0" y="0.0" type="line"/>
    </contour>
    <contour>
      <point x="928.0" y="776.0" type="line"/>
      <point x="928.0" y="892.0" type="line"/>
      <point x="160.0" y="892.0" type="line"/>
      <point x="160.0" y="776.0" type="line"/>
    </contour>
    <contour>
      <point x="396.0" y="1388.0" type="line"/>
      <point x="397.0" y="1803.0"/>
      <point x="692.0" y="1983.0"/>
      <point x="952.0" y="1984.0" type="curve" smooth="yes"/>
      <point x="1181.0" y="1983.0"/>
      <point x="1422.0" y="1814.0"/>
      <point x="1372.0" y="1568.0" type="curve"/>
      <point x="1432.0" y="1452.0" type="line"/>
      <point x="1568.0" y="1714.0"/>
      <point x="1276.0" y="2076.0"/>
      <point x="932.0" y="2076.0" type="curve" smooth="yes"/>
      <point x="682.0" y="2076.0"/>
      <point x="341.0" y="1869.0"/>
      <point x="360.0" y="1388.0" type="curve" smooth="yes"/>
      <point x="384.0" y="528.0" type="line" smooth="yes"/>
      <point x="389.0" y="392.0"/>
      <point x="352.0" y="64.0"/>
      <point x="200.0" y="84.0" type="curve"/>
      <point x="424.0" y="96.0" type="line"/>
      <point x="446.0" y="161.0"/>
      <point x="437.0" y="349.0"/>
      <point x="428.0" y="504.0" type="curve" smooth="yes"/>
    </contour>
  </outline>
</glyph>
<glyph name="currency" format="2">
  <advance width="1918.0"/>
  <unicode hex="00A4"/>
  <outline>
    <contour>
      <point x="344.0" y="836.0" type="curve"/>
      <point x="343.0" y="1206.0"/>
      <point x="620.0" y="1521.0"/>
      <point x="948.0" y="1520.0" type="curve" smooth="yes"/>
      <point x="1281.0" y="1521.0"/>
      <point x="1548.0" y="1206.0"/>
      <point x="1548.0" y="836.0" type="curve" smooth="yes"/>
      <point x="1548.0" y="470.0"/>
      <point x="1281.0" y="151.0"/>
      <point x="948.0" y="152.0" type="curve" smooth="yes"/>
      <point x="620.0" y="151.0"/>
      <point x="343.0" y="470.0"/>
    </contour>
    <contour>
      <point x="160.0" y="836.0" type="curve"/>
      <point x="159.0" y="348.0"/>
      <point x="508.0" y="-28.0"/>
      <point x="948.0" y="-28.0" type="curve" smooth="yes"/>
      <point x="1391.0" y="-28.0"/>
      <point x="1747.0" y="348.0"/>
      <point x="1748.0" y="836.0" type="curve" smooth="yes"/>
      <point x="1747.0" y="1324.0"/>
      <point x="1391.0" y="1696.0"/>
      <point x="948.0" y="1696.0" type="curve" smooth="yes"/>
      <point x="508.0" y="1696.0"/>
      <point x="159.0" y="1324.0"/>
    </contour>
    <contour>
      <point x="1772.0" y="1572.0" type="line"/>
      <point x="1640.0" y="1712.0" type="line"/>
      <point x="1372.0" y="1428.0" type="line"/>
      <point x="1500.0" y="1288.0" type="line"/>
    </contour>
    <contour>
      <point x="544.0" y="280.0" type="line"/>
      <point x="408.0" y="416.0" type="line"/>
      <point x="140.0" y="136.0" type="line"/>
      <point x="268.0" y="-8.0" type="line"/>
    </contour>
    <contour>
      <point x="1640.0" y="-8.0" type="line"/>
      <point x="1772.0" y="136.0" type="line"/>
      <point x="1500.0" y="416.0" type="line"/>
      <point x="1372.0" y="280.0" type="line"/>
    </contour>
    <contour>
      <point x="408.0" y="1288.0" type="line"/>
      <point x="544.0" y="1428.0" type="line"/>
      <point x="268.0" y="1712.0" type="line"/>
      <point x="140.0" y="1572.0" type="line"/>
    </contour>
  </outline>
</glyph>
<glyph name="yen" format="2">
  <advance width="1472.0"/>
  <unicode hex="00A5"/>
  <note>
line up with uni20BD
</note>
  <outline>
    <contour>
      <point x="132.0" y="2048.0" type="line"/>
      <point x="60.0" y="2048.0" type="line"/>
      <point x="696.0" y="884.0" type="line"/>
      <point x="768.0" y="884.0" type="line"/>
    </contour>
    <contour>
      <point x="704.0" y="884.0" type="line"/>
      <point x="776.0" y="884.0" type="line"/>
      <point x="1412.0" y="2048.0" type="line"/>
      <point x="1340.0" y="2048.0" type="line"/>
    </contour>
    <contour>
      <point x="768.0" y="952.0" type="line"/>
      <point x="704.0" y="952.0" type="line"/>
      <point x="704.0" y="0.0" type="line"/>
      <point x="768.0" y="0.0" type="line"/>
    </contour>
    <contour>
      <point x="1248.0" y="916.0" type="line"/>
      <point x="224.0" y="916.0" type="line"/>
      <point x="224.0" y="852.0" type="line"/>
      <point x="1248.0" y="852.0" type="line"/>
    </contour>
    <contour>
      <point x="1248.0" y="672.0" type="line"/>
      <point x="224.0" y="672.0" type="line"/>
      <point x="224.0" y="608.0" type="line"/>
      <point x="1248.0" y="608.0" type="line"/>
    </contour>
  </outline>
</glyph>
<glyph name="section" format="2">
  <advance width="1434.0"/>
  <unicode hex="00A7"/>
  <outline>
    <contour>
      <point x="1140.0" y="1588.0" type="line"/>
      <point x="1141.0" y="1878.0"/>
      <point x="989.0" y="2076.0"/>
      <point x="724.0" y="2076.0" type="curve"/>
      <point x="493.0" y="2076.0"/>
      <point x="323.0" y="1927.0"/>
      <point x="324.0" y="1720.0" type="curve"/>
      <point x="323.0" y="1616.0"/>
      <point x="367.0" y="1526.0"/>
      <point x="436.0" y="1456.0" type="curve"/>
      <point x="436.0" y="1444.0" type="line"/>
      <point x="208.0" y="1377.0"/>
      <point x="113.0" y="1116.0"/>
      <point x="128.0" y="996.0" type="curve" smooth="yes"/>
      <point x="152.0" y="794.0"/>
      <point x="294.0" y="646.0"/>
      <point x="392.0" y="576.0" type="curve" smooth="yes"/>
      <point x="788.0" y="300.0" type="line" smooth="yes"/>
      <point x="904.0" y="224.0"/>
      <point x="1033.0" y="146.0"/>
      <point x="1032.0" y="-56.0" type="curve" smooth="yes"/>
      <point x="1033.0" y="-252.0"/>
      <point x="875.0" y="-355.0"/>
      <point x="680.0" y="-352.0" type="curve" smooth="yes"/>
      <point x="477.0" y="-346.0"/>
      <point x="309.0" y="-202.0"/>
      <point x="308.0" y="64.0" type="curve"/>
      <point x="220.0" y="64.0" type="line"/>
      <point x="221.0" y="-242.0"/>
      <point x="423.0" y="-418.0"/>
      <point x="688.0" y="-420.0" type="curve" smooth="yes"/>
      <point x="878.0" y="-418.0"/>
      <point x="1110.0" y="-330.0"/>
      <point x="1112.0" y="-56.0" type="curve" smooth="yes"/>
      <point x="1110.0" y="50.0"/>
      <point x="1081.0" y="153.0"/>
      <point x="1000.0" y="224.0" type="curve"/>
      <point x="996.0" y="228.0" type="line"/>
      <point x="1211.0" y="296.0"/>
      <point x="1320.0" y="539.0"/>
      <point x="1304.0" y="668.0" type="curve" smooth="yes"/>
      <point x="1279.0" y="873.0"/>
      <point x="1139.0" y="1014.0"/>
      <point x="1036.0" y="1088.0" type="curve" smooth="yes"/>
      <point x="644.0" y="1364.0" type="line"/>
      <point x="532.0" y="1445.0"/>
      <point x="402.0" y="1574.0"/>
      <point x="404.0" y="1720.0" type="curve" smooth="yes"/>
      <point x="402.0" y="1822.0"/>
      <point x="470.0" y="2008.0"/>
      <point x="724.0" y="2008.0" type="curve" smooth="yes"/>
      <point x="961.0" y="2008.0"/>
      <point x="1059.0" y="1830.0"/>
      <point x="1060.0" y="1588.0" type="curve"/>
    </contour>
    <contour>
      <point x="1216.0" y="692.0" type="curve" smooth="yes"/>
      <point x="1225.0" y="446.0"/>
      <point x="957.0" y="278.0"/>
      <point x="852.0" y="348.0" type="curve" smooth="yes"/>
      <point x="440.0" y="628.0" type="line" smooth="yes"/>
      <point x="353.0" y="701.0"/>
      <point x="230.0" y="789.0"/>
      <point x="220.0" y="976.0" type="curve"/>
      <point x="211.0" y="1226.0"/>
      <point x="446.0" y="1405.0"/>
      <point x="552.0" y="1336.0" type="curve" smooth="yes"/>
      <point x="1000.0" y="1028.0" type="line" smooth="yes"/>
      <point x="1077.0" y="966.0"/>
      <point x="1205.0" y="854.0"/>
    </contour>
  </outline>
</glyph>
<glyph name="dieresis" format="2">
  <advance width="1856.0"/>
  <unicode hex="00A8"/>
  <guideline x="980.0" y="1952.0" angle="0.0"/>
  <outline>
    <contour>
      <point x="736.0" y="1888.0" type="curve" smooth="yes"/>
      <point x="771.0" y="1888.0"/>
      <point x="800.0" y="1917.0"/>
      <point x="800.0" y="1952.0" type="curve" smooth="yes"/>
      <point x="800.0" y="1987.0"/>
      <point x="771.0" y="2016.0"/>
      <point x="736.0" y="2016.0" type="curve" smooth="yes"/>
      <point x="701.0" y="2016.0"/>
      <point x="672.0" y="1987.0"/>
      <point x="672.0" y="1952.0" type="curve" smooth="yes"/>
      <point x="672.0" y="1917.0"/>
      <point x="701.0" y="1888.0"/>
    </contour>
    <contour>
      <point x="1120.0" y="1888.0" type="curve" smooth="yes"/>
      <point x="1155.0" y="1888.0"/>
      <point x="1184.0" y="1917.0"/>
      <point x="1184.0" y="1952.0" type="curve" smooth="yes"/>
      <point x="1184.0" y="1987.0"/>
      <point x="1155.0" y="2016.0"/>
      <point x="1120.0" y="2016.0" type="curve" smooth="yes"/>
      <point x="1085.0" y="2016.0"/>
      <point x="1056.0" y="1987.0"/>
      <point x="1056.0" y="1952.0" type="curve" smooth="yes"/>
      <point x="1056.0" y="1917.0"/>
      <point x="1085.0" y="1888.0"/>
    </contour>
  </outline>
</glyph>
<glyph name="copyright" format="2">
  <advance width="2158.0"/>
  <unicode hex="00A9"/>
  <outline>
    <contour>
      <point x="1300.0" y="820.0" type="line"/>
      <point x="1299.0" y="640.0"/>
      <point x="1218.0" y="572.0"/>
      <point x="1068.0" y="572.0" type="curve" smooth="yes"/>
      <point x="894.0" y="572.0"/>
      <point x="802.0" y="716.0"/>
      <point x="804.0" y="920.0" type="curve" smooth="yes"/>
      <point x="804.0" y="1084.0" type="line" smooth="yes"/>
      <point x="802.0" y="1288.0"/>
      <point x="894.0" y="1432.0"/>
      <point x="1068.0" y="1432.0" type="curve" smooth="yes"/>
      <point x="1218.0" y="1432.0"/>
      <point x="1306.0" y="1360.0"/>
      <point x="1308.0" y="1184.0" type="curve"/>
      <point x="1508.0" y="1184.0" type="line"/>
      <point x="1508.0" y="1472.0"/>
      <point x="1335.0" y="1616.0"/>
      <point x="1068.0" y="1616.0" type="curve" smooth="yes"/>
      <point x="774.0" y="1616.0"/>
      <point x="599.0" y="1400.0"/>
      <point x="600.0" y="1084.0" type="curve"/>
      <point x="600.0" y="920.0" type="line"/>
      <point x="599.0" y="604.0"/>
      <point x="774.0" y="388.0"/>
      <point x="1068.0" y="388.0" type="curve" smooth="yes"/>
      <point x="1335.0" y="388.0"/>
      <point x="1508.0" y="532.0"/>
      <point x="1508.0" y="820.0" type="curve"/>
    </contour>
    <contour>
      <point x="296.0" y="1004.0" type="curve"/>
      <point x="295.0" y="1488.0"/>
      <point x="647.0" y="1860.0"/>
      <point x="1080.0" y="1860.0" type="curve" smooth="yes"/>
      <point x="1515.0" y="1860.0"/>
      <point x="1863.0" y="1488.0"/>
      <point x="1864.0" y="1004.0" type="curve" smooth="yes"/>
      <point x="1863.0" y="516.0"/>
      <point x="1515.0" y="144.0"/>
      <point x="1080.0" y="144.0" type="curve" smooth="yes"/>
      <point x="647.0" y="144.0"/>
      <point x="295.0" y="516.0"/>
    </contour>
    <contour>
      <point x="132.0" y="1004.0" type="curve"/>
      <point x="131.0" y="420.0"/>
      <point x="557.0" y="-28.0"/>
      <point x="1080.0" y="-28.0" type="curve" smooth="yes"/>
      <point x="1604.0" y="-28.0"/>
      <point x="2026.0" y="420.0"/>
      <point x="2028.0" y="1004.0" type="curve" smooth="yes"/>
      <point x="2026.0" y="1584.0"/>
      <point x="1604.0" y="2032.0"/>
      <point x="1080.0" y="2032.0" type="curve" smooth="yes"/>
      <point x="557.0" y="2032.0"/>
      <point x="131.0" y="1584.0"/>
    </contour>
  </outline>
</glyph>
<glyph name="ordfeminine" format="2">
  <advance width="1156.0"/>
  <unicode hex="00AA"/>
  <outline>
    <contour>
      <point x="744.0" y="1184.0" type="line"/>
      <point x="742.0" y="1117.0"/>
      <point x="752.0" y="1041.0"/>
      <point x="772.0" y="976.0" type="curve"/>
      <point x="1008.0" y="976.0" type="line"/>
      <point x="986.0" y="1047.0"/>
      <point x="975.0" y="1122.0"/>
      <point x="976.0" y="1220.0" type="curve" smooth="yes"/>
      <point x="976.0" y="1652.0" type="line"/>
      <point x="975.0" y="1904.0"/>
      <point x="820.0" y="2032.0"/>
      <point x="588.0" y="2032.0" type="curve" smooth="yes"/>
      <point x="332.0" y="2032.0"/>
      <point x="171.0" y="1896.0"/>
      <point x="172.0" y="1716.0" type="curve"/>
      <point x="400.0" y="1692.0" type="line"/>
      <point x="398.0" y="1780.0"/>
      <point x="470.0" y="1828.0"/>
      <point x="588.0" y="1828.0" type="curve" smooth="yes"/>
      <point x="690.0" y="1828.0"/>
      <point x="742.0" y="1773.0"/>
      <point x="744.0" y="1652.0" type="curve"/>
    </contour>
    <contour>
      <point x="800.0" y="1588.0" type="line"/>
      <point x="604.0" y="1588.0" type="line"/>
      <point x="298.0" y="1586.0"/>
      <point x="145.0" y="1468.0"/>
      <point x="144.0" y="1264.0" type="curve" smooth="yes"/>
      <point x="145.0" y="1076.0"/>
      <point x="266.0" y="952.0"/>
      <point x="484.0" y="952.0" type="curve" smooth="yes"/>
      <point x="665.0" y="952.0"/>
      <point x="766.0" y="1065.0"/>
      <point x="804.0" y="1152.0" type="curve"/>
      <point x="780.0" y="1308.0" type="line"/>
      <point x="780.0" y="1240.0"/>
      <point x="649.0" y="1154.0"/>
      <point x="540.0" y="1156.0" type="curve" smooth="yes"/>
      <point x="430.0" y="1154.0"/>
      <point x="384.0" y="1196.0"/>
      <point x="384.0" y="1276.0" type="curve" smooth="yes"/>
      <point x="384.0" y="1354.0"/>
      <point x="447.0" y="1426.0"/>
      <point x="604.0" y="1428.0" type="curve"/>
      <point x="800.0" y="1428.0" type="line"/>
    </contour>
  </outline>
</glyph>
<glyph name="registered" format="2">
  <advance width="2158.0"/>
  <unicode hex="00AE"/>
  <outline>
    <contour>
      <point x="1112.0" y="900.0" type="line"/>
      <point x="1155.0" y="900.0"/>
      <point x="1147.0" y="898.0"/>
      <point x="1192.0" y="928.0" type="curve" smooth="yes"/>
      <point x="1175.0" y="919.0"/>
      <point x="1210.0" y="954.0"/>
      <point x="1204.0" y="948.0" type="curve" smooth="yes"/>
      <point x="1395.0" y="1000.0"/>
      <point x="1492.0" y="1107.0"/>
      <point x="1492.0" y="1264.0" type="curve"/>
      <point x="1492.0" y="1498.0"/>
      <point x="1327.0" y="1604.0"/>
      <point x="1068.0" y="1604.0" type="curve"/>
      <point x="688.0" y="1604.0" type="line"/>
      <point x="688.0" y="436.0" type="line"/>
      <point x="888.0" y="436.0" type="line"/>
      <point x="888.0" y="1420.0" type="line"/>
      <point x="1068.0" y="1420.0" type="line"/>
      <point x="1234.0" y="1420.0"/>
      <point x="1295.0" y="1376.0"/>
      <point x="1296.0" y="1244.0" type="curve"/>
      <point x="1295.0" y="1142.0"/>
      <point x="1212.0" y="1084.0"/>
      <point x="1120.0" y="1084.0" type="curve"/>
      <point x="824.0" y="1084.0" type="line"/>
      <point x="828.0" y="900.0" type="line"/>
    </contour>
    <contour>
      <point x="1100.0" y="900.0" type="line"/>
      <point x="1238.0" y="900.0"/>
      <point x="1287.0" y="836.0"/>
      <point x="1288.0" y="708.0" type="curve"/>
      <point x="1288.0" y="632.0" type="line"/>
      <point x="1287.0" y="592.0"/>
      <point x="1287.0" y="480.0"/>
      <point x="1308.0" y="436.0" type="curve"/>
      <point x="1512.0" y="436.0" type="line"/>
      <point x="1512.0" y="456.0" type="line"/>
      <point x="1496.0" y="502.0"/>
      <point x="1488.0" y="569.0"/>
      <point x="1488.0" y="632.0" type="curve"/>
      <point x="1488.0" y="708.0" type="line"/>
      <point x="1488.0" y="878.0"/>
      <point x="1405.0" y="1004.0"/>
      <point x="1124.0" y="1004.0" type="curve"/>
    </contour>
    <contour>
      <point x="296.0" y="1004.0" type="curve" smooth="yes"/>
      <point x="295.0" y="1488.0"/>
      <point x="647.0" y="1860.0"/>
      <point x="1080.0" y="1860.0" type="curve" smooth="yes"/>
      <point x="1515.0" y="1860.0"/>
      <point x="1863.0" y="1488.0"/>
      <point x="1864.0" y="1004.0" type="curve" smooth="yes"/>
      <point x="1863.0" y="516.0"/>
      <point x="1515.0" y="144.0"/>
      <point x="1080.0" y="144.0" type="curve" smooth="yes"/>
      <point x="647.0" y="144.0"/>
      <point x="295.0" y="516.0"/>
    </contour>
    <contour>
      <point x="132.0" y="1004.0" type="curve" smooth="yes"/>
      <point x="131.0" y="420.0"/>
      <point x="557.0" y="-28.0"/>
      <point x="1080.0" y="-28.0" type="curve" smooth="yes"/>
      <point x="1604.0" y="-28.0"/>
      <point x="2026.0" y="420.0"/>
      <point x="2028.0" y="1004.0" type="curve" smooth="yes"/>
      <point x="2026.0" y="1584.0"/>
      <point x="1604.0" y="2032.0"/>
      <point x="1080.0" y="2032.0" type="curve" smooth="yes"/>
      <point x="557.0" y="2032.0"/>
      <point x="131.0" y="1584.0"/>
    </contour>
  </outline>
</glyph>
<glyph name="macron" format="2">
  <advance width="824.0"/>
  <unicode hex="00AF"/>
  <outline>
    <contour>
      <point x="732.0" y="2016.0" type="line"/>
      <point x="92.0" y="2016.0" type="line"/>
      <point x="92.0" y="1952.0" type="line"/>
      <point x="732.0" y="1952.0" type="line"/>
    </contour>
  </outline>
</glyph>
<glyph name="degree" format="2">
  <advance width="1280.0"/>
  <unicode hex="00B0"/>
  <outline>
    <contour>
      <point x="640.0" y="1244.0" type="curve" smooth="yes"/>
      <point x="870.0" y="1244.0"/>
      <point x="1056.0" y="1430.0"/>
      <point x="1056.0" y="1660.0" type="curve" smooth="yes"/>
      <point x="1056.0" y="1890.0"/>
      <point x="870.0" y="2076.0"/>
      <point x="640.0" y="2076.0" type="curve" smooth="yes"/>
      <point x="410.0" y="2076.0"/>
      <point x="224.0" y="1890.0"/>
      <point x="224.0" y="1660.0" type="curve" smooth="yes"/>
      <point x="224.0" y="1430.0"/>
      <point x="410.0" y="1244.0"/>
    </contour>
    <contour>
      <point x="640.0" y="1308.0" type="curve" smooth="yes"/>
      <point x="445.0" y="1308.0"/>
      <point x="288.0" y="1465.0"/>
      <point x="288.0" y="1660.0" type="curve" smooth="yes"/>
      <point x="288.0" y="1855.0"/>
      <point x="445.0" y="2012.0"/>
      <point x="640.0" y="2012.0" type="curve" smooth="yes"/>
      <point x="835.0" y="2012.0"/>
      <point x="992.0" y="1855.0"/>
      <point x="992.0" y="1660.0" type="curve" smooth="yes"/>
      <point x="992.0" y="1465.0"/>
      <point x="835.0" y="1308.0"/>
    </contour>
  </outline>
</glyph>
<glyph name="plusminus" format="2">
  <advance width="1792.0"/>
  <unicode hex="00B1"/>
  <guideline x="268.0" y="800.0" angle="0.0"/>
  <outline>
    <contour>
      <point x="316.0" y="192.0" type="line"/>
      <point x="1476.0" y="192.0" type="line"/>
      <point x="1476.0" y="256.0" type="line"/>
      <point x="316.0" y="256.0" type="line"/>
    </contour>
    <contour>
      <point x="316.0" y="960.0" type="line"/>
      <point x="1476.0" y="960.0" type="line"/>
      <point x="1476.0" y="1024.0" type="line"/>
      <point x="316.0" y="1024.0" type="line"/>
    </contour>
    <contour>
      <point x="864.0" y="448.0" type="line"/>
      <point x="928.0" y="448.0" type="line"/>
      <point x="928.0" y="1536.0" type="line"/>
      <point x="864.0" y="1536.0" type="line"/>
    </contour>
  </outline>
</glyph>
<glyph name="two.sups" format="2">
  <advance width="1160.0"/>
  <unicode hex="00B2"/>
  <outline>
    <contour>
      <point x="168.0" y="1024.0" type="line"/>
      <point x="996.0" y="1024.0" type="line"/>
      <point x="996.0" y="1084.0" type="line"/>
      <point x="260.0" y="1084.0" type="line"/>
      <point x="260.0" y="1088.0" type="line"/>
      <point x="648.0" y="1488.0" type="line" smooth="yes"/>
      <point x="864.0" y="1712.0"/>
      <point x="928.0" y="1812.0"/>
      <point x="928.0" y="1948.0" type="curve" smooth="yes"/>
      <point x="928.0" y="2128.0"/>
      <point x="772.0" y="2268.0"/>
      <point x="560.0" y="2268.0" type="curve" smooth="yes"/>
      <point x="344.0" y="2268.0"/>
      <point x="188.0" y="2124.0"/>
      <point x="188.0" y="1936.0" type="curve"/>
      <point x="252.0" y="1936.0" type="line"/>
      <point x="252.0" y="2088.0"/>
      <point x="376.0" y="2212.0"/>
      <point x="560.0" y="2212.0" type="curve" smooth="yes"/>
      <point x="736.0" y="2212.0"/>
      <point x="864.0" y="2100.0"/>
      <point x="864.0" y="1948.0" type="curve" smooth="yes"/>
      <point x="864.0" y="1820.0"/>
      <point x="796.0" y="1728.0"/>
      <point x="608.0" y="1532.0" type="curve" smooth="yes"/>
      <point x="168.0" y="1072.0" type="line"/>
    </contour>
  </outline>
</glyph>
<glyph name="three.sups" format="2">
  <advance width="1086.0"/>
  <unicode hex="00B3"/>
  <outline>
    <contour>
      <point x="532.0" y="1008.0" type="curve" smooth="yes"/>
      <point x="769.0" y="1008.0"/>
      <point x="948.0" y="1145.0"/>
      <point x="948.0" y="1348.0" type="curve" smooth="yes"/>
      <point x="948.0" y="1476.0"/>
      <point x="840.0" y="1595.0"/>
      <point x="700.0" y="1644.0" type="curve"/>
      <point x="700.0" y="1656.0" type="line"/>
      <point x="836.0" y="1695.0"/>
      <point x="921.0" y="1813.0"/>
      <point x="920.0" y="1940.0" type="curve" smooth="yes"/>
      <point x="921.0" y="2135.0"/>
      <point x="763.0" y="2268.0"/>
      <point x="540.0" y="2268.0" type="curve" smooth="yes"/>
      <point x="321.0" y="2268.0"/>
      <point x="165.0" y="2142.0"/>
      <point x="164.0" y="1956.0" type="curve"/>
      <point x="280.0" y="1956.0" type="line"/>
      <point x="280.0" y="2090.0"/>
      <point x="384.0" y="2161.0"/>
      <point x="532.0" y="2160.0" type="curve" smooth="yes"/>
      <point x="696.0" y="2161.0"/>
      <point x="808.0" y="2081.0"/>
      <point x="808.0" y="1944.0" type="curve" smooth="yes"/>
      <point x="808.0" y="1801.0"/>
      <point x="690.0" y="1708.0"/>
      <point x="516.0" y="1708.0" type="curve" smooth="yes"/>
      <point x="460.0" y="1708.0" type="line"/>
      <point x="460.0" y="1588.0" type="line"/>
      <point x="516.0" y="1588.0" type="line" smooth="yes"/>
      <point x="696.0" y="1588.0"/>
      <point x="837.0" y="1489.0"/>
      <point x="836.0" y="1340.0" type="curve" smooth="yes"/>
      <point x="837.0" y="1198.0"/>
      <point x="704.0" y="1112.0"/>
      <point x="540.0" y="1112.0" type="curve" smooth="yes"/>
      <point x="380.0" y="1112.0"/>
      <point x="279.0" y="1192.0"/>
      <point x="280.0" y="1316.0" type="curve"/>
      <point x="156.0" y="1316.0" type="line"/>
      <point x="156.0" y="1131.0"/>
      <point x="299.0" y="1008.0"/>
    </contour>
  </outline>
</glyph>
<glyph name="acute" format="2">
  <advance width="1400.0"/>
  <unicode hex="00B4"/>
  <outline>
    <contour>
      <point x="520.0" y="1760.0" type="line"/>
      <point x="584.0" y="1760.0" type="line"/>
      <point x="880.0" y="2192.0" type="line"/>
      <point x="800.0" y="2192.0" type="line"/>
    </contour>
  </outline>
</glyph>
<glyph name="micro" format="2">
  <advance width="1627.0"/>
  <unicode hex="00B5"/>
  <outline>
    <contour>
      <point x="264.0" y="-596.0" type="line"/>
      <point x="324.0" y="-596.0" type="line"/>
      <point x="324.0" y="240.0" type="line"/>
      <point x="336.0" y="240.0" type="line"/>
      <point x="443.0" y="47.0"/>
      <point x="625.0" y="-49.0"/>
      <point x="816.0" y="-48.0" type="curve" smooth="yes"/>
      <point x="1002.0" y="-49.0"/>
      <point x="1186.0" y="47.0"/>
      <point x="1292.0" y="240.0" type="curve"/>
      <point x="1304.0" y="240.0" type="line"/>
      <point x="1304.0" y="0.0" type="line"/>
      <point x="1368.0" y="0.0" type="line"/>
      <point x="1368.0" y="1536.0" type="line"/>
      <point x="1320.0" y="1536.0" type="line"/>
      <point x="1320.0" y="604.0" type="line" smooth="yes"/>
      <point x="1319.0" y="291.0"/>
      <point x="1121.0" y="76.0"/>
      <point x="816.0" y="76.0" type="curve" smooth="yes"/>
      <point x="505.0" y="76.0"/>
      <point x="307.0" y="287.0"/>
      <point x="308.0" y="604.0" type="curve" smooth="yes"/>
      <point x="308.0" y="1536.0" type="line"/>
      <point x="264.0" y="1536.0" type="line"/>
    </contour>
  </outline>
</glyph>
<glyph name="paragraph" format="2">
  <advance width="1560.0"/>
  <unicode hex="00B6"/>
  <note>
aka PILCROW SIGN
</note>
  <outline>
    <contour>
      <point x="1240.0" y="1984.0" type="line"/>
      <point x="1240.0" y="2048.0" type="line"/>
      <point x="868.0" y="2048.0" type="line" smooth="yes"/>
      <point x="432.0" y="2048.0"/>
      <point x="192.0" y="1772.0"/>
      <point x="192.0" y="1404.0" type="curve" smooth="yes"/>
      <point x="192.0" y="1032.0"/>
      <point x="432.0" y="760.0"/>
      <point x="868.0" y="760.0" type="curve" smooth="yes"/>
      <point x="984.0" y="760.0" type="line"/>
      <point x="984.0" y="1984.0" type="line"/>
    </contour>
    <contour>
      <point x="1176.0" y="0.0" type="line"/>
      <point x="1240.0" y="0.0" type="line"/>
      <point x="1240.0" y="2048.0" type="line"/>
      <point x="1176.0" y="2048.0" type="line"/>
    </contour>
  </outline>
</glyph>
<glyph name="cedilla" format="2">
  <advance width="450.0"/>
  <unicode hex="00B8"/>
  <outline>
    <contour>
      <point x="128.0" y="8.0" type="line"/>
      <point x="96.0" y="-180.0" type="line"/>
      <point x="259.0" y="-188.0"/>
      <point x="323.0" y="-197.0"/>
      <point x="328.0" y="-300.0" type="curve" smooth="yes"/>
      <point x="329.0" y="-398.0"/>
      <point x="246.0" y="-430.0"/>
      <point x="168.0" y="-432.0" type="curve"/>
      <point x="180.0" y="-552.0" type="line"/>
      <point x="395.0" y="-552.0"/>
      <point x="489.0" y="-439.0"/>
      <point x="492.0" y="-296.0" type="curve" smooth="yes"/>
      <point x="491.0" y="-122.0"/>
      <point x="380.0" y="-76.0"/>
      <point x="308.0" y="-64.0" type="curve"/>
      <point x="324.0" y="8.0" type="line"/>
    </contour>
  </outline>
</glyph>
<glyph name="one.sups" format="2">
  <advance width="768.0"/>
  <unicode hex="00B9"/>
  <outline>
    <contour>
      <point x="488.0" y="2252.0" type="line"/>
      <point x="432.0" y="2252.0" type="line"/>
      <point x="424.0" y="2240.0"/>
      <point x="316.0" y="2072.0"/>
      <point x="132.0" y="2064.0" type="curve"/>
      <point x="132.0" y="2004.0" type="line"/>
      <point x="292.0" y="2008.0"/>
      <point x="388.0" y="2108.0"/>
      <point x="416.0" y="2136.0" type="curve"/>
      <point x="424.0" y="2136.0" type="line"/>
      <point x="424.0" y="1024.0" type="line"/>
      <point x="488.0" y="1024.0" type="line"/>
    </contour>
  </outline>
</glyph>
<glyph name="ordmasculine" format="2">
  <advance width="1163.0"/>
  <unicode hex="00BA"/>
  <outline>
    <contour>
      <point x="120.0" y="1436.0" type="line"/>
      <point x="120.0" y="1152.0"/>
      <point x="299.0" y="954.0"/>
      <point x="588.0" y="956.0" type="curve" smooth="yes"/>
      <point x="868.0" y="954.0"/>
      <point x="1043.0" y="1152.0"/>
      <point x="1044.0" y="1436.0" type="curve"/>
      <point x="1044.0" y="1548.0" type="line"/>
      <point x="1043.0" y="1828.0"/>
      <point x="870.0" y="2032.0"/>
      <point x="584.0" y="2032.0" type="curve" smooth="yes"/>
      <point x="297.0" y="2032.0"/>
      <point x="120.0" y="1828.0"/>
      <point x="120.0" y="1548.0" type="curve"/>
    </contour>
    <contour>
      <point x="352.0" y="1548.0" type="line"/>
      <point x="353.0" y="1706.0"/>
      <point x="430.0" y="1828.0"/>
      <point x="584.0" y="1828.0" type="curve" smooth="yes"/>
      <point x="737.0" y="1828.0"/>
      <point x="810.0" y="1706.0"/>
      <point x="812.0" y="1548.0" type="curve"/>
      <point x="812.0" y="1436.0" type="line"/>
      <point x="810.0" y="1272.0"/>
      <point x="737.0" y="1152.0"/>
      <point x="588.0" y="1152.0" type="curve" smooth="yes"/>
      <point x="430.0" y="1152.0"/>
      <point x="353.0" y="1272.0"/>
      <point x="352.0" y="1436.0" type="curve"/>
    </contour>
  </outline>
</glyph>
<glyph name="AE" format="2">
  <advance width="2700.0"/>
  <unicode hex="00C6"/>
  <outline>
    <contour>
      <point x="92.0" y="0.0" type="line"/>
      <point x="164.0" y="0.0" type="line"/>
      <point x="1176.0" y="1984.0" type="line"/>
      <point x="1376.0" y="1984.0" type="line"/>
      <point x="1376.0" y="0.0" type="line"/>
      <point x="2496.0" y="0.0" type="line"/>
      <point x="2496.0" y="64.0" type="line"/>
      <point x="1440.0" y="64.0" type="line"/>
      <point x="1440.0" y="992.0" type="line"/>
      <point x="2408.0" y="992.0" type="line"/>
      <point x="2408.0" y="1056.0" type="line"/>
      <point x="1440.0" y="1056.0" type="line"/>
      <point x="1440.0" y="1984.0" type="line"/>
      <point x="2468.0" y="1984.0" type="line"/>
      <point x="2468.0" y="2048.0" type="line"/>
      <point x="1136.0" y="2048.0" type="line"/>
    </contour>
    <contour>
      <point x="492.0" y="692.0" type="line"/>
      <point x="1412.0" y="692.0" type="line"/>
      <point x="1412.0" y="756.0" type="line"/>
      <point x="492.0" y="756.0" type="line"/>
    </contour>
  </outline>
</glyph>
<glyph name="multiply" format="2">
  <advance width="1792.0"/>
  <unicode hex="00D7"/>
  <guideline x="268.0" y="800.0" angle="0.0"/>
  <outline>
    <contour>
      <point x="1437.0" y="213.0" type="line"/>
      <point x="1483.0" y="259.0" type="line"/>
      <point x="355.0" y="1387.0" type="line"/>
      <point x="309.0" y="1341.0" type="line"/>
    </contour>
    <contour>
      <point x="355.0" y="213.0" type="line"/>
      <point x="1483.0" y="1341.0" type="line"/>
      <point x="1437.0" y="1387.0" type="line"/>
      <point x="309.0" y="259.0" type="line"/>
    </contour>
  </outline>
</glyph>
<glyph name="Oslash" format="2">
  <advance width="2104.0"/>
  <unicode hex="00D8"/>
  <outline>
    <contour>
      <point x="388.0" y="-48.0" type="line"/>
      <point x="1768.0" y="2060.0" type="line"/>
      <point x="1716.0" y="2096.0" type="line"/>
      <point x="336.0" y="-12.0" type="line"/>
    </contour>
    <component base="O"/>
  </outline>
</glyph>
<glyph name="Thorn" format="2">
  <advance width="1663.0"/>
  <unicode hex="00DE"/>
  <outline>
    <contour>
      <point x="292.0" y="2048.0" type="line"/>
      <point x="292.0" y="0.0" type="line"/>
      <point x="352.0" y="0.0" type="line"/>
      <point x="352.0" y="2048.0" type="line"/>
    </contour>
    <contour>
      <point x="324.0" y="1576.0" type="line"/>
      <point x="324.0" y="1472.0" type="line"/>
      <point x="844.0" y="1472.0" type="line" smooth="yes"/>
      <point x="1167.0" y="1471.0"/>
      <point x="1374.0" y="1326.0"/>
      <point x="1376.0" y="1024.0" type="curve" smooth="yes"/>
      <point x="1374.0" y="716.0"/>
      <point x="1167.0" y="582.0"/>
      <point x="844.0" y="584.0" type="curve" smooth="yes"/>
      <point x="324.0" y="584.0" type="line"/>
      <point x="324.0" y="476.0" type="line"/>
      <point x="844.0" y="476.0" type="line" smooth="yes"/>
      <point x="1223.0" y="474.0"/>
      <point x="1432.0" y="738.0"/>
      <point x="1432.0" y="1028.0" type="curve" smooth="yes"/>
      <point x="1432.0" y="1314.0"/>
      <point x="1223.0" y="1576.0"/>
      <point x="844.0" y="1576.0" type="curve" smooth="yes"/>
    </contour>
  </outline>
</glyph>
<glyph name="germandbls" format="2">
  <advance width="1562.0"/>
  <unicode hex="00DF"/>
  <outline>
    <contour>
      <point x="320.0" y="0.0" type="line"/>
      <point x="364.0" y="0.0" type="line"/>
      <point x="364.0" y="1604.0" type="line" smooth="yes"/>
      <point x="364.0" y="1829.0"/>
      <point x="552.0" y="1993.0"/>
      <point x="792.0" y="1992.0" type="curve" smooth="yes"/>
      <point x="1054.0" y="1993.0"/>
      <point x="1220.0" y="1799.0"/>
      <point x="1224.0" y="1564.0" type="curve" smooth="yes"/>
      <point x="1223.0" y="1334.0"/>
      <point x="1064.0" y="1102.0"/>
      <point x="804.0" y="1104.0" type="curve" smooth="yes"/>
      <point x="656.0" y="1104.0" type="line"/>
      <point x="656.0" y="988.0" type="line"/>
      <point x="856.0" y="988.0" type="line" smooth="yes"/>
      <point x="1139.0" y="986.0"/>
      <point x="1319.0" y="785.0"/>
      <point x="1320.0" y="524.0" type="curve" smooth="yes"/>
      <point x="1316.0" y="276.0"/>
      <point x="1155.0" y="93.0"/>
      <point x="904.0" y="92.0" type="curve" smooth="yes"/>
      <point x="648.0" y="92.0" type="line"/>
      <point x="648.0" y="0.0" type="line"/>
      <point x="828.0" y="0.0" type="line" smooth="yes"/>
      <point x="1157.0" y="0.0"/>
      <point x="1361.0" y="275.0"/>
      <point x="1360.0" y="564.0" type="curve" smooth="yes"/>
      <point x="1358.0" y="847.0"/>
      <point x="1160.0" y="1018.0"/>
      <point x="908.0" y="1052.0" type="curve"/>
      <point x="908.0" y="1072.0" type="line"/>
      <point x="1107.0" y="1152.0"/>
      <point x="1258.0" y="1318.0"/>
      <point x="1260.0" y="1576.0" type="curve" smooth="yes"/>
      <point x="1258.0" y="1864.0"/>
      <point x="1079.0" y="2076.0"/>
      <point x="796.0" y="2076.0" type="curve" smooth="yes"/>
      <point x="527.0" y="2076.0"/>
      <point x="318.0" y="1871.0"/>
      <point x="320.0" y="1540.0" type="curve" smooth="yes"/>
    </contour>
  </outline>
</glyph>
<glyph name="ae" format="2">
  <advance width="2630.0"/>
  <unicode hex="00E6"/>
  <outline>
    <contour>
      <point x="1888.0" y="-36.0" type="curve"/>
      <point x="2132.0" y="-34.0"/>
      <point x="2333.0" y="93.0"/>
      <point x="2416.0" y="272.0" type="curve"/>
      <point x="2356.0" y="376.0" type="line"/>
      <point x="2278.0" y="171.0"/>
      <point x="2115.0" y="72.0"/>
      <point x="1884.0" y="72.0" type="curve" smooth="yes"/>
      <point x="1545.0" y="72.0"/>
      <point x="1319.0" y="276.0"/>
      <point x="1272.0" y="692.0" type="curve"/>
      <point x="1272.0" y="668.0" type="line"/>
      <point x="1266.0" y="1166.0"/>
      <point x="1500.0" y="1450.0"/>
      <point x="1848.0" y="1452.0" type="curve" smooth="yes"/>
      <point x="2177.0" y="1450.0"/>
      <point x="2378.0" y="1198.0"/>
      <point x="2376.0" y="860.0" type="curve"/>
      <point x="1360.0" y="772.0" type="line"/>
      <point x="1360.0" y="620.0" type="line"/>
      <point x="2456.0" y="744.0" type="line"/>
      <point x="2456.0" y="800.0" type="line" smooth="yes"/>
      <point x="2455.0" y="1422.0"/>
      <point x="2091.0" y="1556.0"/>
      <point x="1860.0" y="1556.0" type="curve" smooth="yes"/>
      <point x="1563.0" y="1556.0"/>
      <point x="1367.0" y="1378.0"/>
      <point x="1296.0" y="1136.0" type="curve"/>
      <point x="1252.0" y="552.0" type="line"/>
      <point x="1303.0" y="200.0"/>
      <point x="1530.0" y="-34.0"/>
    </contour>
    <contour>
      <point x="680.0" y="88.0" type="curve" smooth="yes"/>
      <point x="433.0" y="87.0"/>
      <point x="255.0" y="194.0"/>
      <point x="256.0" y="404.0" type="curve" smooth="yes"/>
      <point x="255.0" y="645.0"/>
      <point x="484.0" y="698.0"/>
      <point x="704.0" y="724.0" type="curve" smooth="yes"/>
      <point x="809.0" y="736.0"/>
      <point x="1193.0" y="770.0"/>
      <point x="1224.0" y="832.0" type="curve"/>
      <point x="1224.0" y="564.0" type="line" smooth="yes"/>
      <point x="1222.0" y="340.0"/>
      <point x="1051.0" y="87.0"/>
    </contour>
    <contour>
      <point x="728.0" y="-44.0" type="curve" smooth="yes"/>
      <point x="1183.0" y="-43.0"/>
      <point x="1324.0" y="330.0"/>
      <point x="1292.0" y="396.0" type="curve"/>
      <point x="1292.0" y="396.0" type="line"/>
      <point x="1332.0" y="1224.0" type="line"/>
      <point x="1288.0" y="1397.0"/>
      <point x="1103.0" y="1556.0"/>
      <point x="780.0" y="1556.0" type="curve" smooth="yes"/>
      <point x="694.0" y="1556.0"/>
      <point x="404.0" y="1572.0"/>
      <point x="224.0" y="1292.0" type="curve"/>
      <point x="280.0" y="1164.0" type="line"/>
      <point x="354.0" y="1286.0"/>
      <point x="509.0" y="1451.0"/>
      <point x="812.0" y="1452.0" type="curve" smooth="yes"/>
      <point x="1097.0" y="1451.0"/>
      <point x="1225.0" y="1298.0"/>
      <point x="1224.0" y="984.0" type="curve" smooth="yes"/>
      <point x="1225.0" y="883.0"/>
      <point x="1014.0" y="906.0"/>
      <point x="804.0" y="876.0" type="curve" smooth="yes"/>
      <point x="534.0" y="830.0"/>
      <point x="190.0" y="798.0"/>
      <point x="192.0" y="444.0" type="curve" smooth="yes"/>
      <point x="190.0" y="146.0"/>
      <point x="436.0" y="-43.0"/>
    </contour>
  </outline>
</glyph>
<glyph name="eth" format="2">
  <advance width="1654.0"/>
  <unicode hex="00F0"/>
  <outline>
    <contour>
      <point x="1380.0" y="2020.0" type="line"/>
      <point x="1360.0" y="2100.0" type="line"/>
      <point x="576.0" y="1744.0" type="line"/>
      <point x="596.0" y="1664.0" type="line"/>
    </contour>
    <contour>
      <point x="828.0" y="-32.0" type="curve" smooth="yes"/>
      <point x="1220.0" y="-32.0"/>
      <point x="1478.0" y="256.0"/>
      <point x="1480.0" y="752.0" type="curve" smooth="yes"/>
      <point x="1478.0" y="1454.0"/>
      <point x="1013.0" y="1944.0"/>
      <point x="580.0" y="2176.0" type="curve"/>
      <point x="560.0" y="2108.0" type="line"/>
      <point x="1141.0" y="1822.0"/>
      <point x="1384.0" y="1308.0"/>
      <point x="1424.0" y="1048.0" type="curve"/>
      <point x="1404.0" y="1048.0" type="line"/>
      <point x="1350.0" y="1192.0"/>
      <point x="1209.0" y="1438.0"/>
      <point x="892.0" y="1456.0" type="curve" smooth="yes"/>
      <point x="469.0" y="1502.0"/>
      <point x="175.0" y="1159.0"/>
      <point x="176.0" y="704.0" type="curve" smooth="yes"/>
      <point x="175.0" y="276.0"/>
      <point x="426.0" y="-32.0"/>
    </contour>
    <contour>
      <point x="812.0" y="60.0" type="curve" smooth="yes"/>
      <point x="388.0" y="60.0"/>
      <point x="241.0" y="425.0"/>
      <point x="240.0" y="704.0" type="curve" smooth="yes"/>
      <point x="241.0" y="1004.0"/>
      <point x="414.0" y="1378.0"/>
      <point x="812.0" y="1380.0" type="curve" smooth="yes"/>
      <point x="1252.0" y="1378.0"/>
      <point x="1394.0" y="922.0"/>
      <point x="1396.0" y="672.0" type="curve" smooth="yes"/>
      <point x="1394.0" y="370.0"/>
      <point x="1204.0" y="60.0"/>
    </contour>
  </outline>
</glyph>
<glyph name="divide" format="2">
  <advance width="1792.0"/>
  <unicode hex="00F7"/>
  <guideline x="268.0" y="800.0" angle="0.0"/>
  <outline>
    <contour>
      <point x="1476.0" y="832.0" type="line"/>
      <point x="316.0" y="832.0" type="line"/>
      <point x="316.0" y="768.0" type="line"/>
      <point x="1476.0" y="768.0" type="line"/>
    </contour>
    <contour>
      <point x="896.0" y="272.0" type="curve" smooth="yes"/>
      <point x="936.0" y="272.0"/>
      <point x="968.0" y="304.0"/>
      <point x="968.0" y="344.0" type="curve" smooth="yes"/>
      <point x="968.0" y="384.0"/>
      <point x="936.0" y="416.0"/>
      <point x="896.0" y="416.0" type="curve" smooth="yes"/>
      <point x="856.0" y="416.0"/>
      <point x="824.0" y="384.0"/>
      <point x="824.0" y="344.0" type="curve" smooth="yes"/>
      <point x="824.0" y="304.0"/>
      <point x="856.0" y="272.0"/>
    </contour>
    <contour>
      <point x="896.0" y="1184.0" type="curve" smooth="yes"/>
      <point x="936.0" y="1184.0"/>
      <point x="968.0" y="1216.0"/>
      <point x="968.0" y="1256.0" type="curve" smooth="yes"/>
      <point x="968.0" y="1296.0"/>
      <point x="936.0" y="1328.0"/>
      <point x="896.0" y="1328.0" type="curve" smooth="yes"/>
      <point x="856.0" y="1328.0"/>
      <point x="824.0" y="1296.0"/>
      <point x="824.0" y="1256.0" type="curve" smooth="yes"/>
      <point x="824.0" y="1216.0"/>
      <point x="856.0" y="1184.0"/>
    </contour>
  </outline>
</glyph>
<glyph name="oslash" format="2">
  <advance width="1632.0"/>
  <unicode hex="00F8"/>
  <outline>
    <contour>
      <point x="312.0" y="-40.0" type="line"/>
      <point x="1376.0" y="1540.0" type="line"/>
      <point x="1320.0" y="1576.0" type="line"/>
      <point x="256.0" y="-4.0" type="line"/>
    </contour>
    <component base="o" yOffset="4.0"/>
  </outline>
</glyph>
<glyph name="thorn" format="2">
  <advance width="1706.0"/>
  <unicode hex="00FE"/>
  <outline>
    <contour>
      <point x="264.0" y="2048.0" type="line"/>
      <point x="264.0" y="-576.0" type="line"/>
      <point x="308.0" y="-576.0" type="line"/>
      <point x="308.0" y="276.0" type="line"/>
      <point x="336.0" y="820.0" type="line"/>
      <point x="308.0" y="1088.0" type="line"/>
      <point x="308.0" y="2048.0" type="line"/>
    </contour>
    <contour>
      <point x="288.0" y="1224.0" type="line"/>
      <point x="288.0" y="304.0" type="line"/>
      <point x="332.0" y="304.0" type="line"/>
      <point x="379.0" y="246.0"/>
      <point x="453.0" y="-39.0"/>
      <point x="852.0" y="-40.0" type="curve" smooth="yes"/>
      <point x="1272.0" y="-39.0"/>
      <point x="1531.0" y="302.0"/>
      <point x="1532.0" y="764.0" type="curve" smooth="yes"/>
      <point x="1531.0" y="1202.0"/>
      <point x="1284.0" y="1556.0"/>
      <point x="844.0" y="1556.0" type="curve" smooth="yes"/>
      <point x="445.0" y="1556.0"/>
      <point x="382.0" y="1278.0"/>
      <point x="332.0" y="1224.0" type="curve"/>
    </contour>
    <contour>
      <point x="1464.0" y="768.0" type="curve" smooth="yes"/>
      <point x="1463.0" y="390.0"/>
      <point x="1272.0" y="46.0"/>
      <point x="904.0" y="48.0" type="curve" smooth="yes"/>
      <point x="572.0" y="46.0"/>
      <point x="342.0" y="322.0"/>
      <point x="344.0" y="768.0" type="curve" smooth="yes"/>
      <point x="342.0" y="1203.0"/>
      <point x="561.0" y="1471.0"/>
      <point x="904.0" y="1472.0" type="curve" smooth="yes"/>
      <point x="1279.0" y="1471.0"/>
      <point x="1463.0" y="1140.0"/>
    </contour>
  </outline>
</glyph>
<glyph name="Hbar" format="2">
  <advance width="2094.0"/>
  <unicode hex="0126"/>
  <outline>
    <contour>
      <point x="1924.0" y="1540.0" type="line"/>
      <point x="172.0" y="1540.0" type="line"/>
      <point x="172.0" y="1364.0" type="line"/>
      <point x="1924.0" y="1364.0" type="line"/>
    </contour>
    <component base="H" xOffset="16.0"/>
  </outline>
</glyph>
<glyph name="idotless" format="2">
  <advance width="624.0"/>
  <unicode hex="0131"/>
  <outline>
    <contour>
      <point x="280.0" y="0.0" type="line"/>
      <point x="344.0" y="0.0" type="line"/>
      <point x="344.0" y="1536.0" type="line"/>
      <point x="280.0" y="1536.0" type="line"/>
    </contour>
  </outline>
</glyph>
<glyph name="kgreenlandic" format="2">
  <advance width="1663.0"/>
  <unicode hex="0138"/>
  <outline>
    <contour>
      <point x="408.0" y="1488.0" type="line"/>
      <point x="280.0" y="1488.0" type="line"/>
      <point x="280.0" y="0.0" type="line"/>
      <point x="408.0" y="0.0" type="line"/>
    </contour>
    <contour>
      <point x="1320.0" y="1488.0" type="line"/>
      <point x="1188.0" y="1488.0" type="line"/>
      <point x="508.0" y="792.0" type="line"/>
      <point x="260.0" y="792.0" type="line"/>
      <point x="296.0" y="720.0" type="line"/>
      <point x="540.0" y="720.0" type="line"/>
    </contour>
    <contour>
      <point x="1228.0" y="0.0" type="line"/>
      <point x="1384.0" y="0.0" type="line"/>
      <point x="480.0" y="916.0" type="line"/>
      <point x="488.0" y="720.0" type="line"/>
    </contour>
  </outline>
</glyph>
<glyph name="Lslash" format="2">
  <advance width="1519.0"/>
  <unicode hex="0141"/>
  <outline>
    <contour>
      <point x="776.0" y="1236.0" type="line"/>
      <point x="80.0" y="984.0" type="line"/>
      <point x="80.0" y="860.0" type="line"/>
      <point x="776.0" y="1116.0" type="line"/>
    </contour>
    <component base="L" xOffset="-88.0"/>
  </outline>
</glyph>
<glyph name="Eng" format="2">
  <advance width="2170.0"/>
  <unicode hex="014A"/>
  <outline>
    <contour>
      <point x="1748.0" y="0.0" type="line"/>
      <point x="1748.0" y="-232.0" type="line" smooth="yes"/>
      <point x="1747.0" y="-421.0"/>
      <point x="1642.0" y="-457.0"/>
      <point x="1528.0" y="-456.0" type="curve" smooth="yes"/>
      <point x="1523.0" y="-457.0"/>
      <point x="1523.0" y="-455.0"/>
      <point x="1524.0" y="-456.0" type="curve"/>
      <point x="1524.0" y="-544.0" type="line"/>
      <point x="1548.0" y="-551.0"/>
      <point x="1592.0" y="-545.0"/>
      <point x="1640.0" y="-544.0" type="curve" smooth="yes"/>
      <point x="1725.0" y="-545.0"/>
      <point x="1853.0" y="-384.0"/>
      <point x="1852.0" y="-248.0" type="curve" smooth="yes"/>
      <point x="1852.0" y="0.0" type="line"/>
    </contour>
    <component base="N"/>
  </outline>
</glyph>
<glyph name="eng" format="2">
  <advance width="1518.0"/>
  <unicode hex="014B"/>
  <outline>
    <contour>
      <point x="1232.0" y="0.0" type="line"/>
      <point x="1232.0" y="-244.0" type="line" smooth="yes"/>
      <point x="1232.0" y="-448.0"/>
      <point x="1109.0" y="-497.0"/>
      <point x="968.0" y="-496.0" type="curve" smooth="yes"/>
      <point x="960.0" y="-497.0"/>
      <point x="944.0" y="-495.0"/>
      <point x="944.0" y="-496.0" type="curve"/>
      <point x="972.0" y="-552.0" type="line"/>
      <point x="972.0" y="-559.0"/>
      <point x="1005.0" y="-557.0"/>
      <point x="1028.0" y="-556.0" type="curve" smooth="yes"/>
      <point x="1147.0" y="-557.0"/>
      <point x="1278.0" y="-432.0"/>
      <point x="1280.0" y="-244.0" type="curve" smooth="yes"/>
      <point x="1280.0" y="0.0" type="line"/>
    </contour>
    <component base="n"/>
  </outline>
</glyph>
<glyph name="OE" format="2">
  <advance width="2588.0"/>
  <unicode hex="0152"/>
  <note>
!post:RemoveOverlap
</note>
  <outline>
    <contour>
      <point x="1044.0" y="0.0" type="curve" smooth="yes"/>
      <point x="1296.0" y="0.0" type="line"/>
      <point x="1296.0" y="64.0" type="line"/>
      <point x="1044.0" y="64.0" type="line" smooth="yes"/>
      <point x="573.0" y="64.0"/>
      <point x="260.0" y="456.0"/>
      <point x="260.0" y="1024.0" type="curve" smooth="yes"/>
      <point x="260.0" y="1600.0"/>
      <point x="580.0" y="1986.0"/>
      <point x="1044.0" y="1984.0" type="curve" smooth="yes"/>
      <point x="1296.0" y="1984.0" type="line"/>
      <point x="1296.0" y="2048.0" type="line"/>
      <point x="1044.0" y="2048.0" type="line" smooth="yes"/>
      <point x="539.0" y="2048.0"/>
      <point x="196.0" y="1633.0"/>
      <point x="196.0" y="1024.0" type="curve" smooth="yes"/>
      <point x="196.0" y="416.0"/>
      <point x="538.0" y="0.0"/>
    </contour>
    <component base="E" xOffset="944.0"/>
  </outline>
</glyph>
<glyph name="tbar" format="2">
  <advance width="980.0"/>
  <unicode hex="0167"/>
  <outline>
    <contour>
      <point x="116.0" y="912.0" type="line"/>
      <point x="780.0" y="912.0" type="line"/>
      <point x="780.0" y="1076.0" type="line"/>
      <point x="116.0" y="1076.0" type="line"/>
    </contour>
    <component base="t"/>
  </outline>
</glyph>
<glyph name="longs" format="2">
  <advance width="690.0"/>
  <unicode hex="017F"/>
  <outline>
    <contour>
      <point x="200.0" y="0.0" type="line"/>
      <point x="200.0" y="1668.0" type="line"/>
      <point x="201.0" y="1893.0"/>
      <point x="297.0" y="2035.0"/>
      <point x="484.0" y="2036.0" type="curve" smooth="yes"/>
      <point x="517.0" y="2035.0"/>
      <point x="565.0" y="2031.0"/>
      <point x="588.0" y="2024.0" type="curve"/>
      <point x="620.0" y="2112.0" type="line"/>
      <point x="567.0" y="2128.0"/>
      <point x="506.0" y="2140.0"/>
      <point x="452.0" y="2140.0" type="curve" smooth="yes"/>
      <point x="221.0" y="2140.0"/>
      <point x="72.0" y="1971.0"/>
      <point x="72.0" y="1668.0" type="curve"/>
      <point x="72.0" y="0.0" type="line"/>
    </contour>
  </outline>
</glyph>
<glyph name="btopbar" format="2">
  <advance width="1684.0"/>
  <unicode hex="0183"/>
  <note>
!post:RemoveOverlap
</note>
  <outline>
    <contour>
      <point x="1344.0" y="2048.0" type="line"/>
      <point x="352.0" y="2048.0" type="line"/>
      <point x="352.0" y="1984.0" type="line"/>
      <point x="1344.0" y="1984.0" type="line"/>
    </contour>
    <component base="b"/>
  </outline>
</glyph>
<glyph name="Tonesix" format="2">
  <advance width="1815.0"/>
  <unicode hex="0184"/>
  <outline>
    <contour>
      <point x="624.0" y="2048.0" type="line"/>
      <point x="20.0" y="2048.0" type="line"/>
      <point x="20.0" y="1964.0" type="line"/>
      <point x="624.0" y="1964.0" type="line"/>
    </contour>
    <contour>
      <point x="576.0" y="1084.0" type="line"/>
      <point x="576.0" y="988.0" type="line"/>
      <point x="1256.0" y="988.0" type="line"/>
      <point x="1585.0" y="987.0"/>
      <point x="1770.0" y="787.0"/>
      <point x="1772.0" y="560.0" type="curve"/>
      <point x="1770.0" y="326.0"/>
      <point x="1585.0" y="84.0"/>
      <point x="1256.0" y="84.0" type="curve"/>
      <point x="552.0" y="84.0" type="line"/>
      <point x="552.0" y="2048.0" type="line"/>
      <point x="488.0" y="2048.0" type="line"/>
      <point x="488.0" y="0.0" type="line"/>
      <point x="1256.0" y="0.0" type="line"/>
      <point x="1651.0" y="0.0"/>
      <point x="1829.0" y="229.0"/>
      <point x="1828.0" y="556.0" type="curve"/>
      <point x="1829.0" y="878.0"/>
      <point x="1651.0" y="1085.0"/>
      <point x="1256.0" y="1084.0" type="curve"/>
    </contour>
  </outline>
</glyph>
<glyph name="tonesix" format="2">
  <advance width="1670.0"/>
  <unicode hex="0185"/>
  <outline>
    <contour>
      <point x="284.0" y="2112.0" type="line"/>
      <point x="100.0" y="1788.0" type="line"/>
      <point x="100.0" y="1768.0" type="line"/>
      <point x="284.0" y="1440.0" type="line"/>
      <point x="344.0" y="1440.0" type="line"/>
      <point x="344.0" y="2112.0" type="line"/>
    </contour>
    <contour>
      <point x="356.0" y="1224.0" type="line"/>
      <point x="356.0" y="304.0" type="line"/>
      <point x="400.0" y="304.0" type="line"/>
      <point x="451.0" y="243.0"/>
      <point x="529.0" y="-39.0"/>
      <point x="920.0" y="-40.0" type="curve" smooth="yes"/>
      <point x="1341.0" y="-39.0"/>
      <point x="1600.0" y="302.0"/>
      <point x="1600.0" y="764.0" type="curve" smooth="yes"/>
      <point x="1600.0" y="1202.0"/>
      <point x="1353.0" y="1556.0"/>
      <point x="912.0" y="1556.0" type="curve" smooth="yes"/>
      <point x="497.0" y="1556.0"/>
      <point x="448.0" y="1271.0"/>
      <point x="400.0" y="1224.0" type="curve"/>
    </contour>
    <contour>
      <point x="1532.0" y="768.0" type="curve" smooth="yes"/>
      <point x="1532.0" y="387.0"/>
      <point x="1341.0" y="46.0"/>
      <point x="972.0" y="48.0" type="curve" smooth="yes"/>
      <point x="641.0" y="46.0"/>
      <point x="411.0" y="322.0"/>
      <point x="412.0" y="768.0" type="curve" smooth="yes"/>
      <point x="411.0" y="1206.0"/>
      <point x="632.0" y="1471.0"/>
      <point x="972.0" y="1472.0" type="curve" smooth="yes"/>
      <point x="1348.0" y="1471.0"/>
      <point x="1532.0" y="1142.0"/>
    </contour>
    <contour>
      <point x="328.0" y="2048.0" type="line"/>
      <point x="328.0" y="0.0" type="line"/>
      <point x="364.0" y="0.0" type="line"/>
      <point x="364.0" y="276.0" type="line"/>
      <point x="372.0" y="820.0" type="line"/>
      <point x="376.0" y="1088.0" type="line"/>
      <point x="376.0" y="2048.0" type="line"/>
    </contour>
  </outline>
</glyph>
<glyph name="Oopen" format="2">
  <advance width="1978.0"/>
  <unicode hex="0186"/>
  <outline>
    <contour>
      <point x="932.0" y="-28.0" type="curve" smooth="yes"/>
      <point x="1430.0" y="-28.0"/>
      <point x="1784.0" y="395.0"/>
      <point x="1784.0" y="1024.0" type="curve"/>
      <point x="1784.0" y="1650.0"/>
      <point x="1438.0" y="2076.0"/>
      <point x="932.0" y="2076.0" type="curve" smooth="yes"/>
      <point x="581.0" y="2076.0"/>
      <point x="266.0" y="1852.0"/>
      <point x="172.0" y="1484.0" type="curve"/>
      <point x="232.0" y="1484.0" type="line"/>
      <point x="316.0" y="1826.0"/>
      <point x="634.0" y="1995.0"/>
      <point x="940.0" y="1996.0" type="curve" smooth="yes"/>
      <point x="1367.0" y="1995.0"/>
      <point x="1743.0" y="1662.0"/>
      <point x="1744.0" y="1024.0" type="curve"/>
      <point x="1743.0" y="398.0"/>
      <point x="1370.0" y="53.0"/>
      <point x="940.0" y="52.0" type="curve" smooth="yes"/>
      <point x="625.0" y="53.0"/>
      <point x="309.0" y="231.0"/>
      <point x="232.0" y="580.0" type="curve"/>
      <point x="172.0" y="584.0" type="line"/>
      <point x="276.0" y="119.0"/>
      <point x="631.0" y="-28.0"/>
    </contour>
  </outline>
</glyph>
<glyph name="Chook" format="2">
  <advance width="1985.0"/>
  <unicode hex="0187"/>
  <outline>
    <contour>
      <point x="1808.0" y="1484.0" type="line"/>
      <point x="1808.0" y="1824.0" type="line" smooth="yes"/>
      <point x="1807.0" y="1951.0"/>
      <point x="1850.0" y="1985.0"/>
      <point x="1980.0" y="1984.0" type="curve"/>
      <point x="2002.0" y="1985.0"/>
      <point x="2001.0" y="1981.0"/>
      <point x="2008.0" y="1976.0" type="curve"/>
      <point x="2008.0" y="2032.0" type="line"/>
      <point x="2009.0" y="2042.0"/>
      <point x="1966.0" y="2042.0"/>
      <point x="1940.0" y="2044.0" type="curve" smooth="yes"/>
      <point x="1819.0" y="2042.0"/>
      <point x="1751.0" y="1940.0"/>
      <point x="1752.0" y="1772.0" type="curve" smooth="yes"/>
      <point x="1752.0" y="1484.0" type="line"/>
    </contour>
    <component base="C"/>
  </outline>
</glyph>
<glyph name="chook" format="2">
  <advance width="1629.0"/>
  <unicode hex="0188"/>
  <outline>
    <contour>
      <point x="1340.0" y="1184.0" type="line"/>
      <point x="1340.0" y="1260.0" type="line" smooth="yes"/>
      <point x="1340.0" y="1444.0"/>
      <point x="1450.0" y="1616.0"/>
      <point x="1604.0" y="1616.0" type="curve" smooth="yes"/>
      <point x="1624.0" y="1616.0"/>
      <point x="1640.0" y="1616.0"/>
      <point x="1660.0" y="1616.0" type="curve"/>
      <point x="1660.0" y="1680.0" type="line"/>
      <point x="1640.0" y="1680.0"/>
      <point x="1604.0" y="1680.0"/>
      <point x="1604.0" y="1680.0" type="curve" smooth="yes"/>
      <point x="1397.0" y="1680.0"/>
      <point x="1276.0" y="1459.0"/>
      <point x="1276.0" y="1260.0" type="curve" smooth="yes"/>
      <point x="1276.0" y="1184.0" type="line"/>
    </contour>
    <component base="c"/>
  </outline>
</glyph>
<glyph name="Dhook" format="2">
  <advance width="2300.0"/>
  <unicode hex="018A"/>
  <outline>
    <contour>
      <point x="172.0" y="1688.0" type="line"/>
      <point x="252.0" y="1688.0" type="line"/>
      <point x="252.0" y="1724.0" type="line" smooth="yes"/>
      <point x="252.0" y="1854.0"/>
      <point x="255.0" y="1979.0"/>
      <point x="408.0" y="1980.0" type="curve" smooth="yes"/>
      <point x="504.0" y="1980.0" type="line"/>
      <point x="504.0" y="2048.0" type="line"/>
      <point x="404.0" y="2048.0" type="line" smooth="yes"/>
      <point x="238.0" y="2048.0"/>
      <point x="173.0" y="1886.0"/>
      <point x="172.0" y="1760.0" type="curve" smooth="yes"/>
    </contour>
    <component base="D" xOffset="300.0"/>
  </outline>
</glyph>
<glyph name="Dtopbar" format="2">
  <advance width="1663.0"/>
  <unicode hex="018B"/>
  <outline>
    <contour>
      <point x="1504.0" y="0.0" type="line"/>
      <point x="1504.0" y="1968.0" type="line"/>
      <point x="396.0" y="1968.0" type="line"/>
      <point x="396.0" y="1860.0" type="line"/>
      <point x="1368.0" y="1860.0" type="line"/>
      <point x="1368.0" y="1100.0" type="line"/>
      <point x="740.0" y="1100.0" type="line" smooth="yes"/>
      <point x="343.0" y="1098.0"/>
      <point x="159.0" y="881.0"/>
      <point x="160.0" y="556.0" type="curve" smooth="yes"/>
      <point x="159.0" y="226.0"/>
      <point x="343.0" y="0.0"/>
      <point x="740.0" y="0.0" type="curve" smooth="yes"/>
    </contour>
    <contour>
      <point x="1368.0" y="108.0" type="line"/>
      <point x="740.0" y="108.0" type="line" smooth="yes"/>
      <point x="406.0" y="108.0"/>
      <point x="298.0" y="326.0"/>
      <point x="300.0" y="560.0" type="curve" smooth="yes"/>
      <point x="298.0" y="787.0"/>
      <point x="406.0" y="981.0"/>
      <point x="740.0" y="980.0" type="curve" smooth="yes"/>
      <point x="1368.0" y="980.0" type="line"/>
    </contour>
  </outline>
</glyph>
<glyph name="deltaturn" format="2">
  <advance width="1196.0"/>
  <unicode hex="018D"/>
  <outline>
    <contour>
      <point x="1000.0" y="-516.0" type="line"/>
      <point x="1000.0" y="-404.0" type="line"/>
      <point x="830.0" y="-200.0"/>
      <point x="678.0" y="-101.0"/>
      <point x="484.0" y="92.0" type="curve"/>
      <point x="504.0" y="90.0"/>
      <point x="485.0" y="90.0"/>
      <point x="532.0" y="96.0" type="curve" smooth="yes"/>
      <point x="996.0" y="142.0"/>
      <point x="1207.0" y="428.0"/>
      <point x="1208.0" y="708.0" type="curve" smooth="yes"/>
      <point x="1208.0" y="736.0" type="line" smooth="yes"/>
      <point x="1207.0" y="1176.0"/>
      <point x="974.0" y="1516.0"/>
      <point x="596.0" y="1516.0" type="curve" smooth="yes"/>
      <point x="222.0" y="1516.0"/>
      <point x="-7.0" y="1198.0"/>
      <point x="-8.0" y="784.0" type="curve" smooth="yes"/>
      <point x="-8.0" y="756.0" type="line" smooth="yes"/>
      <point x="-7.0" y="430.0"/>
      <point x="213.0" y="194.0"/>
      <point x="528.0" y="-96.0" type="curve" smooth="yes"/>
      <point x="590.0" y="-154.0"/>
      <point x="788.0" y="-370.0"/>
      <point x="812.0" y="-424.0" type="curve"/>
      <point x="172.0" y="-424.0" type="line"/>
      <point x="172.0" y="-516.0" type="line"/>
    </contour>
    <contour>
      <point x="1076.0" y="756.0" type="line"/>
      <point x="1075.0" y="481.0"/>
      <point x="904.0" y="219.0"/>
      <point x="556.0" y="220.0" type="curve" smooth="yes"/>
      <point x="489.0" y="219.0"/>
      <point x="441.0" y="226.0"/>
      <point x="392.0" y="240.0" type="curve"/>
      <point x="255.0" y="341.0"/>
      <point x="118.0" y="530.0"/>
      <point x="120.0" y="756.0" type="curve" smooth="yes"/>
      <point x="120.0" y="784.0" type="line" smooth="yes"/>
      <point x="118.0" y="1125.0"/>
      <point x="284.0" y="1411.0"/>
      <point x="596.0" y="1412.0" type="curve" smooth="yes"/>
      <point x="906.0" y="1411.0"/>
      <point x="1075.0" y="1139.0"/>
      <point x="1076.0" y="784.0" type="curve" smooth="yes"/>
    </contour>
  </outline>
</glyph>
<glyph name="Schwa" format="2">
  <advance width="1912.0"/>
  <unicode hex="018F"/>
  <outline>
    <contour>
      <point x="952.0" y="-28.0" type="curve" smooth="yes"/>
      <point x="1372.0" y="-28.0"/>
      <point x="1730.0" y="387.0"/>
      <point x="1732.0" y="992.0" type="curve" smooth="yes"/>
      <point x="1732.0" y="1008.0" type="line" smooth="yes"/>
      <point x="1730.0" y="1609.0"/>
      <point x="1423.0" y="2032.0"/>
      <point x="888.0" y="2032.0" type="curve" smooth="yes"/>
      <point x="559.0" y="2032.0"/>
      <point x="474.0" y="1917.0"/>
      <point x="420.0" y="1876.0" type="curve"/>
      <point x="488.0" y="1816.0" type="line"/>
      <point x="576.0" y="1870.0"/>
      <point x="692.0" y="1945.0"/>
      <point x="912.0" y="1944.0" type="curve" smooth="yes"/>
      <point x="1372.0" y="1945.0"/>
      <point x="1591.0" y="1533.0"/>
      <point x="1592.0" y="1008.0" type="curve" smooth="yes"/>
      <point x="1592.0" y="992.0" type="line" smooth="yes"/>
      <point x="1591.0" y="472.0"/>
      <point x="1351.0" y="55.0"/>
      <point x="952.0" y="56.0" type="curve" smooth="yes"/>
      <point x="468.0" y="55.0"/>
      <point x="320.0" y="408.0"/>
      <point x="320.0" y="856.0" type="curve" smooth="yes"/>
      <point x="320.0" y="900.0" type="line"/>
      <point x="1700.0" y="900.0" type="line"/>
      <point x="1700.0" y="980.0" type="line"/>
      <point x="188.0" y="980.0" type="line"/>
      <point x="188.0" y="868.0" type="line" smooth="yes"/>
      <point x="187.0" y="318.0"/>
      <point x="439.0" y="-28.0"/>
    </contour>
  </outline>
</glyph>
<glyph name="Epsilon1" format="2">
  <advance width="1663.0"/>
  <unicode hex="0190"/>
  <outline>
    <contour>
      <point x="1032.0" y="960.0" type="line"/>
      <point x="1032.0" y="1084.0" type="line"/>
      <point x="836.0" y="1084.0" type="line" smooth="yes"/>
      <point x="459.0" y="1083.0"/>
      <point x="332.0" y="1265.0"/>
      <point x="332.0" y="1480.0" type="curve" smooth="yes"/>
      <point x="332.0" y="1722.0"/>
      <point x="487.0" y="1920.0"/>
      <point x="856.0" y="1920.0" type="curve" smooth="yes"/>
      <point x="1135.0" y="1920.0"/>
      <point x="1337.0" y="1728.0"/>
      <point x="1336.0" y="1496.0" type="curve"/>
      <point x="1468.0" y="1496.0" type="line"/>
      <point x="1470.0" y="1825.0"/>
      <point x="1193.0" y="2032.0"/>
      <point x="856.0" y="2032.0" type="curve" smooth="yes"/>
      <point x="460.0" y="2032.0"/>
      <point x="202.0" y="1832.0"/>
      <point x="200.0" y="1460.0" type="curve" smooth="yes"/>
      <point x="202.0" y="1134.0"/>
      <point x="474.0" y="960.0"/>
      <point x="884.0" y="960.0" type="curve"/>
    </contour>
    <contour>
      <point x="884.0" y="1080.0" type="line"/>
      <point x="433.0" y="1080.0"/>
      <point x="170.0" y="896.0"/>
      <point x="168.0" y="560.0" type="curve" smooth="yes"/>
      <point x="170.0" y="126.0"/>
      <point x="484.0" y="-28.0"/>
      <point x="856.0" y="-28.0" type="curve" smooth="yes"/>
      <point x="1172.0" y="-28.0"/>
      <point x="1496.0" y="148.0"/>
      <point x="1496.0" y="556.0" type="curve"/>
      <point x="1364.0" y="556.0" type="line"/>
      <point x="1365.0" y="302.0"/>
      <point x="1169.0" y="80.0"/>
      <point x="856.0" y="80.0" type="curve" smooth="yes"/>
      <point x="509.0" y="80.0"/>
      <point x="307.0" y="239.0"/>
      <point x="308.0" y="544.0" type="curve" smooth="yes"/>
      <point x="307.0" y="814.0"/>
      <point x="476.0" y="961.0"/>
      <point x="836.0" y="960.0" type="curve" smooth="yes"/>
      <point x="1032.0" y="960.0" type="line"/>
      <point x="1032.0" y="1080.0" type="line"/>
    </contour>
  </outline>
</glyph>
<glyph name="Fhook" format="2">
  <advance width="1594.0"/>
  <unicode hex="0191"/>
  <outline>
    <contour>
      <point x="256.0" y="0.0" type="line"/>
      <point x="256.0" y="-228.0" type="line" smooth="yes"/>
      <point x="255.0" y="-428.0"/>
      <point x="172.0" y="-493.0"/>
      <point x="28.0" y="-492.0" type="curve"/>
      <point x="-4.0" y="-493.0"/>
      <point x="-24.0" y="-484.0"/>
      <point x="-40.0" y="-480.0" type="curve"/>
      <point x="-40.0" y="-564.0" type="line"/>
      <point x="23.0" y="-576.0"/>
      <point x="-54.0" y="-576.0"/>
      <point x="-60.0" y="-576.0" type="curve"/>
      <point x="258.0" y="-576.0"/>
      <point x="318.0" y="-366.0"/>
      <point x="320.0" y="-236.0" type="curve" smooth="yes"/>
      <point x="320.0" y="0.0" type="line"/>
    </contour>
    <component base="F" xOffset="-64.0"/>
  </outline>
</glyph>
<glyph name="florin" format="2">
  <advance width="855.0"/>
  <unicode hex="0192"/>
  <outline>
    <contour>
      <point x="696.0" y="1488.0" type="line"/>
      <point x="432.0" y="1488.0" type="line"/>
      <point x="432.0" y="1668.0" type="line" smooth="yes"/>
      <point x="432.0" y="1893.0"/>
      <point x="523.0" y="2005.0"/>
      <point x="716.0" y="2004.0" type="curve" smooth="yes"/>
      <point x="745.0" y="2005.0"/>
      <point x="781.0" y="1994.0"/>
      <point x="800.0" y="1988.0" type="curve"/>
      <point x="880.0" y="2096.0" type="line"/>
      <point x="844.0" y="2122.0"/>
      <point x="712.0" y="2140.0"/>
      <point x="648.0" y="2140.0" type="curve" smooth="yes"/>
      <point x="496.0" y="2140.0"/>
      <point x="349.0" y="1971.0"/>
      <point x="352.0" y="1668.0" type="curve" smooth="yes"/>
      <point x="352.0" y="1488.0" type="line"/>
      <point x="88.0" y="1488.0" type="line"/>
      <point x="88.0" y="1384.0" type="line"/>
      <point x="352.0" y="1384.0" type="line"/>
      <point x="352.0" y="-188.0" type="line" smooth="yes"/>
      <point x="349.0" y="-382.0"/>
      <point x="226.0" y="-495.0"/>
      <point x="136.0" y="-496.0" type="curve" smooth="yes"/>
      <point x="123.0" y="-495.0"/>
      <point x="20.0" y="-494.0"/>
      <point x="-4.0" y="-480.0" type="curve"/>
      <point x="-24.0" y="-580.0" type="line"/>
      <point x="4.0" y="-596.0"/>
      <point x="38.0" y="-600.0"/>
      <point x="80.0" y="-600.0" type="curve" smooth="yes"/>
      <point x="312.0" y="-600.0"/>
      <point x="432.0" y="-454.0"/>
      <point x="432.0" y="-188.0" type="curve" smooth="yes"/>
      <point x="432.0" y="1384.0" type="line"/>
      <point x="696.0" y="1384.0" type="line"/>
    </contour>
  </outline>
</glyph>
<glyph name="Ghook" format="2">
  <advance width="2003.0"/>
  <unicode hex="0193"/>
  <outline>
    <contour>
      <point x="1828.0" y="1432.0" type="line"/>
      <point x="1828.0" y="1552.0" type="line" smooth="yes"/>
      <point x="1826.0" y="1702.0"/>
      <point x="1893.0" y="1765.0"/>
      <point x="2008.0" y="1764.0" type="curve" smooth="yes"/>
      <point x="2025.0" y="1765.0"/>
      <point x="2041.0" y="1763.0"/>
      <point x="2044.0" y="1760.0" type="curve"/>
      <point x="2044.0" y="1820.0" type="line"/>
      <point x="2039.0" y="1827.0"/>
      <point x="1999.0" y="1820.0"/>
      <point x="1972.0" y="1820.0" type="curve" smooth="yes"/>
      <point x="1794.0" y="1820.0"/>
      <point x="1813.0" y="1720.0"/>
      <point x="1784.0" y="1552.0" type="curve" smooth="yes"/>
      <point x="1764.0" y="1432.0" type="line"/>
    </contour>
    <component base="G"/>
  </outline>
</glyph>
<glyph name="Gamma1" format="2">
  <advance width="1454.0"/>
  <unicode hex="0194"/>
  <outline>
    <contour>
      <point x="-60.0" y="2084.0" type="line"/>
      <point x="696.0" y="148.0" type="line" smooth="yes"/>
      <point x="813.0" y="-144.0"/>
      <point x="886.0" y="-266.0"/>
      <point x="888.0" y="-348.0" type="curve" smooth="yes"/>
      <point x="886.0" y="-401.0"/>
      <point x="806.0" y="-453.0"/>
      <point x="728.0" y="-452.0" type="curve" smooth="yes"/>
      <point x="646.0" y="-453.0"/>
      <point x="569.0" y="-402.0"/>
      <point x="568.0" y="-348.0" type="curve" smooth="yes"/>
      <point x="569.0" y="-271.0"/>
      <point x="650.0" y="-134.0"/>
      <point x="764.0" y="148.0" type="curve" smooth="yes"/>
      <point x="1516.0" y="2084.0" type="line"/>
      <point x="1472.0" y="2084.0" type="line"/>
      <point x="628.0" y="92.0" type="line" smooth="yes"/>
      <point x="491.0" y="-232.0"/>
      <point x="494.0" y="-194.0"/>
      <point x="496.0" y="-332.0" type="curve" smooth="yes"/>
      <point x="494.0" y="-473.0"/>
      <point x="536.0" y="-600.0"/>
      <point x="728.0" y="-600.0" type="curve" smooth="yes"/>
      <point x="918.0" y="-600.0"/>
      <point x="972.0" y="-473.0"/>
      <point x="972.0" y="-332.0" type="curve" smooth="yes"/>
      <point x="972.0" y="-209.0"/>
      <point x="946.0" y="-237.0"/>
      <point x="812.0" y="92.0" type="curve" smooth="yes"/>
      <point x="-16.0" y="2084.0" type="line"/>
    </contour>
  </outline>
</glyph>
<glyph name="hv" format="2">
  <advance width="2561.0"/>
  <unicode hex="0195"/>
  <note>
Note: Must be split in two, or conversion to quadratic curves will fail.
</note>
  <outline>
    <contour>
      <point x="264.0" y="0.0" type="line"/>
      <point x="308.0" y="0.0" type="line"/>
      <point x="308.0" y="960.0" type="line" smooth="yes"/>
      <point x="307.0" y="1298.0"/>
      <point x="528.0" y="1486.0"/>
      <point x="820.0" y="1488.0" type="curve" smooth="yes"/>
      <point x="1091.0" y="1486.0"/>
      <point x="1258.0" y="1317.0"/>
      <point x="1260.0" y="1020.0" type="curve" smooth="yes"/>
      <point x="1260.0" y="768.0" type="line"/>
      <point x="1304.0" y="768.0" type="line"/>
      <point x="1304.0" y="976.0" type="line" smooth="yes"/>
      <point x="1304.0" y="1404.0"/>
      <point x="1095.0" y="1556.0"/>
      <point x="788.0" y="1556.0" type="curve" smooth="yes"/>
      <point x="536.0" y="1556.0"/>
      <point x="416.0" y="1464.0"/>
      <point x="344.0" y="1328.0" type="curve"/>
      <point x="320.0" y="1328.0" type="line"/>
      <point x="320.0" y="2048.0" type="line"/>
      <point x="264.0" y="2048.0" type="line"/>
    </contour>
    <contour>
      <point x="1664.0" y="-28.0" type="curve" smooth="yes"/>
      <point x="1925.0" y="-28.0"/>
      <point x="2299.0" y="308.0"/>
      <point x="2300.0" y="1292.0" type="curve"/>
      <point x="2300.0" y="1536.0" type="line"/>
      <point x="2252.0" y="1536.0" type="line"/>
      <point x="2252.0" y="1292.0" type="line" smooth="yes"/>
      <point x="2253.0" y="294.0"/>
      <point x="1938.0" y="36.0"/>
      <point x="1680.0" y="36.0" type="curve" smooth="yes"/>
      <point x="1545.0" y="36.0"/>
      <point x="1304.0" y="106.0"/>
      <point x="1304.0" y="620.0" type="curve"/>
      <point x="1304.0" y="768.0" type="line"/>
      <point x="1260.0" y="768.0" type="line"/>
      <point x="1260.0" y="620.0" type="line" smooth="yes"/>
      <point x="1258.0" y="128.0"/>
      <point x="1485.0" y="-28.0"/>
    </contour>
  </outline>
</glyph>
<glyph name="Iota1" format="2">
  <advance width="922.0"/>
  <unicode hex="0196"/>
  <outline>
    <contour>
      <point x="316.0" y="2112.0" type="line"/>
      <point x="188.0" y="2112.0" type="line"/>
      <point x="188.0" y="448.0" type="line" smooth="yes"/>
      <point x="187.0" y="145.0"/>
      <point x="336.0" y="-28.0"/>
      <point x="568.0" y="-28.0" type="curve" smooth="yes"/>
      <point x="622.0" y="-28.0"/>
      <point x="682.0" y="-16.0"/>
      <point x="736.0" y="0.0" type="curve"/>
      <point x="704.0" y="92.0" type="line"/>
      <point x="678.0" y="85.0"/>
      <point x="630.0" y="74.0"/>
      <point x="600.0" y="76.0" type="curve" smooth="yes"/>
      <point x="413.0" y="74.0"/>
      <point x="317.0" y="223.0"/>
      <point x="316.0" y="448.0" type="curve" smooth="yes"/>
    </contour>
  </outline>
</glyph>
<glyph name="Khook" format="2">
  <advance width="1731.0"/>
  <unicode hex="0198"/>
  <outline>
    <contour>
      <point x="320.0" y="0.0" type="line"/>
      <point x="380.0" y="0.0" type="line"/>
      <point x="380.0" y="800.0" type="line"/>
      <point x="644.0" y="1108.0" type="line"/>
      <point x="1464.0" y="0.0" type="line"/>
      <point x="1548.0" y="0.0" type="line"/>
      <point x="672.0" y="1148.0" type="line"/>
      <point x="1356.0" y="1900.0" type="line" smooth="yes"/>
      <point x="1468.0" y="2023.0"/>
      <point x="1577.0" y="2002.0"/>
      <point x="1640.0" y="1948.0" type="curve"/>
      <point x="1704.0" y="2012.0" type="line"/>
      <point x="1632.0" y="2090.0"/>
      <point x="1463.0" y="2111.0"/>
      <point x="1356.0" y="1980.0" type="curve" smooth="yes"/>
      <point x="404.0" y="900.0" type="line"/>
      <point x="380.0" y="900.0" type="line"/>
      <point x="380.0" y="2048.0" type="line"/>
      <point x="320.0" y="2048.0" type="line"/>
    </contour>
  </outline>
</glyph>
<glyph name="khook" format="2">
  <advance width="1375.0"/>
  <unicode hex="0199"/>
  <outline>
    <contour>
      <point x="1204.0" y="0.0" type="line"/>
      <point x="1304.0" y="0.0" type="line"/>
      <point x="584.0" y="880.0" type="line"/>
      <point x="1212.0" y="1536.0" type="line"/>
      <point x="1108.0" y="1536.0" type="line"/>
      <point x="328.0" y="692.0" type="line"/>
      <point x="308.0" y="692.0" type="line"/>
      <point x="308.0" y="1708.0" type="line"/>
      <point x="264.0" y="1708.0" type="line"/>
      <point x="264.0" y="0.0" type="line"/>
      <point x="308.0" y="0.0" type="line"/>
      <point x="308.0" y="604.0" type="line"/>
      <point x="528.0" y="840.0" type="line"/>
    </contour>
    <contour>
      <point x="308.0" y="1588.0" type="line"/>
      <point x="308.0" y="1736.0" type="line" smooth="yes"/>
      <point x="307.0" y="1934.0"/>
      <point x="394.0" y="1999.0"/>
      <point x="544.0" y="2000.0" type="curve" smooth="yes"/>
      <point x="562.0" y="1999.0"/>
      <point x="583.0" y="1995.0"/>
      <point x="588.0" y="1992.0" type="curve"/>
      <point x="588.0" y="2068.0" type="line"/>
      <point x="569.0" y="2083.0"/>
      <point x="541.0" y="2076.0"/>
      <point x="536.0" y="2076.0" type="curve" smooth="yes"/>
      <point x="346.0" y="2076.0"/>
      <point x="261.0" y="1866.0"/>
      <point x="264.0" y="1736.0" type="curve" smooth="yes"/>
      <point x="264.0" y="1588.0" type="line"/>
    </contour>
  </outline>
</glyph>
<glyph name="lambdabar" format="2">
  <advance width="1670.0"/>
  <unicode hex="019B"/>
  <outline>
    <contour>
      <point x="792.0" y="2016.0" type="line"/>
      <point x="248.0" y="1752.0" type="line"/>
      <point x="248.0" y="1560.0" type="line"/>
      <point x="792.0" y="1816.0" type="line"/>
    </contour>
    <contour>
      <point x="776.0" y="1244.0" type="line"/>
      <point x="836.0" y="1480.0" type="line"/>
      <point x="740.0" y="1504.0" type="line"/>
      <point x="156.0" y="0.0" type="line"/>
      <point x="312.0" y="0.0" type="line"/>
    </contour>
    <contour>
      <point x="388.0" y="2044.0" type="curve"/>
      <point x="367.0" y="2045.0"/>
      <point x="336.0" y="2039.0"/>
      <point x="348.0" y="2040.0" type="curve"/>
      <point x="340.0" y="1940.0" type="line"/>
      <point x="337.0" y="1942.0"/>
      <point x="374.0" y="1942.0"/>
      <point x="384.0" y="1944.0" type="curve" smooth="yes"/>
      <point x="424.0" y="1942.0"/>
      <point x="463.0" y="1924.0"/>
      <point x="508.0" y="1808.0" type="curve" smooth="yes"/>
      <point x="672.0" y="1372.0" type="line"/>
      <point x="1136.0" y="220.0" type="line" smooth="yes"/>
      <point x="1252.0" y="-80.0"/>
      <point x="1304.0" y="-22.0"/>
      <point x="1400.0" y="-24.0" type="curve" smooth="yes"/>
      <point x="1424.0" y="-22.0"/>
      <point x="1458.0" y="-6.0"/>
      <point x="1460.0" y="4.0" type="curve"/>
      <point x="1444.0" y="112.0" type="line"/>
      <point x="1432.0" y="111.0"/>
      <point x="1409.0" y="111.0"/>
      <point x="1396.0" y="112.0" type="curve" smooth="yes"/>
      <point x="1352.0" y="111.0"/>
      <point x="1330.0" y="82.0"/>
      <point x="1292.0" y="184.0" type="curve" smooth="yes"/>
      <point x="688.0" y="1828.0" type="line" smooth="yes"/>
      <point x="637.0" y="1963.0"/>
      <point x="587.0" y="2045.0"/>
    </contour>
  </outline>
</glyph>
<glyph name="mcapturn" format="2">
  <advance width="2402.0"/>
  <unicode hex="019C"/>
  <outline>
    <contour>
      <point x="2044.0" y="232.0" type="line"/>
      <point x="2024.0" y="0.0" type="line"/>
      <point x="2164.0" y="0.0" type="line"/>
      <point x="2164.0" y="2004.0" type="line"/>
      <point x="2044.0" y="2004.0" type="line"/>
    </contour>
    <contour>
      <point x="2032.0" y="692.0" type="line"/>
      <point x="2033.0" y="356.0"/>
      <point x="1918.0" y="90.0"/>
      <point x="1572.0" y="92.0" type="curve" smooth="yes"/>
      <point x="1442.0" y="90.0"/>
      <point x="1266.0" y="172.0"/>
      <point x="1268.0" y="632.0" type="curve"/>
      <point x="1268.0" y="2004.0" type="line"/>
      <point x="1140.0" y="2004.0" type="line"/>
      <point x="1140.0" y="632.0" type="line"/>
      <point x="1138.0" y="123.0"/>
      <point x="1330.0" y="-28.0"/>
      <point x="1604.0" y="-28.0" type="curve" smooth="yes"/>
      <point x="2034.0" y="-28.0"/>
      <point x="2156.0" y="280.0"/>
      <point x="2156.0" y="696.0" type="curve"/>
    </contour>
    <contour>
      <point x="1136.0" y="692.0" type="line"/>
      <point x="1136.0" y="358.0"/>
      <point x="1015.0" y="90.0"/>
      <point x="668.0" y="92.0" type="curve" smooth="yes"/>
      <point x="538.0" y="90.0"/>
      <point x="370.0" y="172.0"/>
      <point x="372.0" y="632.0" type="curve" smooth="yes"/>
      <point x="372.0" y="2004.0" type="line"/>
      <point x="236.0" y="2004.0" type="line"/>
      <point x="236.0" y="632.0" type="line" smooth="yes"/>
      <point x="235.0" y="127.0"/>
      <point x="446.0" y="-28.0"/>
      <point x="704.0" y="-28.0" type="curve" smooth="yes"/>
      <point x="1122.0" y="-28.0"/>
      <point x="1254.0" y="287.0"/>
      <point x="1256.0" y="696.0" type="curve"/>
    </contour>
  </outline>
</glyph>
<glyph name="Nhook" format="2">
  <advance width="2192.0"/>
  <unicode hex="019D"/>
  <outline>
    <contour>
      <point x="340.0" y="0.0" type="line"/>
      <point x="340.0" y="-228.0" type="line" smooth="yes"/>
      <point x="339.0" y="-428.0"/>
      <point x="256.0" y="-493.0"/>
      <point x="112.0" y="-492.0" type="curve"/>
      <point x="80.0" y="-493.0"/>
      <point x="60.0" y="-484.0"/>
      <point x="48.0" y="-480.0" type="curve"/>
      <point x="48.0" y="-564.0" type="line"/>
      <point x="68.0" y="-576.0"/>
      <point x="75.0" y="-576.0"/>
      <point x="120.0" y="-576.0" type="curve"/>
      <point x="304.0" y="-576.0"/>
      <point x="402.0" y="-366.0"/>
      <point x="404.0" y="-236.0" type="curve" smooth="yes"/>
      <point x="404.0" y="0.0" type="line"/>
    </contour>
    <component base="N" xOffset="24.0"/>
  </outline>
</glyph>
<glyph name="ohorn" format="2">
  <advance width="1588.0"/>
  <unicode hex="01A1"/>
  <outline>
    <contour>
      <point x="1404.0" y="1680.0" type="line"/>
      <point x="1402.0" y="1514.0"/>
      <point x="1390.0" y="1389.0"/>
      <point x="1204.0" y="1388.0" type="curve"/>
      <point x="1204.0" y="1224.0" type="line"/>
      <point x="1508.0" y="1223.0"/>
      <point x="1588.0" y="1408.0"/>
      <point x="1588.0" y="1680.0" type="curve"/>
    </contour>
    <component base="o"/>
  </outline>
</glyph>
<glyph name="OI" format="2">
  <advance width="1954.0"/>
  <unicode hex="01A2"/>
  <outline>
    <contour>
      <point x="1524.0" y="832.0" type="line"/>
      <point x="1400.0" y="832.0" type="line"/>
      <point x="1400.0" y="272.0" type="line"/>
      <point x="1347.0" y="199.0"/>
      <point x="1253.0" y="80.0"/>
      <point x="904.0" y="80.0" type="curve" smooth="yes"/>
      <point x="488.0" y="80.0"/>
      <point x="243.0" y="415.0"/>
      <point x="244.0" y="924.0" type="curve" smooth="yes"/>
      <point x="244.0" y="1088.0" type="line"/>
      <point x="116.0" y="1084.0" type="line"/>
      <point x="116.0" y="924.0" type="line" smooth="yes"/>
      <point x="117.0" y="294.0"/>
      <point x="466.0" y="-28.0"/>
      <point x="904.0" y="-28.0" type="curve" smooth="yes"/>
      <point x="1363.0" y="-28.0"/>
      <point x="1477.0" y="177.0"/>
      <point x="1524.0" y="288.0" type="curve"/>
    </contour>
    <contour>
      <point x="1524.0" y="1716.0" type="line"/>
      <point x="1477.0" y="1825.0"/>
      <point x="1361.0" y="2032.0"/>
      <point x="904.0" y="2032.0" type="curve" smooth="yes"/>
      <point x="460.0" y="2032.0"/>
      <point x="117.0" y="1676.0"/>
      <point x="116.0" y="1084.0" type="curve" smooth="yes"/>
      <point x="116.0" y="956.0" type="line"/>
      <point x="244.0" y="956.0" type="line"/>
      <point x="244.0" y="1084.0" type="line" smooth="yes"/>
      <point x="243.0" y="1615.0"/>
      <point x="542.0" y="1918.0"/>
      <point x="880.0" y="1920.0" type="curve" smooth="yes"/>
      <point x="1269.0" y="1918.0"/>
      <point x="1357.0" y="1793.0"/>
      <point x="1400.0" y="1728.0" type="curve"/>
      <point x="1400.0" y="1124.0" type="line"/>
      <point x="1524.0" y="1120.0" type="line"/>
    </contour>
    <contour>
      <point x="1840.0" y="2004.0" type="line"/>
      <point x="1728.0" y="2004.0" type="line"/>
      <point x="1504.0" y="1940.0" type="line"/>
      <point x="1504.0" y="1928.0" type="line"/>
      <point x="1704.0" y="1960.0" type="line"/>
      <point x="1704.0" y="-572.0" type="line"/>
      <point x="1840.0" y="-572.0" type="line"/>
    </contour>
  </outline>
</glyph>
<glyph name="oi" format="2">
  <advance width="1459.0"/>
  <unicode hex="01A3"/>
  <outline>
    <contour>
      <point x="716.0" y="76.0" type="curve" smooth="yes"/>
      <point x="445.0" y="74.0"/>
      <point x="214.0" y="271.0"/>
      <point x="216.0" y="708.0" type="curve" smooth="yes"/>
      <point x="216.0" y="784.0" type="line" smooth="yes"/>
      <point x="214.0" y="1077.0"/>
      <point x="339.0" y="1411.0"/>
      <point x="720.0" y="1412.0" type="curve"/>
      <point x="792.0" y="1411.0"/>
      <point x="869.0" y="1392.0"/>
      <point x="932.0" y="1364.0" type="curve"/>
      <point x="932.0" y="620.0" type="line"/>
      <point x="1064.0" y="648.0" type="line"/>
      <point x="1064.0" y="1432.0" type="line"/>
      <point x="940.0" y="1544.0"/>
      <point x="821.0" y="1516.0"/>
      <point x="708.0" y="1516.0" type="curve" smooth="yes"/>
      <point x="279.0" y="1516.0"/>
      <point x="80.0" y="1151.0"/>
      <point x="80.0" y="784.0" type="curve" smooth="yes"/>
      <point x="80.0" y="708.0" type="line" smooth="yes"/>
      <point x="80.0" y="339.0"/>
      <point x="273.0" y="-28.0"/>
      <point x="708.0" y="-28.0" type="curve"/>
      <point x="772.0" y="-28.0"/>
      <point x="950.0" y="10.0"/>
      <point x="1064.0" y="96.0" type="curve"/>
      <point x="1064.0" y="656.0" type="line"/>
      <point x="932.0" y="656.0" type="line"/>
      <point x="932.0" y="132.0" type="line"/>
      <point x="861.0" y="101.0"/>
      <point x="788.0" y="74.0"/>
    </contour>
    <contour>
      <point x="1380.0" y="1488.0" type="line"/>
      <point x="1236.0" y="1488.0" type="line"/>
      <point x="984.0" y="1320.0" type="line"/>
      <point x="984.0" y="1028.0" type="line"/>
      <point x="1256.0" y="1248.0" type="line"/>
      <point x="1256.0" y="-572.0" type="line"/>
      <point x="1380.0" y="-572.0" type="line"/>
    </contour>
  </outline>
</glyph>
<glyph name="Phook" format="2">
  <advance width="1916.0"/>
  <unicode hex="01A4"/>
  <note>
!post:RemoveOverlap
</note>
  <outline>
    <contour>
      <point x="236.0" y="1728.0" type="line"/>
      <point x="236.0" y="1760.0" type="line" smooth="yes"/>
      <point x="236.0" y="1914.0"/>
      <point x="306.0" y="1984.0"/>
      <point x="460.0" y="1984.0" type="curve" smooth="yes"/>
      <point x="516.0" y="1984.0" type="line"/>
      <point x="516.0" y="2048.0" type="line"/>
      <point x="460.0" y="2048.0" type="line" smooth="yes"/>
      <point x="270.0" y="2048.0"/>
      <point x="172.0" y="1949.0"/>
      <point x="172.0" y="1760.0" type="curve" smooth="yes"/>
      <point x="172.0" y="1728.0" type="line"/>
    </contour>
    <component base="P" xOffset="164.0"/>
  </outline>
</glyph>
<glyph name="phook" format="2">
  <advance width="1651.0"/>
  <unicode hex="01A5"/>
  <outline>
    <contour>
      <point x="300.0" y="1536.0" type="line"/>
      <point x="298.0" y="1663.0"/>
      <point x="408.0" y="1735.0"/>
      <point x="580.0" y="1736.0" type="curve" smooth="yes"/>
      <point x="568.0" y="1739.0"/>
      <point x="569.0" y="1744.0"/>
      <point x="596.0" y="1740.0" type="curve"/>
      <point x="596.0" y="1856.0" type="line"/>
      <point x="591.0" y="1861.0"/>
      <point x="565.0" y="1857.0"/>
      <point x="540.0" y="1856.0" type="curve" smooth="yes"/>
      <point x="399.0" y="1857.0"/>
      <point x="262.0" y="1714.0"/>
      <point x="264.0" y="1536.0" type="curve"/>
    </contour>
    <component base="p"/>
  </outline>
</glyph>
<glyph name="YR" format="2">
  <advance width="1917.0"/>
  <unicode hex="01A6"/>
  <outline>
    <contour>
      <point x="164.0" y="1864.0" type="line"/>
      <point x="304.0" y="1864.0" type="line"/>
      <point x="304.0" y="2144.0" type="line"/>
      <point x="164.0" y="2144.0" type="line"/>
    </contour>
    <contour>
      <point x="168.0" y="2004.0" type="line"/>
      <point x="168.0" y="0.0" type="line"/>
      <point x="304.0" y="0.0" type="line"/>
      <point x="304.0" y="1892.0" type="line"/>
      <point x="728.0" y="1892.0" type="line" smooth="yes"/>
      <point x="1106.0" y="1892.0"/>
      <point x="1238.0" y="1708.0"/>
      <point x="1240.0" y="1440.0" type="curve" smooth="yes"/>
      <point x="1238.0" y="1206.0"/>
      <point x="1071.0" y="1000.0"/>
      <point x="728.0" y="1000.0" type="curve" smooth="yes"/>
      <point x="328.0" y="1000.0" type="line"/>
      <point x="328.0" y="892.0" type="line"/>
      <point x="880.0" y="892.0" type="line"/>
      <point x="892.0" y="872.0" type="line"/>
      <point x="1203.0" y="935.0"/>
      <point x="1370.0" y="1184.0"/>
      <point x="1372.0" y="1404.0" type="curve" smooth="yes"/>
      <point x="1370.0" y="1792.0"/>
      <point x="1166.0" y="2004.0"/>
      <point x="728.0" y="2004.0" type="curve" smooth="yes"/>
    </contour>
    <contour>
      <point x="1612.0" y="-512.0" type="line"/>
      <point x="1752.0" y="-512.0" type="line"/>
      <point x="1752.0" y="-496.0" type="line"/>
      <point x="976.0" y="932.0" type="line"/>
      <point x="840.0" y="932.0" type="line"/>
    </contour>
  </outline>
</glyph>
<glyph name="eshlooprev" format="2">
  <advance width="1203.0"/>
  <unicode hex="01AA"/>
  <outline>
    <contour>
      <point x="720.0" y="1728.0" type="line"/>
      <point x="720.0" y="-132.0" type="line" smooth="yes"/>
      <point x="719.0" y="-390.0"/>
      <point x="777.0" y="-526.0"/>
      <point x="964.0" y="-528.0" type="curve" smooth="yes"/>
      <point x="987.0" y="-526.0"/>
      <point x="1059.0" y="-516.0"/>
      <point x="1076.0" y="-500.0" type="curve"/>
      <point x="1076.0" y="-396.0" type="line"/>
      <point x="1068.0" y="-405.0"/>
      <point x="1035.0" y="-409.0"/>
      <point x="1024.0" y="-408.0" type="curve" smooth="yes"/>
      <point x="908.0" y="-409.0"/>
      <point x="851.0" y="-352.0"/>
      <point x="852.0" y="-132.0" type="curve" smooth="yes"/>
      <point x="852.0" y="1748.0" type="line"/>
    </contour>
    <contour>
      <point x="128.0" y="1748.0" type="curve" smooth="yes"/>
      <point x="128.0" y="1545.0"/>
      <point x="286.0" y="1374.0"/>
      <point x="492.0" y="1376.0" type="curve" smooth="yes"/>
      <point x="687.0" y="1374.0"/>
      <point x="851.0" y="1542.0"/>
      <point x="852.0" y="1748.0" type="curve" smooth="yes"/>
      <point x="851.0" y="1958.0"/>
      <point x="687.0" y="2118.0"/>
      <point x="492.0" y="2120.0" type="curve" smooth="yes"/>
      <point x="288.0" y="2118.0"/>
      <point x="128.0" y="1958.0"/>
    </contour>
    <contour>
      <point x="488.0" y="1520.0" type="curve" smooth="yes"/>
      <point x="368.0" y="1520.0"/>
      <point x="272.0" y="1594.0"/>
      <point x="272.0" y="1752.0" type="curve" smooth="yes"/>
      <point x="272.0" y="1903.0"/>
      <point x="368.0" y="1984.0"/>
      <point x="488.0" y="1984.0" type="curve" smooth="yes"/>
      <point x="612.0" y="1984.0"/>
      <point x="704.0" y="1901.0"/>
      <point x="704.0" y="1752.0" type="curve" smooth="yes"/>
      <point x="704.0" y="1594.0"/>
      <point x="609.0" y="1520.0"/>
    </contour>
  </outline>
</glyph>
<glyph name="tpalatalhook" format="2">
  <advance width="986.0"/>
  <unicode hex="01AB"/>
  <outline>
    <contour>
      <point x="640.0" y="76.0" type="line"/>
      <point x="640.0" y="-236.0" type="line" smooth="yes"/>
      <point x="641.0" y="-401.0"/>
      <point x="581.0" y="-463.0"/>
      <point x="436.0" y="-464.0" type="curve" smooth="yes"/>
      <point x="421.0" y="-463.0"/>
      <point x="397.0" y="-459.0"/>
      <point x="388.0" y="-456.0" type="curve"/>
      <point x="388.0" y="-576.0" type="line"/>
      <point x="401.0" y="-583.0"/>
      <point x="451.0" y="-578.0"/>
      <point x="484.0" y="-580.0" type="curve" smooth="yes"/>
      <point x="646.0" y="-578.0"/>
      <point x="814.0" y="-454.0"/>
      <point x="816.0" y="-236.0" type="curve" smooth="yes"/>
      <point x="816.0" y="108.0" type="line"/>
    </contour>
    <component base="t"/>
  </outline>
</glyph>
<glyph name="Thook" format="2">
  <advance width="1860.0"/>
  <unicode hex="01AC"/>
  <note>
!post:RemoveOverlap
</note>
  <outline>
    <contour>
      <point x="996.0" y="2048.0" type="line"/>
      <point x="428.0" y="2048.0" type="line" smooth="yes"/>
      <point x="286.0" y="2048.0"/>
      <point x="172.0" y="1922.0"/>
      <point x="172.0" y="1768.0" type="curve" smooth="yes"/>
      <point x="172.0" y="1728.0" type="line"/>
      <point x="264.0" y="1728.0" type="line"/>
      <point x="264.0" y="1760.0" type="line" smooth="yes"/>
      <point x="262.0" y="1867.0"/>
      <point x="312.0" y="1965.0"/>
      <point x="428.0" y="1964.0" type="curve" smooth="yes"/>
      <point x="996.0" y="1964.0" type="line"/>
    </contour>
    <contour>
      <point x="1688.0" y="2048.0" type="line"/>
      <point x="656.0" y="2048.0" type="line"/>
      <point x="656.0" y="1964.0" type="line"/>
      <point x="960.0" y="1964.0" type="line"/>
      <point x="960.0" y="0.0" type="line"/>
      <point x="1028.0" y="0.0" type="line"/>
      <point x="1028.0" y="1964.0" type="line"/>
      <point x="1688.0" y="1964.0" type="line"/>
    </contour>
  </outline>
</glyph>
<glyph name="thook" format="2">
  <advance width="706.0"/>
  <unicode hex="01AD"/>
  <outline>
    <contour>
      <point x="468.0" y="1632.0" type="line"/>
      <point x="468.0" y="1784.0" type="line" smooth="yes"/>
      <point x="468.0" y="1949.0"/>
      <point x="500.0" y="2022.0"/>
      <point x="644.0" y="2024.0" type="curve" smooth="yes"/>
      <point x="646.0" y="2022.0"/>
      <point x="670.0" y="2020.0"/>
      <point x="696.0" y="2012.0" type="curve"/>
      <point x="696.0" y="2100.0" type="line"/>
      <point x="674.0" y="2110.0"/>
      <point x="625.0" y="2118.0"/>
      <point x="640.0" y="2120.0" type="curve" smooth="yes"/>
      <point x="477.0" y="2118.0"/>
      <point x="334.0" y="1926.0"/>
      <point x="336.0" y="1784.0" type="curve" smooth="yes"/>
      <point x="336.0" y="1632.0" type="line"/>
    </contour>
    <contour>
      <point x="752.0" y="1488.0" type="line"/>
      <point x="20.0" y="1488.0" type="line"/>
      <point x="20.0" y="1384.0" type="line"/>
      <point x="752.0" y="1384.0" type="line"/>
    </contour>
    <contour>
      <point x="336.0" y="1564.0" type="line"/>
      <point x="336.0" y="400.0" type="line"/>
      <point x="334.0" y="89.0"/>
      <point x="482.0" y="-28.0"/>
      <point x="588.0" y="-28.0" type="curve" smooth="yes"/>
      <point x="682.0" y="-28.0"/>
      <point x="735.0" y="-7.0"/>
      <point x="744.0" y="-12.0" type="curve"/>
      <point x="744.0" y="116.0" type="line"/>
      <point x="725.0" y="113.0"/>
      <point x="658.0" y="94.0"/>
      <point x="624.0" y="96.0" type="curve" smooth="yes"/>
      <point x="566.0" y="94.0"/>
      <point x="468.0" y="147.0"/>
      <point x="468.0" y="352.0" type="curve"/>
      <point x="468.0" y="1564.0" type="line"/>
    </contour>
  </outline>
</glyph>
<glyph name="Trthook" format="2">
  <advance width="1734.0"/>
  <unicode hex="01AE"/>
  <outline>
    <contour>
      <point x="900.0" y="0.0" type="line"/>
      <point x="832.0" y="0.0" type="line"/>
      <point x="832.0" y="-244.0" type="line" smooth="yes"/>
      <point x="833.0" y="-374.0"/>
      <point x="973.0" y="-576.0"/>
      <point x="1156.0" y="-576.0" type="curve"/>
      <point x="1228.0" y="-576.0" type="line"/>
      <point x="1228.0" y="-472.0" type="line"/>
      <point x="1164.0" y="-472.0" type="line"/>
      <point x="1016.0" y="-471.0"/>
      <point x="901.0" y="-434.0"/>
      <point x="900.0" y="-236.0" type="curve" smooth="yes"/>
    </contour>
    <component base="T"/>
  </outline>
</glyph>
<glyph name="Uhorn" format="2">
  <advance width="2422.0"/>
  <unicode hex="01AF"/>
  <outline>
    <contour>
      <point x="2060.0" y="2224.0" type="line"/>
      <point x="2061.0" y="1958.0"/>
      <point x="1937.0" y="1838.0"/>
      <point x="1684.0" y="1840.0" type="curve"/>
      <point x="1684.0" y="1672.0" type="line"/>
      <point x="2062.0" y="1670.0"/>
      <point x="2250.0" y="1847.0"/>
      <point x="2252.0" y="2224.0" type="curve"/>
    </contour>
    <component base="U"/>
  </outline>
</glyph>
<glyph name="uhorn" format="2">
  <advance width="1507.0"/>
  <unicode hex="01B0"/>
  <outline>
    <contour>
      <point x="1408.0" y="1588.0" type="line"/>
      <point x="1407.0" y="1398.0"/>
      <point x="1429.0" y="1332.0"/>
      <point x="1212.0" y="1332.0" type="curve"/>
      <point x="1212.0" y="1196.0" type="line"/>
      <point x="1510.0" y="1194.0"/>
      <point x="1576.0" y="1326.0"/>
      <point x="1576.0" y="1588.0" type="curve"/>
    </contour>
    <component base="u" xOffset="-12.0"/>
  </outline>
</glyph>
<glyph name="Upsilon2" format="2">
  <advance width="2096.0"/>
  <unicode hex="01B1"/>
  <outline>
    <contour>
      <point x="208.0" y="1000.0" type="curve" smooth="yes"/>
      <point x="209.0" y="396.0"/>
      <point x="558.0" y="-28.0"/>
      <point x="1048.0" y="-28.0" type="curve" smooth="yes"/>
      <point x="1538.0" y="-28.0"/>
      <point x="1887.0" y="396.0"/>
      <point x="1888.0" y="1000.0" type="curve"/>
      <point x="1887.0" y="1433.0"/>
      <point x="1706.0" y="1762.0"/>
      <point x="1416.0" y="1948.0" type="curve"/>
      <point x="1416.0" y="1964.0" type="line"/>
      <point x="1888.0" y="1964.0" type="line"/>
      <point x="1888.0" y="2048.0" type="line"/>
      <point x="1244.0" y="2048.0" type="line"/>
      <point x="1244.0" y="1936.0" type="line"/>
      <point x="1555.0" y="1800.0"/>
      <point x="1844.0" y="1436.0"/>
      <point x="1844.0" y="968.0" type="curve" smooth="yes"/>
      <point x="1844.0" y="461.0"/>
      <point x="1513.0" y="50.0"/>
      <point x="1048.0" y="52.0" type="curve" smooth="yes"/>
      <point x="583.0" y="50.0"/>
      <point x="252.0" y="461.0"/>
      <point x="252.0" y="968.0" type="curve"/>
      <point x="252.0" y="1436.0"/>
      <point x="541.0" y="1800.0"/>
      <point x="852.0" y="1936.0" type="curve"/>
      <point x="852.0" y="2048.0" type="line"/>
      <point x="208.0" y="2048.0" type="line"/>
      <point x="208.0" y="1964.0" type="line"/>
      <point x="684.0" y="1964.0" type="line"/>
      <point x="684.0" y="1948.0" type="line"/>
      <point x="390.0" y="1755.0"/>
      <point x="209.0" y="1433.0"/>
    </contour>
  </outline>
</glyph>
<glyph name="Vcursive" format="2">
  <advance width="1670.0"/>
  <unicode hex="01B2"/>
  <outline>
    <contour>
      <point x="832.0" y="-28.0" type="curve" smooth="yes"/>
      <point x="1146.0" y="-28.0"/>
      <point x="1502.0" y="167.0"/>
      <point x="1504.0" y="608.0" type="curve" smooth="yes"/>
      <point x="1504.0" y="1640.0" type="line" smooth="yes"/>
      <point x="1502.0" y="1891.0"/>
      <point x="1344.0" y="2034.0"/>
      <point x="1152.0" y="2036.0" type="curve" smooth="yes"/>
      <point x="1142.0" y="2034.0"/>
      <point x="1060.0" y="2018.0"/>
      <point x="1048.0" y="2012.0" type="curve"/>
      <point x="1048.0" y="1916.0" type="line"/>
      <point x="1051.0" y="1923.0"/>
      <point x="1089.0" y="1921.0"/>
      <point x="1104.0" y="1920.0" type="curve" smooth="yes"/>
      <point x="1256.0" y="1921.0"/>
      <point x="1367.0" y="1842.0"/>
      <point x="1368.0" y="1640.0" type="curve" smooth="yes"/>
      <point x="1368.0" y="608.0" type="line" smooth="yes"/>
      <point x="1367.0" y="232.0"/>
      <point x="1129.0" y="80.0"/>
      <point x="832.0" y="80.0" type="curve" smooth="yes"/>
      <point x="538.0" y="80.0"/>
      <point x="304.0" y="232.0"/>
      <point x="304.0" y="608.0" type="curve" smooth="yes"/>
      <point x="304.0" y="2004.0" type="line"/>
      <point x="172.0" y="2004.0" type="line"/>
      <point x="172.0" y="608.0" type="line" smooth="yes"/>
      <point x="171.0" y="170.0"/>
      <point x="473.0" y="-28.0"/>
    </contour>
  </outline>
</glyph>
<glyph name="Yhook" format="2">
  <advance width="1753.0"/>
  <unicode hex="01B3"/>
  <note>
!post:RemoveOverlap
</note>
  <outline>
    <contour>
      <point x="1384.0" y="1832.0" type="line"/>
      <point x="1424.0" y="1904.0" type="line" smooth="yes"/>
      <point x="1482.0" y="2006.0"/>
      <point x="1591.0" y="2002.0"/>
      <point x="1648.0" y="1964.0" type="curve"/>
      <point x="1684.0" y="2040.0" type="line"/>
      <point x="1543.0" y="2126.0"/>
      <point x="1423.0" y="2045.0"/>
      <point x="1332.0" y="1904.0" type="curve" smooth="yes"/>
      <point x="1312.0" y="1872.0" type="line"/>
    </contour>
    <contour>
      <point x="772.0" y="972.0" type="line"/>
      <point x="820.0" y="972.0" type="line"/>
      <point x="820.0" y="1020.0" type="line"/>
      <point x="772.0" y="1020.0" type="line"/>
    </contour>
    <contour>
      <point x="176.0" y="2048.0" type="line"/>
      <point x="80.0" y="2048.0" type="line"/>
      <point x="764.0" y="896.0" type="line"/>
      <point x="764.0" y="0.0" type="line"/>
      <point x="828.0" y="0.0" type="line"/>
      <point x="828.0" y="896.0" type="line"/>
      <point x="1384.0" y="1832.0" type="line"/>
      <point x="1312.0" y="1872.0" type="line"/>
      <point x="796.0" y="1000.0" type="line"/>
    </contour>
  </outline>
</glyph>
<glyph name="yhook" format="2">
  <advance width="1718.0"/>
  <unicode hex="01B4"/>
  <outline>
    <contour>
      <point x="1232.0" y="1332.0" type="line"/>
      <point x="1252.0" y="1384.0" type="line" smooth="yes"/>
      <point x="1369.0" y="1716.0"/>
      <point x="1437.0" y="1856.0"/>
      <point x="1592.0" y="1832.0" type="curve" smooth="yes"/>
      <point x="1655.0" y="1820.0"/>
      <point x="1747.0" y="1782.0"/>
      <point x="1804.0" y="1736.0" type="curve"/>
      <point x="1900.0" y="1736.0" type="line"/>
      <point x="1857.0" y="1825.0"/>
      <point x="1785.0" y="1889.0"/>
      <point x="1708.0" y="1932.0" type="curve" smooth="yes"/>
      <point x="1416.0" y="1980.0"/>
      <point x="1296.0" y="1675.0"/>
      <point x="1192.0" y="1388.0" type="curve" smooth="yes"/>
      <point x="1188.0" y="1392.0" type="line"/>
    </contour>
    <contour>
      <point x="580.0" y="-232.0" type="line" smooth="yes"/>
      <point x="491.0" y="-469.0"/>
      <point x="352.0" y="-488.0"/>
      <point x="196.0" y="-488.0" type="curve"/>
      <point x="86.0" y="-488.0"/>
      <point x="35.0" y="-482.0"/>
      <point x="36.0" y="-480.0" type="curve"/>
      <point x="36.0" y="-588.0" type="line"/>
      <point x="25.0" y="-581.0"/>
      <point x="202.0" y="-600.0"/>
      <point x="204.0" y="-600.0" type="curve" smooth="yes"/>
      <point x="336.0" y="-600.0"/>
      <point x="530.0" y="-541.0"/>
      <point x="644.0" y="-236.0" type="curve" smooth="yes"/>
      <point x="1232.0" y="1332.0" type="line"/>
      <point x="1188.0" y="1392.0" type="line"/>
      <point x="704.0" y="40.0" type="line"/>
      <point x="192.0" y="1536.0" type="line"/>
      <point x="124.0" y="1536.0" type="line"/>
      <point x="652.0" y="-40.0" type="line"/>
    </contour>
  </outline>
</glyph>
<glyph name="Ezh" format="2">
  <advance width="1952.0"/>
  <unicode hex="01B7"/>
  <outline>
    <contour>
      <point x="172.0" y="100.0" type="line"/>
      <point x="172.0" y="-292.0"/>
      <point x="519.0" y="-584.0"/>
      <point x="952.0" y="-584.0" type="curve" smooth="yes"/>
      <point x="1451.0" y="-584.0"/>
      <point x="1736.0" y="-192.0"/>
      <point x="1736.0" y="212.0" type="curve" smooth="yes"/>
      <point x="1736.0" y="676.0"/>
      <point x="1360.0" y="1032.0"/>
      <point x="808.0" y="1056.0" type="curve"/>
      <point x="808.0" y="1064.0" type="line"/>
      <point x="1668.0" y="1996.0" type="line"/>
      <point x="1668.0" y="2048.0" type="line"/>
      <point x="280.0" y="2048.0" type="line"/>
      <point x="280.0" y="1984.0" type="line"/>
      <point x="1604.0" y="1984.0" type="line"/>
      <point x="1604.0" y="2021.0" type="line"/>
      <point x="712.0" y="1056.0" type="line"/>
      <point x="712.0" y="992.0" type="line"/>
      <point x="805.0" y="992.0" type="line" smooth="yes"/>
      <point x="1315.0" y="970.0"/>
      <point x="1672.0" y="648.0"/>
      <point x="1672.0" y="212.0" type="curve" smooth="yes"/>
      <point x="1672.0" y="-209.0"/>
      <point x="1367.0" y="-520.0"/>
      <point x="952.0" y="-520.0" type="curve" smooth="yes"/>
      <point x="547.0" y="-520.0"/>
      <point x="236.0" y="-250.0"/>
      <point x="236.0" y="100.0" type="curve"/>
    </contour>
  </outline>
</glyph>
<glyph name="ezhtail" format="2">
  <advance width="1419.0"/>
  <unicode hex="01BA"/>
  <outline>
    <contour>
      <point x="180.0" y="1488.0" type="line"/>
      <point x="180.0" y="1384.0" type="line"/>
      <point x="1212.0" y="1384.0" type="line"/>
      <point x="480.0" y="816.0" type="line"/>
      <point x="480.0" y="716.0" type="line"/>
      <point x="620.0" y="716.0" type="line"/>
      <point x="1328.0" y="1388.0" type="line"/>
      <point x="1328.0" y="1488.0" type="line"/>
    </contour>
    <contour>
      <point x="248.0" y="-192.0" type="curve" smooth="yes"/>
      <point x="248.0" y="-54.0"/>
      <point x="308.0" y="44.0"/>
      <point x="580.0" y="104.0" type="curve" smooth="yes"/>
      <point x="973.0" y="194.0"/>
      <point x="1134.0" y="281.0"/>
      <point x="1132.0" y="532.0" type="curve" smooth="yes"/>
      <point x="1134.0" y="754.0"/>
      <point x="921.0" y="864.0"/>
      <point x="628.0" y="864.0" type="curve" smooth="yes"/>
      <point x="632.0" y="864.0" type="line"/>
      <point x="632.0" y="716.0" type="line"/>
      <point x="628.0" y="716.0" type="line" smooth="yes"/>
      <point x="905.0" y="714.0"/>
      <point x="985.0" y="642.0"/>
      <point x="984.0" y="528.0" type="curve" smooth="yes"/>
      <point x="985.0" y="376.0"/>
      <point x="929.0" y="316.0"/>
      <point x="660.0" y="256.0" type="curve" smooth="yes"/>
      <point x="300.0" y="171.0"/>
      <point x="110.0" y="48.0"/>
      <point x="108.0" y="-172.0" type="curve" smooth="yes"/>
      <point x="110.0" y="-434.0"/>
      <point x="312.0" y="-600.0"/>
      <point x="620.0" y="-600.0" type="curve" smooth="yes"/>
      <point x="983.0" y="-600.0"/>
      <point x="1182.0" y="-373.0"/>
      <point x="1180.0" y="-120.0" type="curve"/>
      <point x="1036.0" y="-120.0" type="line"/>
      <point x="1018.0" y="-374.0"/>
      <point x="804.0" y="-454.0"/>
      <point x="628.0" y="-456.0" type="curve" smooth="yes"/>
      <point x="368.0" y="-454.0"/>
      <point x="248.0" y="-337.0"/>
    </contour>
  </outline>
</glyph>
<glyph name="Tonefive" format="2">
  <advance width="1570.0"/>
  <unicode hex="01BC"/>
  <outline>
    <contour>
      <point x="416.0" y="2048.0" type="line"/>
      <point x="84.0" y="2048.0" type="line"/>
      <point x="84.0" y="1984.0" type="line"/>
      <point x="416.0" y="1984.0" type="line"/>
    </contour>
    <component base="five" xOffset="-48.0"/>
  </outline>
</glyph>
<glyph name="tonefive" format="2">
  <advance width="1196.0"/>
  <unicode hex="01BD"/>
  <outline>
    <contour>
      <point x="300.0" y="664.0" type="line"/>
      <point x="368.0" y="777.0"/>
      <point x="457.0" y="883.0"/>
      <point x="648.0" y="884.0" type="curve" smooth="yes"/>
      <point x="899.0" y="883.0"/>
      <point x="1017.0" y="720.0"/>
      <point x="1016.0" y="484.0" type="curve" smooth="yes"/>
      <point x="1017.0" y="257.0"/>
      <point x="902.0" y="85.0"/>
      <point x="628.0" y="84.0" type="curve" smooth="yes"/>
      <point x="421.0" y="85.0"/>
      <point x="264.0" y="229.0"/>
      <point x="272.0" y="424.0" type="curve"/>
      <point x="160.0" y="396.0" type="line"/>
      <point x="161.0" y="122.0"/>
      <point x="460.0" y="-24.0"/>
      <point x="628.0" y="-24.0" type="curve" smooth="yes"/>
      <point x="999.0" y="-24.0"/>
      <point x="1143.0" y="216.0"/>
      <point x="1144.0" y="512.0" type="curve" smooth="yes"/>
      <point x="1143.0" y="859.0"/>
      <point x="954.0" y="1058.0"/>
      <point x="636.0" y="1048.0" type="curve" smooth="yes"/>
      <point x="559.0" y="1039.0"/>
      <point x="425.0" y="992.0"/>
      <point x="368.0" y="944.0" type="curve"/>
      <point x="412.0" y="1348.0" type="line"/>
      <point x="1096.0" y="1348.0" type="line"/>
      <point x="1096.0" y="1488.0" type="line"/>
      <point x="288.0" y="1488.0" type="line"/>
      <point x="208.0" y="684.0" type="line"/>
    </contour>
    <contour>
      <point x="448.0" y="1488.0" type="line"/>
      <point x="56.0" y="1488.0" type="line"/>
      <point x="56.0" y="1348.0" type="line"/>
      <point x="448.0" y="1348.0" type="line"/>
    </contour>
  </outline>
</glyph>
<glyph name="glottalstopbarinv" format="2">
  <advance width="1419.0"/>
  <unicode hex="01BE"/>
  <outline>
    <contour>
      <point x="1108.0" y="376.0" type="curve" smooth="yes"/>
      <point x="1107.0" y="239.0"/>
      <point x="980.0" y="118.0"/>
      <point x="732.0" y="120.0" type="curve" smooth="yes"/>
      <point x="548.0" y="118.0"/>
      <point x="334.0" y="202.0"/>
      <point x="328.0" y="460.0" type="curve"/>
      <point x="176.0" y="460.0" type="line"/>
      <point x="172.0" y="194.0"/>
      <point x="372.0" y="-28.0"/>
      <point x="740.0" y="-28.0" type="curve" smooth="yes"/>
      <point x="1040.0" y="-28.0"/>
      <point x="1251.0" y="146.0"/>
      <point x="1252.0" y="412.0" type="curve" smooth="yes"/>
      <point x="1251.0" y="784.0"/>
      <point x="756.0" y="751.0"/>
      <point x="756.0" y="1044.0" type="curve" smooth="yes"/>
      <point x="756.0" y="1832.0" type="line"/>
      <point x="628.0" y="1832.0" type="line"/>
      <point x="628.0" y="1024.0" type="line" smooth="yes"/>
      <point x="626.0" y="655.0"/>
      <point x="1107.0" y="694.0"/>
    </contour>
    <contour>
      <point x="1040.0" y="1488.0" type="line"/>
      <point x="308.0" y="1488.0" type="line"/>
      <point x="308.0" y="1384.0" type="line"/>
      <point x="1040.0" y="1384.0" type="line"/>
    </contour>
  </outline>
</glyph>
<glyph name="wynn" format="2">
  <advance width="1654.0"/>
  <unicode hex="01BF"/>
  <outline>
    <contour>
      <point x="380.0" y="1204.0" type="line"/>
      <point x="360.0" y="1488.0" type="line"/>
      <point x="252.0" y="1488.0" type="line"/>
      <point x="252.0" y="-572.0" type="line"/>
      <point x="380.0" y="-572.0" type="line"/>
    </contour>
    <contour>
      <point x="284.0" y="992.0" type="line"/>
      <point x="364.0" y="1162.0"/>
      <point x="513.0" y="1396.0"/>
      <point x="776.0" y="1396.0" type="curve" smooth="yes"/>
      <point x="1107.0" y="1396.0"/>
      <point x="1275.0" y="1099.0"/>
      <point x="1276.0" y="748.0" type="curve" smooth="yes"/>
      <point x="1276.0" y="728.0" type="line" smooth="yes"/>
      <point x="1275.0" y="243.0"/>
      <point x="885.0" y="60.0"/>
      <point x="380.0" y="-112.0" type="curve"/>
      <point x="344.0" y="-224.0" type="line"/>
      <point x="977.0" y="-14.0"/>
      <point x="1405.0" y="163.0"/>
      <point x="1404.0" y="728.0" type="curve" smooth="yes"/>
      <point x="1404.0" y="748.0" type="line" smooth="yes"/>
      <point x="1405.0" y="1203.0"/>
      <point x="1208.0" y="1516.0"/>
      <point x="836.0" y="1516.0" type="curve" smooth="yes"/>
      <point x="455.0" y="1516.0"/>
      <point x="227.0" y="1293.0"/>
      <point x="196.0" y="816.0" type="curve"/>
    </contour>
  </outline>
</glyph>
<glyph name="pipe" format="2">
  <advance width="652.0"/>
  <unicode hex="01C0"/>
  <outline>
    <contour>
      <point x="424.0" y="2084.0" type="line"/>
      <point x="232.0" y="2084.0" type="line"/>
      <point x="232.0" y="0.0" type="line"/>
      <point x="424.0" y="0.0" type="line"/>
    </contour>
  </outline>
</glyph>
<glyph name="Gbar" format="2">
  <advance width="2080.0"/>
  <unicode hex="01E4"/>
  <outline>
    <contour>
      <point x="2000.0" y="560.0" type="line"/>
      <point x="1080.0" y="560.0" type="line"/>
      <point x="1080.0" y="496.0" type="line"/>
      <point x="2000.0" y="496.0" type="line"/>
    </contour>
    <component base="G"/>
  </outline>
</glyph>
